<?xml version="1.0" encoding="UTF-8"?>
<svg version="1.1" xmlns="http://www.w3.org/2000/svg" width="1754" height="1240">
<path d="M0 0 C578.82 0 1157.64 0 1754 0 C1754 409.2 1754 818.4 1754 1240 C1175.18 1240 596.36 1240 0 1240 C0 830.8 0 421.6 0 0 Z " fill="#56A751" transform="translate(0,0)"/>
<path d="M0 0 C578.82 0 1157.64 0 1754 0 C1754 289.41 1754 578.82 1754 877 C1394.63 877 1035.26 877 665 877 C665 748.63 665 620.26 665 488 C669.29 488.99 673.58 489.98 678 491 C682.8602911 491.32723618 682.8602911 491.32723618 687.72265625 491.62109375 C692.37476633 492.158942 696.61141126 493.54399983 701.02734375 495.0625 C706.18556665 496.689272 711.04717216 497.10920032 716.4375 497.0703125 C739.97227074 497.17773455 739.97227074 497.17773455 749.953125 503.2109375 C769.21846766 514.52315152 799.61020002 510.57067884 820.25 505.25 C826.68081696 503.29311113 832.33951311 500.61247153 838 497 C838.89138672 496.43345703 838.89138672 496.43345703 839.80078125 495.85546875 C849.06315033 489.08221178 852.41026839 476.32607599 856.23339844 466.04833984 C857.20382672 463.45538019 858.21907296 460.88194794 859.25 458.3125 C859.5490625 457.55453125 859.848125 456.7965625 860.15625 456.015625 C860.93348832 454.15888901 861.83680378 452.3562783 862.75 450.5625 C865.14917333 443.724856 864.98752696 437.3810987 862 430.75 C858.7337237 424.91338696 854.16538297 420.65463201 848.25 417.5625 C845.44123436 415.6119683 844.60759144 413.37409732 843.234375 410.3125 C841.75994922 407.55028461 839.94369758 405.33907958 837.9375 402.9375 C834.6929392 399.02723449 832.8397412 395.69134006 831 391 C827.76308367 385.56198056 822.82612795 383.0664811 817 381 C812.65813925 380.45960989 808.42752009 380.56501975 804.0625 380.75 C801.84515466 380.81113301 799.62770432 380.86860057 797.41015625 380.921875 C795.95814819 380.97746582 795.95814819 380.97746582 794.47680664 381.03417969 C792 381 792 381 789 380 C776.94182827 379.08352658 766.56242617 380.540357 755.11230469 384.31201172 C753.12860778 384.9581118 751.13728625 385.55110972 749.1328125 386.12890625 C726.63851151 392.95328721 706.03057399 406.21375667 694.09375 426.87109375 C692.88529591 429.09036045 692.88529591 429.09036045 692 432 C690.16162109 432.84375 690.16162109 432.84375 687.7734375 433.5 C686.90589844 433.7475 686.03835938 433.995 685.14453125 434.25 C684.23058594 434.4975 683.31664062 434.745 682.375 435 C680.59002141 435.4959709 678.80613951 435.99590753 677.0234375 436.5 C676.22856934 436.7165625 675.43370117 436.933125 674.61474609 437.15625 C671.32999592 438.216203 668.17245994 439.64037431 665 441 C664.34 328.8 663.68 216.6 663 101 C658.83018 98.91509 657.04384973 98.74897309 652.4961853 98.74603271 C651.84489391 98.74291273 651.19360252 98.73979275 650.52257502 98.73657823 C648.3422689 98.7286068 646.16224175 98.73491833 643.98193359 98.74121094 C642.41810442 98.73850074 640.85427652 98.73493965 639.29045105 98.73059082 C635.04478945 98.72146942 630.799225 98.72500965 626.55356169 98.73134899 C622.11420649 98.73640846 617.67485967 98.73171785 613.23550415 98.72857666 C605.78231307 98.72493762 598.32916163 98.72973527 590.87597656 98.73925781 C582.25082331 98.75015022 573.62576455 98.74661084 565.00061357 98.735605 C557.60097931 98.72653986 550.20137354 98.72524281 542.80173552 98.73048234 C538.37959151 98.73360528 533.95749198 98.73400237 529.5353508 98.72740936 C525.38047911 98.72164747 521.22572977 98.72561144 517.07087135 98.73719788 C515.54300579 98.73985034 514.01512999 98.73906943 512.48726845 98.73467255 C510.4079874 98.72923878 508.32910292 98.73602419 506.24984741 98.74603271 C504.50162469 98.74716379 504.50162469 98.74716379 502.71808434 98.74831772 C499.85230309 98.72176437 499.85230309 98.72176437 498 101 C497.68415905 103.79379803 497.68415905 103.79379803 497.7215271 107.12490845 C497.71036362 108.43185165 497.69920013 109.73879486 497.68769836 111.08534241 C497.68533316 112.54208345 497.68315755 113.99882482 497.68115234 115.45556641 C497.67185856 116.98294102 497.66169072 118.51031053 497.65071106 120.03767395 C497.62333487 124.19237083 497.60823919 128.34703368 497.59528303 132.5017972 C497.5796857 136.84070538 497.55288473 141.17954369 497.5272522 145.5184021 C497.48040405 153.7383553 497.44368923 161.95832155 497.41057932 170.17834032 C497.36526602 181.28343213 497.30437181 192.38843766 497.24433136 203.49345779 C497.1501166 220.99559535 497.07678195 238.49775719 497 256 C450.8 256 404.6 256 357 256 C357 242.8 357 229.6 357 216 C376 215 376 215 383 215 C392.7211711 212.98953882 402.28925868 209.57877812 407.9375 201 C411.58784119 194.71984311 412.38900348 188.81457094 412.375 181.6875 C412.37338867 180.84098877 412.37177734 179.99447754 412.37011719 179.12231445 C412.24938766 172.99292366 411.46556309 168.18072313 408 163 C407.63003906 162.42121094 407.26007813 161.84242188 406.87890625 161.24609375 C405.93911609 159.81747501 404.9716156 158.40716742 404 157 C403.67 156.01 403.34 155.02 403 154 C401.23408113 152.99083967 401.23408113 152.99083967 399 152 C398.113125 151.360625 397.22625 150.72125 396.3125 150.0625 C387.60915117 144.64343375 379.09713652 144.57275322 369.08789062 144.6484375 C368.10369141 144.63296875 367.11949219 144.6175 366.10546875 144.6015625 C365.22012451 144.60494629 364.33478027 144.60833008 363.42260742 144.61181641 C361 144 361 144 358.71899414 142.02612305 C356.39118794 137.92824521 356.39751495 134.61963627 356.390625 129.98046875 C356.37408875 129.12189774 356.35755249 128.26332672 356.34051514 127.3787384 C356.29209967 124.64825237 356.27067894 121.918323 356.25 119.1875 C356.22183486 117.3313523 356.19190666 115.47523046 356.16015625 113.61914062 C356.08634262 109.07947293 356.03672872 104.54011307 356 100 C352.46446431 97.81651019 349.6075656 97.748691 345.4961853 97.74603271 C344.84489391 97.74291273 344.19360252 97.73979275 343.52257502 97.73657823 C341.3422689 97.7286068 339.16224175 97.73491833 336.98193359 97.74121094 C335.41810442 97.73850074 333.85427652 97.73493965 332.29045105 97.73059082 C328.04478945 97.72146942 323.799225 97.72500965 319.55356169 97.73134899 C315.11420649 97.73640846 310.67485967 97.73171785 306.23550415 97.72857666 C298.78231307 97.72493762 291.32916163 97.72973527 283.87597656 97.73925781 C275.25082331 97.75015022 266.62576455 97.74661084 258.00061357 97.735605 C250.60097931 97.72653986 243.20137354 97.72524281 235.80173552 97.73048234 C231.37959151 97.73360528 226.95749198 97.73400237 222.5353508 97.72740936 C218.38047911 97.72164747 214.22572977 97.72561144 210.07087135 97.73719788 C208.54300579 97.73985034 207.01512999 97.73906943 205.48726845 97.73467255 C203.4079874 97.72923878 201.32910292 97.73602419 199.24984741 97.74603271 C197.50162469 97.74716379 197.50162469 97.74716379 195.71808434 97.74831772 C192.85230309 97.72176437 192.85230309 97.72176437 191 100 C190.75443629 102.72000357 190.62643514 105.34574257 190.5859375 108.0703125 C190.56657135 108.86654022 190.5472052 109.66276794 190.5272522 110.48312378 C190.46739526 113.03030634 190.42104721 115.57753395 190.375 118.125 C190.33682579 119.8502803 190.29777439 121.57554143 190.2578125 123.30078125 C190.16168891 127.53369876 190.07768092 131.76670549 190 136 C189.18958252 136.32540771 188.37916504 136.65081543 187.54418945 136.98608398 C186.47386475 137.42251221 185.40354004 137.85894043 184.30078125 138.30859375 C183.24286377 138.73712646 182.18494629 139.16565918 181.0949707 139.60717773 C177.51062043 141.22023432 174.41023763 143.18144554 171.23046875 145.47265625 C164.96537272 149.76276579 160.70935943 151.56199908 153.1875 152.0625 C142.79191257 153.01196506 133.70851919 154.3257409 126 162 C120.88028601 168.72440047 119.16335867 174.57382656 120 183 C122.16081787 191.65628847 127.10406923 198.48970136 134.375 203.625 C145.20930546 209.907615 157.77857751 213.17773688 170.1875 213.1875 C170.98736328 213.19974609 171.78722656 213.21199219 172.61132812 213.22460938 C178.86332395 213.23967443 183.63856334 212.27228733 190 211 C190 225.85 190 240.7 190 256 C145.78 256 101.56 256 56 256 C55.67 204.52 55.34 153.04 55 100 C51.20882698 98.10441349 49.88323495 97.74084012 45.86425781 97.68115234 C44.82930176 97.66109131 43.7943457 97.64103027 42.72802734 97.62036133 C41.64730957 97.60900146 40.5665918 97.5976416 39.453125 97.5859375 C37.95531494 97.55947144 37.95531494 97.55947144 36.42724609 97.5324707 C32.7016604 97.46946406 28.97580621 97.42323568 25.25 97.375 C16.9175 97.25125 8.585 97.1275 0 97 C0 64.99 0 32.98 0 0 Z " fill="#00AAFE" transform="translate(0,0)"/>
<path d="M0 0 C51 0 51 0 56 3 C56.61523914 5.8054533 56.61523914 5.8054533 56.60127258 9.28312683 C56.6081459 10.59985886 56.61501923 11.91659088 56.62210083 13.27322388 C56.60440488 14.73578447 56.58623083 16.19833934 56.56762695 17.66088867 C56.56621686 19.19825698 56.5670077 20.73562865 56.56983948 22.272995 C56.57127658 26.45066386 56.54183991 30.62761781 56.50696969 34.80512023 C56.4757548 39.16930393 56.47277931 43.53350326 56.46684265 47.89778137 C56.45128983 56.16392665 56.41024206 64.42974206 56.3600952 72.69574195 C56.2938076 83.86428551 56.26677883 95.03291901 56.23758411 106.20160961 C56.19054104 123.80132025 56.09093868 141.40033473 56 159 C100.22 159 144.44 159 190 159 C190 144.15 190 129.3 190 114 C186.7 114.99 183.4 115.98 180 117 C176.8015344 117.29659957 173.87051396 117.47871697 170.6875 117.4375 C169.86572266 117.43137695 169.04394531 117.42525391 168.19726562 117.41894531 C160.96024489 117.23504916 154.74704659 115.60681346 148 113 C147.03578125 112.69964844 146.0715625 112.39929688 145.078125 112.08984375 C134.28402173 108.64586881 126.31352438 102.08785821 120.96875 92.06640625 C118.32442597 85.98201252 117.79585278 79.72951153 119.84375 73.38671875 C123.211583 65.8887392 128.12940409 61.15860156 135.25 57.1875 C142.28723068 54.95904362 149.39765324 54.06532893 156.75 53.6875 C162.32188276 53.22516924 165.54999212 51.2091403 170 48 C184.2556391 39 184.2556391 39 190 39 C189.97643433 37.38774536 189.97643433 37.38774536 189.95239258 35.74291992 C189.89810889 31.75666797 189.86365579 27.77044872 189.83520508 23.78393555 C189.82011484 22.05829373 189.79964025 20.33269028 189.77368164 18.60717773 C189.73730791 16.12734512 189.72027641 13.64801936 189.70703125 11.16796875 C189.69154739 10.39599655 189.67606354 9.62402435 189.66011047 8.82865906 C189.65844035 3.518011 189.65844035 3.518011 191.12357521 1.29598045 C193.87748071 -0.606045 196.03550624 -0.37771513 199.3633728 -0.38095093 C200.01169307 -0.3856309 200.66001334 -0.39031087 201.32797968 -0.39513266 C203.50450459 -0.40711669 205.6804038 -0.3976126 207.85693359 -0.38818359 C209.4157498 -0.39224788 210.97456312 -0.39758896 212.53337097 -0.40411377 C216.77106879 -0.4178125 221.00854794 -0.41247764 225.24624968 -0.40297651 C229.67887182 -0.39539043 234.11147503 -0.40242285 238.5440979 -0.40713501 C245.99069586 -0.41259677 253.43720464 -0.40539113 260.88378906 -0.39111328 C269.49242924 -0.37479792 278.10085615 -0.38006545 286.70949113 -0.3965925 C294.09812221 -0.41020969 301.48668909 -0.41212552 308.87532866 -0.40427649 C313.28921924 -0.39959971 317.70300963 -0.398975 322.11689377 -0.40888596 C326.26853466 -0.41755632 330.41990097 -0.41153251 334.57151222 -0.39420319 C336.09488914 -0.39023819 337.61828918 -0.39137264 339.14165688 -0.39799118 C341.22230256 -0.40619693 343.30207008 -0.39589797 345.38265991 -0.38095093 C347.12868279 -0.37925431 347.12868279 -0.37925431 348.90997887 -0.37752342 C352.38670545 0.04724575 354.28136255 0.80137688 357 3 C357.48719305 6.08413028 357.65125597 8.63452944 357.6015625 11.71875 C357.61357193 13.00017883 357.61357193 13.00017883 357.62582397 14.30749512 C357.64893108 17.03881117 357.63941349 19.76864314 357.625 22.5 C357.62115679 25.23107886 357.62455278 27.96150039 357.64559937 30.69250488 C357.65771978 32.39192763 357.65496803 34.09153462 357.63589478 35.79089355 C357.47182861 40.08035916 357.47182861 40.08035916 359.52206421 43.61706543 C360.00978302 44.07343384 360.49750183 44.52980225 361 45 C361 45.66 361 46.32 361 47 C361.6391333 46.97905273 362.2782666 46.95810547 362.93676758 46.93652344 C386.85924691 46.25493445 386.85924691 46.25493445 395 51 C396.07701172 51.61875 396.07701172 51.61875 397.17578125 52.25 C405.07028719 57.48326947 410.55970663 65.90703837 413 75 C413.41594606 78.13840966 413.47765823 81.21206142 413.4375 84.375 C413.42614014 85.62845215 413.42614014 85.62845215 413.41455078 86.90722656 C413.2452129 93.25307108 412.40135123 98.52361059 409 104 C408.41605469 104.9590625 408.41605469 104.9590625 407.8203125 105.9375 C402.71162595 112.95060816 393.65572453 116.7071219 385.41357422 118.64038086 C380.14648929 119.42516906 374.81097616 119.20028102 369.5 119.125 C365.375 119.08375 361.25 119.0425 357 119 C357 132.2 357 145.4 357 159 C403.2 159 449.4 159 497 159 C496.96519531 147.84574219 496.93039062 136.69148437 496.89453125 125.19921875 C496.87920968 118.14908647 496.86464442 111.0989662 496.85351562 104.04882812 C496.83569482 92.84899794 496.81471262 81.64923531 496.77368164 70.44946289 C496.74381699 62.29376594 496.72443398 54.13812365 496.71773452 45.98237354 C496.71381726 41.66236628 496.70458571 37.34251543 496.68280983 33.02255821 C496.66249095 28.95882931 496.65615682 24.89532166 496.66067696 20.83154678 C496.65984969 19.33795406 496.6538566 17.84435416 496.64238358 16.35080528 C496.62751316 14.31564523 496.63282121 12.28036723 496.63923645 10.24516296 C496.63647107 9.10490504 496.63370569 7.96464712 496.63085651 6.78983593 C497 4 497 4 498.12483692 2.13348675 C500.89803693 0.4571603 503.13565817 0.62218748 506.3633728 0.61904907 C507.01169307 0.6143691 507.66001334 0.60968913 508.32797968 0.60486734 C510.50450459 0.59288331 512.6804038 0.6023874 514.85693359 0.61181641 C516.4157498 0.60775212 517.97456312 0.60241104 519.53337097 0.59588623 C523.77106879 0.5821875 528.00854794 0.58752236 532.24624968 0.59702349 C536.67887182 0.60460957 541.11147503 0.59757715 545.5440979 0.59286499 C552.99069586 0.58740323 560.43720464 0.59460887 567.88378906 0.60888672 C576.49242924 0.62520208 585.10085615 0.61993455 593.70949113 0.6034075 C601.09812221 0.58979031 608.48668909 0.58787448 615.87532866 0.59572351 C620.28921924 0.60040029 624.70300963 0.601025 629.11689377 0.59111404 C633.26853466 0.58244368 637.41990097 0.58846749 641.57151222 0.60579681 C643.09488914 0.60976181 644.61828918 0.60862736 646.14165688 0.60200882 C648.22230256 0.59380307 650.30207008 0.60410203 652.38265991 0.61904907 C654.12868279 0.62074569 654.12868279 0.62074569 655.90997887 0.62247658 C659.46136309 1.05636705 661.18550848 1.80530546 664 4 C664.63381654 6.54627341 664.63381654 6.54627341 664.64647388 9.66343212 C664.66339592 10.85027637 664.68031795 12.03712061 664.69775277 13.25992984 C664.69097046 14.57022278 664.68418815 15.88051573 664.67720032 17.23051453 C664.68763683 18.63142849 664.70026206 20.03232758 664.71489495 21.433204 C664.74883123 25.29168471 664.75158877 29.149664 664.74941409 33.00827038 C664.75247804 37.16582697 664.78423103 41.32317392 664.81254578 45.48062134 C664.85767477 52.68661433 664.88452132 59.89249087 664.89904213 67.09860802 C664.92006313 77.51747556 664.96851426 87.93607254 665.02371671 98.35480843 C665.11252565 115.25740024 665.17907025 132.16000379 665.23168945 149.06274414 C665.2828594 165.4846818 665.34446776 181.90652543 665.42016602 198.32836914 C665.42482639 199.34017247 665.42948676 200.3519758 665.43428836 201.39443984 C665.45773205 206.4702289 665.4813815 211.54601697 665.50513327 216.62180459 C665.70199222 258.74776474 665.86275045 300.87380618 666 343 C666.81712463 342.65234085 667.63424927 342.3046817 668.47613525 341.94648743 C669.55167664 341.49275253 670.62721802 341.03901764 671.73535156 340.5715332 C672.7999762 340.12074905 673.86460083 339.6699649 674.96148682 339.20552063 C678.57445204 337.77208795 681.93530823 336.91229144 685.75 336.1875 C686.94109375 335.95417969 688.1321875 335.72085937 689.359375 335.48046875 C690.66648437 335.24263672 690.66648437 335.24263672 692 335 C692.08121094 334.30519531 692.16242187 333.61039062 692.24609375 332.89453125 C696.37059305 317.05901839 713.33162779 305.80947971 726.43359375 297.8984375 C735.99524267 292.35988747 746.14497856 288.89061008 756.69140625 285.70019531 C758.59330096 285.12335161 760.48564148 284.51510313 762.375 283.8984375 C772.85537029 280.78343855 784.17819885 281.32727301 794.91015625 282.80371094 C798.05407707 283.09900444 801.15643651 282.94507649 804.30810547 282.83227539 C814.01785162 282.52105374 821.22015816 282.89193803 828.78125 289.57421875 C832.25596391 293.22777823 834.05593892 297.17342269 835.93359375 301.80078125 C837.37848256 304.78053363 839.37989492 306.94441092 841.60546875 309.3671875 C843.97775741 312.1448252 846 315.28498975 846 319 C846.72058594 319.24621094 847.44117188 319.49242187 848.18359375 319.74609375 C854.59167217 322.59906625 860.46521653 328.08940923 863.625 334.375 C866.45816417 342.24792737 865.84735446 348.79522553 862.3125 356.3125 C861.76335938 357.40046875 861.21421875 358.4884375 860.6484375 359.609375 C858.98020974 363.04070602 857.68387373 366.45833647 856.4375 370.0625 C850.88840777 385.91704923 845.85834665 397.67001448 830.21484375 405.37109375 C808.63015654 414.95480862 779.01759719 416.99606226 756.359375 410.3515625 C752.9163678 408.96635263 749.98460659 407.22996741 746.8125 405.3125 C738.52955913 400.81359541 730.02823306 401.3574783 720.78295898 401.28051758 C711.24205202 401.17355258 703.0414744 400.05627304 694 397 C689.45933317 395.48644439 684.70628215 395.32729145 679.95507812 394.92578125 C679.18228516 394.84972656 678.40949219 394.77367187 677.61328125 394.6953125 C676.57361206 394.6027417 676.57361206 394.6027417 675.51293945 394.50830078 C673.13952033 394.02822125 671.09979896 393.33048451 668.84294128 392.4682312 C668.12311664 392.19438032 667.40329199 391.92052944 666.66165447 391.63838005 C666.1133085 391.42771463 665.56496252 391.21704922 665 391 C665.00113916 391.82832094 665.00227832 392.65664189 665.003452 393.51006347 C665.07052964 442.56078303 665.12203102 491.61149775 665.15319599 540.66225396 C665.15694828 546.54672733 665.16083123 552.4312006 665.16479492 558.31567383 C665.16558185 559.48720789 665.16636878 560.65874195 665.16717956 561.86577704 C665.18024732 580.85595296 665.20390868 599.84610175 665.23145839 618.83626155 C665.25947452 638.30977804 665.27616821 657.78328027 665.28226548 677.25681609 C665.28638981 689.28113196 665.29943421 701.30537114 665.3237494 713.32966342 C665.33955982 721.56580222 665.34441105 729.80190114 665.34050413 738.03805403 C665.33857524 742.79582939 665.34161228 747.55347037 665.35761642 752.31122208 C665.3721447 756.66179512 665.37299877 761.01214258 665.36269668 765.3627257 C665.36142219 766.94150801 665.36528756 768.52030402 665.37464955 770.09905908 C665.38659036 772.23593569 665.38026144 774.37198488 665.36914349 776.50884724 C665.37028265 777.69851103 665.37142181 778.88817483 665.37259549 780.11388904 C665 783 665 783 663.76529771 784.65709472 C661.49397449 786.38494602 660.22052588 786.37420396 657.38264114 786.37259549 C656.42702261 786.3793374 655.47140408 786.38607932 654.48682742 786.39302553 C653.43258624 786.38514445 652.37834506 786.37726338 651.29215717 786.36914349 C650.17058239 786.37260472 649.04900761 786.37606595 647.89344571 786.37963207 C644.09788491 786.38763461 640.30269811 786.3740657 636.50715637 786.36076355 C633.78056868 786.36040593 631.05399221 786.36457673 628.32740784 786.36854553 C622.37144044 786.37479351 616.41556284 786.36981264 610.45960581 786.35764539 C601.48819806 786.33937791 592.51684493 786.3385325 583.54542191 786.34104129 C568.51266075 786.3447722 553.47993883 786.33486798 538.44718933 786.31672668 C518.12082512 786.29224034 497.7945281 786.2864199 477.46813965 786.28381348 C428.58291843 786.26804538 379.69770847 786.22616228 330.8125 786.1875 C221.644375 786.125625 112.47625 786.06375 0 786 C0 526.62 0 267.24 0 0 Z " fill="#868787" transform="translate(0,97)"/>
<path d="M0 0 C166.53498102 -0.04037864 166.53498102 -0.04037864 230.2191993 -0.04816496 C246.87305835 -0.05020628 263.52691739 -0.05229426 280.18077641 -0.05452599 C282.19532054 -0.05479583 284.20986468 -0.0550642 286.22440881 -0.05533109 C318.37001907 -0.0596019 350.51562758 -0.06710863 382.66123677 -0.07629722 C415.68486425 -0.0857197 448.70849077 -0.09188309 481.73211957 -0.09391499 C486.39089712 -0.09420317 491.04967467 -0.0945288 495.70845222 -0.09487724 C496.62541357 -0.09494467 497.54237492 -0.09501209 498.48712297 -0.09508156 C513.27871233 -0.09626567 528.0702987 -0.10091018 542.86188684 -0.10683203 C557.71361525 -0.11270473 572.56534067 -0.11497164 587.4170702 -0.11350138 C596.25290302 -0.11273779 605.08872498 -0.11479529 613.92455585 -0.12079754 C619.8155495 -0.12452781 625.70653598 -0.1246776 631.59753011 -0.12183181 C634.96138834 -0.12031182 638.32520902 -0.12097045 641.68906789 -0.12488318 C645.30027573 -0.12884244 648.91142863 -0.12676635 652.52263546 -0.12304783 C653.58368947 -0.12567484 654.64474349 -0.12830186 655.73795065 -0.13100848 C657.166855 -0.12763754 657.166855 -0.12763754 658.6246261 -0.1241985 C659.45179135 -0.12435448 660.2789566 -0.12451046 661.13118747 -0.12467116 C663 0 663 0 664 1 C664.07271741 3.35313555 664.08370868 5.70833668 664.0625 8.0625 C664.05347656 9.35285156 664.04445313 10.64320313 664.03515625 11.97265625 C664.01775391 13.47119141 664.01775391 13.47119141 664 15 C664.928125 15.185625 664.928125 15.185625 665.875 15.375 C668 16 668 16 670 18 C670.22552341 20.85565359 670.32428763 23.5825351 670.3125 26.4375 C670.32861328 27.21416016 670.34472656 27.99082031 670.36132812 28.79101562 C670.36626348 34.52095764 670.36626348 34.52095764 668.66479492 36.74633789 C667 38 667 38 664 38 C664 54.5 664 71 664 88 C679.00370201 87.88129247 679.00370201 87.88129247 694.00708008 87.72973633 C695.88622529 87.72097556 697.76537618 87.71333066 699.64453125 87.70703125 C701.11134338 87.6840094 701.11134338 87.6840094 702.60778809 87.66052246 C704.00813293 87.65997864 704.00813293 87.65997864 705.43676758 87.65942383 C706.2472908 87.65276199 707.05781403 87.64610016 707.89289856 87.63923645 C710.56261103 88.09632643 711.42911584 88.81412284 713 91 C713.31071747 94.03677043 713.44412524 96.86405419 713.43359375 99.90234375 C713.4388356 100.77645401 713.44407745 101.65056427 713.44947815 102.55116272 C713.45590058 104.39957619 713.45455848 106.24803052 713.44604492 108.09643555 C713.43754134 110.92375584 713.46628148 113.74905161 713.49804688 116.57617188 C713.49965915 118.37239523 713.49908085 120.16862216 713.49609375 121.96484375 C713.50732773 122.80973862 713.51856171 123.65463348 713.53013611 124.52513123 C713.48808605 128.07008903 713.3287919 130.39970526 711.60864258 133.5402832 C707.45874698 135.86243817 703.43755983 135.49071348 698.765625 135.390625 C697.77246277 135.38496521 696.77930054 135.37930542 695.75604248 135.37347412 C692.58686941 135.35110026 689.4188308 135.30090106 686.25 135.25 C684.10027676 135.22993635 681.95053577 135.21168534 679.80078125 135.1953125 C674.53341768 135.15123197 669.26690112 135.08219654 664 135 C664 139.29 664 143.58 664 148 C665.32 148.66 666.64 149.32 668 150 C668.36789278 156.00891545 667.56376546 158.0178806 665 164 C664.67 227.69 664.34 291.38 664 357 C444.88 357 225.76 357 0 357 C0 239.19 0 121.38 0 0 Z " fill="#5F5140" transform="translate(0,883)"/>
<path d="M0 0 C3.29263843 2.71124598 6.56825851 5.49395584 9.234375 8.83984375 C9.234375 9.49984375 9.234375 10.15984375 9.234375 10.83984375 C10.08 10.94296875 10.925625 11.04609375 11.796875 11.15234375 C15.234375 11.83984375 15.234375 11.83984375 18.734375 13.46484375 C24.14493461 15.59042074 28.49253357 13.77784265 33.921875 12.27734375 C54.24675572 7.63495622 74.5955394 12.02676446 92.234375 22.83984375 C99.06876631 27.67122494 103.51803686 33.37061333 107.234375 40.83984375 C107.79898438 41.938125 107.79898438 41.938125 108.375 43.05859375 C109.62253883 47.09608304 109.56322465 50.95048442 109.546875 55.15234375 C109.56298828 55.96896484 109.57910156 56.78558594 109.59570312 57.62695312 C109.59967494 62.61158027 108.86724939 66.35448317 106.9362793 70.93432617 C105.8060691 74.00260117 105.71226013 77.09583192 105.484375 80.33984375 C104.24270504 93.00997603 98.31195928 106.76225947 89.234375 115.83984375 C89.21988525 118.23644836 89.296654 120.63396887 89.421875 123.02734375 C89.60628008 132.54332034 89.60628008 132.54332034 86.12109375 136.41796875 C78.34311402 142.27963463 68.9707899 146.12031607 59.234375 146.15234375 C58.05875 146.16910156 56.883125 146.18585938 55.671875 146.203125 C52.234375 145.83984375 52.234375 145.83984375 49.37109375 144.3515625 C45.19668097 142.33973467 41.61811449 142.40240137 37.046875 142.33984375 C28.45449966 142.05540423 20.81675393 141.12824248 13.02734375 137.23828125 C8.616385 135.3305505 4.52070018 135.54718421 -0.203125 135.83984375 C-1.01072266 135.85917969 -1.81832031 135.87851562 -2.65039062 135.8984375 C-8.17399766 136.19219903 -11.42451398 137.59787499 -15.94116211 140.7265625 C-20.11562311 143.27380486 -25.1049917 142.43044742 -29.765625 141.83984375 C-35.88244491 140.28283505 -40.49339636 136.33692653 -44.765625 131.83984375 C-45.9103125 132.79890625 -45.9103125 132.79890625 -47.078125 133.77734375 C-52.57022841 137.99221381 -59.11190977 137.56733841 -65.765625 136.83984375 C-69.44676753 135.20302576 -71.31712304 132.88838928 -72.91015625 129.1640625 C-73.19246094 128.39707031 -73.47476562 127.63007813 -73.765625 126.83984375 C-74.49523438 127.09378906 -75.22484375 127.34773437 -75.9765625 127.609375 C-89.86106931 132.18611984 -111.0130762 138.37036702 -125.203125 132.46484375 C-128.49690721 130.4683937 -130.67513214 127.70431534 -133.140625 124.77734375 C-136.96518569 120.26818011 -139.65814488 118.79483155 -145.33984375 117.53125 C-150.72194649 115.99722072 -155.0461948 112.20103887 -158.203125 107.65234375 C-160.46084579 103.58844632 -160.88201987 100.73340754 -160.828125 96.15234375 C-160.81910156 95.15847656 -160.81007813 94.16460937 -160.80078125 93.140625 C-160.78917969 92.38136719 -160.77757812 91.62210937 -160.765625 90.83984375 C-161.508125 90.57816406 -162.250625 90.31648438 -163.015625 90.046875 C-165.79201367 88.82826122 -167.53517557 87.55543386 -169.765625 85.52734375 C-170.45398437 84.90472656 -171.14234375 84.28210938 -171.8515625 83.640625 C-174.2075535 81.42407021 -176.47840558 79.12706317 -178.765625 76.83984375 C-179.77625 76.03546875 -180.786875 75.23109375 -181.828125 74.40234375 C-187.69414303 69.28517908 -190.31029854 63.74264199 -191.203125 56.08984375 C-190.8974832 47.17529112 -185.15468949 40.58834014 -178.97265625 34.734375 C-176.38721898 32.51501735 -173.60792076 30.71317505 -170.765625 28.83984375 C-169.59200459 27.34902864 -168.41853027 25.85808945 -167.25 24.36328125 C-163.49442153 20.50887177 -158.03979227 17.81526802 -152.765625 16.83984375 C-150.31981261 16.83806291 -147.87374754 16.89569641 -145.4296875 16.98828125 C-143.95707807 17.02534666 -142.48441781 17.06043536 -141.01171875 17.09375 C-138.71586292 17.1487027 -136.42280037 17.21344784 -134.12841797 17.31298828 C-123.79994692 17.74268507 -116.81755527 16.66322614 -107.78076172 11.53662109 C-104.01556355 9.41774439 -100.71532624 8.42251621 -96.515625 7.46484375 C-95.84217041 7.30314697 -95.16871582 7.1414502 -94.47485352 6.97485352 C-90.8205889 6.13554409 -87.43968109 5.75875392 -83.703125 5.77734375 C-77.83088618 5.41156456 -73.84660745 1.55013513 -69.37841797 -1.92773438 C-64.16491339 -5.97372068 -59.00960201 -8.93016446 -52.765625 -11.16015625 C-52.0953125 -11.4025 -51.425 -11.64484375 -50.734375 -11.89453125 C-34.04685765 -16.95549963 -13.47049418 -10.05884941 0 0 Z " fill="#DADADB" transform="translate(1498.765625,221.16015625)"/>
<path d="M0 0 C1.01642578 -0.020625 2.03285156 -0.04125 3.08007812 -0.0625 C13.15067849 -0.11384787 23.28757812 1.54757759 31.1875 8.25 C36.1875 13.89634146 36.1875 13.89634146 36.1875 17.25 C36.80753906 17.1571875 37.42757812 17.064375 38.06640625 16.96875 C49.64359014 16.02504942 59.0034982 22.42747946 67.62353516 29.50268555 C73.17188754 34.21613842 78.52984354 39.13964108 83.1875 44.75 C89.6826366 52.37973008 96.75886014 58.62319488 105.75 63.125 C109.78276093 65.2053484 112.17349206 67.16458405 114.9375 70.75 C118.27201054 74.86141712 121.73344567 76.61519323 126.625 78.375 C137.09489282 82.1425116 143.83672089 87.38927849 149.1875 97.25 C151.33119691 103.68109073 151.11033748 110.95087922 148.4375 117.1875 C144.7654051 124.23944696 140.50361024 128.12860566 133.1875 131.25 C127.36846104 133.01518964 122.24271413 133.53209389 116.1875 133.4375 C115.31464355 133.43322998 114.44178711 133.42895996 113.54248047 133.42456055 C107.67144576 133.37098723 101.81080609 133.16365886 95.9453125 132.9140625 C94.50521502 132.85635956 93.06511081 132.79882431 91.625 132.74145508 C88.78773346 132.62802363 85.95277867 132.4916328 83.1171875 132.3425293 C76.08084354 132.04805485 71.44692379 132.11634143 65.1875 135.25 C62.28433902 135.7250563 59.43756068 135.77296444 56.5 135.75 C55.71415527 135.74863037 54.92831055 135.74726074 54.11865234 135.74584961 C46.9994327 135.56026374 41.5203675 133.41643375 35.1875 130.25 C33.1597393 129.34044278 33.1597393 129.34044278 31.1875 129.25 C29.39115793 130.29525335 29.39115793 130.29525335 27.8125 131.9375 C24.77492988 134.74289915 21.65752612 136.98386049 18.1875 139.25 C16.85119639 140.2878535 15.51803434 141.3297605 14.1875 142.375 C7.61546216 147.27618076 1.2637031 148.18683956 -6.8125 147.25 C-8.68880254 146.6254369 -10.54487644 145.93665823 -12.375 145.1875 C-18.61658099 142.65157868 -23.62197236 143.2553896 -30.05078125 144.78125 C-55.77938627 149.14819852 -81.48336288 137.94387151 -102.27734375 123.54296875 C-106.18018979 120.43958838 -108.2147335 117.70778403 -110.1875 113.125 C-112.50089601 107.96075233 -115.16209914 106.60859053 -120.24609375 104.44921875 C-127.1339871 101.23067498 -131.57595508 95.98201344 -134.8125 89.25 C-135.1425 88.26 -135.4725 87.27 -135.8125 86.25 C-136.97007812 86.29640625 -138.12765625 86.3428125 -139.3203125 86.390625 C-140.85934906 86.42816248 -142.3984137 86.46456051 -143.9375 86.5 C-144.69804688 86.53351563 -145.45859375 86.56703125 -146.2421875 86.6015625 C-151.6079871 86.69407629 -154.56181343 85.81550128 -158.8125 82.25 C-163.42487475 77.34655306 -165.81730852 71.78565502 -166.1875 65.0625 C-165.88177083 55.47225858 -161.87869685 48.32152867 -155.30078125 41.5390625 C-144.98890263 32.0527817 -134.23310384 27.4838677 -120.3125 26.8125 C-106.97657295 26.0518842 -94.98739715 23.42952268 -82.36328125 19.0546875 C-70.43969904 14.95555329 -58.31085176 11.8311701 -45.9765625 9.2265625 C-42.9478451 8.55987411 -40.32486873 7.75752062 -37.5625 6.3125 C-25.86630955 0.82286946 -12.71663275 0.06378248 0 0 Z " fill="#DADADB" transform="translate(897.8125,120.75)"/>
<path d="M0 0 C3.14392082 0.2952935 6.24628026 0.14136556 9.39794922 0.02856445 C19.10769537 -0.2826572 26.31000191 0.08822709 33.87109375 6.77050781 C37.34580766 10.4240673 39.14578267 14.36971175 41.0234375 18.99707031 C42.46832631 21.97682269 44.46973867 24.14069999 46.6953125 26.56347656 C49.06760116 29.34111426 51.08984375 32.48127881 51.08984375 36.19628906 C51.81042969 36.4425 52.53101563 36.68871094 53.2734375 36.94238281 C59.68151592 39.79535531 65.55506028 45.28569829 68.71484375 51.57128906 C71.54800792 59.44421643 70.93719821 65.9915146 67.40234375 73.50878906 C66.57863281 75.14074219 66.57863281 75.14074219 65.73828125 76.80566406 C64.07005349 80.23699509 62.77371748 83.65462554 61.52734375 87.25878906 C55.97825152 103.11333829 50.9481904 114.86630355 35.3046875 122.56738281 C13.72000029 132.15109769 -15.89255906 134.19235132 -38.55078125 127.54785156 C-41.99378845 126.16264169 -44.92554966 124.42625648 -48.09765625 122.50878906 C-56.38059712 118.00988447 -64.88192319 118.55376736 -74.12719727 118.47680664 C-83.66810423 118.36984164 -91.86868185 117.2525621 -100.91015625 114.19628906 C-105.45082308 112.68273345 -110.2038741 112.52358051 -114.95507812 112.12207031 C-115.72787109 112.04601562 -116.50066406 111.96996094 -117.296875 111.89160156 C-117.98998779 111.8298877 -118.68310059 111.76817383 -119.3972168 111.70458984 C-123.01817541 110.97216627 -126.45108385 109.49344121 -129.91015625 108.19628906 C-129.91015625 92.68628906 -129.91015625 77.17628906 -129.91015625 61.19628906 C-118.63260523 55.55751355 -118.63260523 55.55751355 -111.91015625 53.88378906 C-110.63140625 53.55765625 -109.35265625 53.23152344 -108.03515625 52.89550781 C-104.91015625 52.19628906 -104.91015625 52.19628906 -102.91015625 52.19628906 C-102.82894531 51.50148438 -102.74773438 50.80667969 -102.6640625 50.09082031 C-98.5395632 34.25530745 -81.57852846 23.00576877 -68.4765625 15.09472656 C-58.91491358 9.55617653 -48.76517769 6.08689915 -38.21875 2.89648438 C-36.31685529 2.31964068 -34.42451477 1.71139219 -32.53515625 1.09472656 C-22.05478596 -2.02027238 -10.7319574 -1.47643793 0 0 Z " fill="#D9DADB" transform="translate(794.91015625,379.8037109375)"/>
<path d="M0 0 C1.06412109 -0.02900391 2.12824219 -0.05800781 3.22460938 -0.08789062 C9.88794575 -0.14074198 15.07685892 0.80570387 21.24682617 3.32104492 C24.32727603 4.57239101 27.46097307 5.33775845 30.6875 6.125 C41.62826271 9.18937117 52.59289585 16.15818149 59.1875 25.625 C60.6875 28.3125 60.6875 28.3125 60.6875 30.3125 C61.14640625 29.96316406 61.6053125 29.61382812 62.078125 29.25390625 C62.99851562 28.57134766 62.99851562 28.57134766 63.9375 27.875 C64.54078125 27.42253906 65.1440625 26.97007812 65.765625 26.50390625 C70.54557464 23.54072609 76.24897863 23.76394597 81.6875 24.3125 C88.40978575 26.03989851 93.7085279 29.5094171 99.2421875 33.5859375 C101.55602643 35.21967042 103.87041033 36.55902915 106.375 37.875 C115.24158904 42.69854932 121.28800955 49.31377387 125.0625 58.75 C126.76899866 68.47704234 125.83161541 77.28096569 120.109375 85.609375 C117.38252001 88.87668773 114.63956171 91.45101699 111.0625 93.75 C108.11002126 95.69431527 106.83816058 97.5377367 105.25 100.6875 C101.44809005 108.10616195 95.41866728 112.8347446 87.609375 115.66015625 C79.99218156 117.36078634 71.88871477 117.38983572 64.6875 114.3125 C56.95112132 114.75040823 50.28918457 117.85127145 43.546875 121.4453125 C36.33154575 124.81044505 25.95202302 124.89085584 18.37646484 122.61962891 C11.53759281 119.96554075 5.1505668 116.60993398 -0.5625 112 C-5.78710169 108.20400034 -12.14183785 108.15724293 -18.36987305 107.41577148 C-34.89412397 105.37593852 -49.87781625 97.45382151 -61.3125 85.3125 C-62.11325048 84.01803527 -62.88838238 82.70700404 -63.625 81.375 C-65.32167436 78.7140287 -66.14112848 78.35478064 -69.2890625 77.578125 C-71.59427336 77.2763141 -73.90318017 77.00149141 -76.21484375 76.75390625 C-81.65736561 75.97836404 -84.33757329 73.30958414 -88.0625 69.5 C-91.60295401 64.48435682 -92.96715617 59.08106347 -92.8203125 52.9765625 C-91.39845852 45.5172978 -87.18968527 37.46976366 -81.5 32.4375 C-78.3125 30.3125 -78.3125 30.3125 -76.3125 30.3125 C-76.20035156 29.70664062 -76.08820313 29.10078125 -75.97265625 28.4765625 C-73.96129713 19.93157279 -69.12813845 13.71224476 -61.9609375 8.65234375 C-56.21854594 5.74726955 -50.65857337 5.05195569 -44.3125 4.875 C-37.24988169 4.57733285 -30.68478103 3.58522914 -23.77734375 2.03125 C-15.83916853 0.38454849 -8.0873031 0.07268397 0 0 Z " fill="#DADADB" transform="translate(1100.3125,441.6875)"/>
<path d="M0 0 C2.09227729 0.33419677 4.18707246 0.64558875 6.28320312 0.95458984 C17.90250943 2.72229812 29.34580224 5.19908017 39.96289062 10.39599609 C40.5776123 10.69666992 41.19233398 10.99734375 41.82568359 11.30712891 C43.08928953 11.92649926 44.35089279 12.54997392 45.61035156 13.17773438 C47.41038776 14.05782588 49.237338 14.88218987 51.06445312 15.70458984 C65.64682509 22.4461077 77.01400588 32.17338043 83.90039062 46.89599609 C87.05178242 55.58619772 86.51341347 64.64630972 82.66210938 72.99755859 C79.24092105 78.94842037 73.62295234 82.81947141 67.33789062 85.33349609 C64.46289062 86.08349609 64.46289062 86.08349609 60.46289062 86.08349609 C60.58664062 86.90849609 60.71039062 87.73349609 60.83789062 88.58349609 C60.29853975 93.61743762 57.93636 96.50291533 54.46289062 100.08349609 C47.14130498 105.76691874 38.43890665 106.99081901 29.46289062 106.08349609 C23.28552462 104.93180961 16.65214285 103.62278818 10.98632812 100.88818359 C7.99189142 99.9333013 5.65319779 100.28003451 2.58251953 100.76416016 C-21.79579649 104.43691267 -45.88806256 94.11381032 -66.53710938 82.08349609 C-67.21386719 81.48923828 -67.890625 80.89498047 -68.58789062 80.28271484 C-71.46230243 78.51428914 -73.31507442 79.35813748 -76.53710938 80.08349609 C-84.3413857 80.68763424 -90.22186631 80.1735231 -97.33789062 76.90771484 C-100.62961343 75.67404964 -103.15670993 76.3459544 -106.53710938 77.08349609 C-108.05388762 77.235708 -109.57633164 77.33760378 -111.09960938 77.39599609 C-112.15341797 77.45207031 -112.15341797 77.45207031 -113.22851562 77.50927734 C-121.7800873 75.93208392 -129.36416812 66.05118936 -134.58007812 59.52880859 C-139.53925542 52.15483 -139.27533759 45.92299217 -137.97460938 37.39599609 C-134.82018821 30.12711253 -128.86655835 24.17900508 -121.53710938 21.08349609 C-118.73919439 20.49403637 -115.94399372 20.07902086 -113.11523438 19.66552734 C-110.50183232 19.07553203 -109.26934185 18.43879556 -107.22460938 16.77099609 C-94.74828897 6.63398576 -76.97337519 6.74985534 -61.8359375 7.42626953 C-52.30305466 8.0282857 -52.30305466 8.0282857 -43.85742188 4.18505859 C-43.30586426 3.65219238 -42.75430664 3.11932617 -42.18603516 2.5703125 C-32.26822657 -6.37245539 -12.06978398 -1.93716074 0 0 Z " fill="#D9DADB" transform="translate(1617.537109375,583.91650390625)"/>
<path d="M0 0 C1.87171875 -0.00386719 1.87171875 -0.00386719 3.78125 -0.0078125 C5.74578125 0.00378906 5.74578125 0.00378906 7.75 0.015625 C9.0596875 0.00789062 10.369375 0.00015625 11.71875 -0.0078125 C12.9665625 -0.00523437 14.214375 -0.00265625 15.5 0 C16.64984375 0.00225586 17.7996875 0.00451172 18.984375 0.00683594 C21.75 0.265625 21.75 0.265625 23.75 2.265625 C23.95164034 4.6797054 24.02810932 6.97975709 24.01742554 9.39537048 C24.02195665 10.13816917 24.02648776 10.88096785 24.03115618 11.64627558 C24.04386935 14.14827923 24.0421754 16.65006713 24.04052734 19.15209961 C24.04650826 20.94061058 24.05331279 22.72911895 24.06088257 24.5176239 C24.07859356 29.38533398 24.08324007 34.25297381 24.08451414 39.120713 C24.08640978 43.17907921 24.09376339 47.23742894 24.10085833 51.29578882 C24.11715901 60.86736702 24.12202572 70.43890757 24.12060547 80.01049805 C24.11940336 89.89669116 24.14051521 99.7826662 24.1720928 109.66880411 C24.1982093 118.14611402 24.20897473 126.62335249 24.20769465 135.10070235 C24.20718368 140.16851524 24.21294094 145.23613442 24.23405075 150.30390739 C24.2533556 155.06866926 24.25361108 159.83305106 24.23901749 164.597826 C24.23691866 166.34942298 24.24169375 168.10104327 24.2537384 169.8526001 C24.26908605 172.23848472 24.25995392 174.62304157 24.24447632 177.00889587 C24.25476344 177.7069457 24.26505057 178.40499553 24.27564943 179.12419838 C24.23080432 182.23842295 24.12134453 183.86291867 21.97093487 186.19494057 C19.66056272 187.30874157 18.26565139 187.64428485 15.7205658 187.65330505 C14.92847214 187.66320969 14.13637848 187.67311432 13.32028198 187.68331909 C12.4604068 187.67881744 11.60053162 187.6743158 10.71459961 187.66967773 C9.80199875 187.67654099 8.88939789 187.68340424 7.94914246 187.69047546 C4.93338455 187.70877351 1.91814524 187.70490243 -1.09765625 187.69921875 C-3.19225739 187.70377837 -5.28685702 187.70908328 -7.38145447 187.71510315 C-11.77039673 187.72403961 -16.15915708 187.72160411 -20.5480957 187.71166992 C-26.17983987 187.70016639 -31.81095833 187.72041046 -37.44262028 187.74958706 C-41.76712549 187.76790605 -46.09147946 187.76766542 -50.41601372 187.76194954 C-52.4929028 187.76179587 -54.56980184 187.76787783 -56.64665413 187.78024101 C-59.54617089 187.79507186 -62.44451482 187.78453316 -65.34399414 187.76733398 C-66.63684326 187.78183594 -66.63684326 187.78183594 -67.95581055 187.79663086 C-73.77651666 187.72410645 -73.77651666 187.72410645 -75.97009373 185.6000309 C-77.57037271 182.68130101 -77.62733453 180.73775917 -77.63095093 177.41392517 C-77.6394104 176.21795212 -77.64786987 175.02197906 -77.65658569 173.7897644 C-77.650513 172.48105377 -77.64444031 171.17234314 -77.63818359 169.82397461 C-77.64224948 168.42925099 -77.64759146 167.03453058 -77.65411377 165.63981628 C-77.66779006 161.85476812 -77.66248787 158.06996527 -77.65297651 154.28491282 C-77.64538301 150.32515344 -77.65242452 146.36541511 -77.65713501 142.40565491 C-77.66259283 135.75697049 -77.65539961 129.10838604 -77.64111328 122.4597168 C-77.62477996 114.76952355 -77.63008003 107.07956883 -77.6465925 99.38938135 C-77.66019864 92.78886303 -77.66213152 86.18841658 -77.65427649 79.58788878 C-77.64959601 75.64467778 -77.64898547 71.70157898 -77.65888596 67.75837517 C-77.66754096 64.05239611 -77.66156092 60.34672521 -77.64420319 56.6407795 C-77.63833328 54.62917634 -77.64726591 52.61754716 -77.65658569 50.60595703 C-77.64812622 49.4128038 -77.63966675 48.21965057 -77.63095093 46.99034119 C-77.62981985 45.95114501 -77.62868877 44.91194883 -77.62752342 43.84126186 C-77.25 41.265625 -77.25 41.265625 -75.90533924 39.43037796 C-73.29981851 37.59704501 -70.99698424 37.9070708 -67.85083008 37.92504883 C-66.88456947 37.92439171 -66.88456947 37.92439171 -65.89878845 37.92372131 C-63.77205979 37.92580941 -61.64612198 37.94913987 -59.51953125 37.97265625 C-58.04408702 37.97825217 -56.56863722 37.98252229 -55.09318542 37.98551941 C-51.21160466 37.99696863 -47.33036117 38.02643613 -43.44891357 38.05963135 C-39.48747317 38.09033076 -35.52597822 38.10402445 -31.56445312 38.11914062 C-23.79281506 38.15130606 -16.02145481 38.20250295 -8.25 38.265625 C-8.26047363 37.18555176 -8.27094727 36.10547852 -8.28173828 34.99267578 C-8.31788194 30.99336041 -8.34087984 26.99405954 -8.35986328 22.99462891 C-8.36993376 21.26218235 -8.38359089 19.52975284 -8.40087891 17.79736328 C-8.42508162 15.31017861 -8.43647239 12.82321825 -8.4453125 10.3359375 C-8.45563507 9.55880402 -8.46595764 8.78167053 -8.47659302 7.98098755 C-8.47699271 6.07437007 -8.3723214 4.16831464 -8.25 2.265625 C-5.49055395 -0.49382105 -3.85763302 0.00756823 0 0 Z " fill="#717271" transform="translate(815.25,934.734375)"/>
<path d="M0 0 C1.19882813 -0.00193359 1.19882813 -0.00193359 2.421875 -0.00390625 C5.99352089 0.06359908 8.83197104 0.36202223 12.28125 1.40234375 C17.82471012 2.90269328 23.26001792 2.42667079 28.9609375 2.20898438 C37.58611013 2.02720385 44.96769625 3.57266349 51.37109375 9.6640625 C55.8915985 14.8068705 56.98443971 19.12813467 57.125 25.9375 C57.28215489 30.59523437 57.28215489 30.59523437 59.56640625 34.484375 C60.97409622 35.61467487 62.40688307 36.71444487 63.86328125 37.78125 C67.81737899 40.91381675 69.4761379 44.84471858 70.25 49.75390625 C70.66763167 58.0934886 67.90402262 65.19318781 62.75 71.6875 C55.51025233 79.14666432 45.62442348 81.6119523 35.8125 84.0625 C34.62382324 84.36647705 33.43514648 84.6704541 32.21044922 84.98364258 C24.31512657 86.94005788 16.63804148 88.19412836 8.55078125 88.9140625 C3.71199453 89.52083916 -0.69754605 90.87660512 -5.29296875 92.47265625 C-21.94986786 97.77988893 -41.49526112 94.84092826 -57.890625 90.02880859 C-59.91931754 89.43518549 -61.95327803 88.89054865 -64 88.36328125 C-73.73018116 85.6942385 -82.63627823 81.19492712 -88.125 72.375 C-88.71514529 70.65507205 -89.27667113 68.92511648 -89.8125 67.1875 C-90.97150206 63.94911189 -91.46550828 62.71106687 -94.5703125 61.12890625 C-96.49309847 60.53949638 -98.42313809 59.97328342 -100.359375 59.4296875 C-105.56532137 57.44436897 -108.39372209 53.11813966 -111.28125 48.54296875 C-113.49313038 42.85966499 -113.09146196 35.44969758 -111.28515625 29.703125 C-105.30987103 18.03421784 -94.03905074 13.09539586 -82.1875 9.25 C-81.44048828 8.99863281 -80.69347656 8.74726562 -79.92382812 8.48828125 C-77.6674706 7.74459827 -75.40371858 7.04689815 -73.125 6.375 C-72.42745605 6.16762207 -71.72991211 5.96024414 -71.01123047 5.74658203 C-64.374464 4.01281575 -57.93719665 4.31119189 -51.125 4.5 C-41.55413987 4.65111884 -32.54049469 4.10164055 -23.125 2.375 C-15.36282382 0.95498486 -7.90192603 -0.01179392 0 0 Z " fill="#D9DADB" transform="translate(1247.125,68.625)"/>
<path d="M0 0 C1.12237564 -0.00788544 1.12237564 -0.00788544 2.26742554 -0.01593018 C4.74156545 -0.02913809 7.21506249 -0.02039052 9.68920898 -0.01025391 C11.40649031 -0.01227421 13.12377081 -0.01518528 14.84104919 -0.01895142 C18.43985158 -0.02337565 22.0384306 -0.01693981 25.63720703 -0.00292969 C30.25675734 0.01417523 34.8757853 0.00431355 39.49531651 -0.01364708 C43.04086771 -0.02447133 46.5862944 -0.02104509 50.13184929 -0.0132637 C51.83555093 -0.01125859 53.53926378 -0.01373184 55.24295235 -0.02070236 C57.6206077 -0.02829612 59.99740853 -0.01674338 62.375 0 C63.08310318 -0.00607269 63.79120636 -0.01214539 64.52076721 -0.0184021 C66.47926331 0.00723267 66.47926331 0.00723267 69.62280273 0.38818359 C72.05225433 4.03236099 71.78459848 6.10059631 71.62280273 10.38818359 C72.61860352 10.66082031 72.61860352 10.66082031 73.63452148 10.93896484 C83.92212757 13.86755344 83.92212757 13.86755344 86.62280273 16.38818359 C88.20415318 24.99775827 82.58166747 33.99830276 78.62280273 41.38818359 C77.63280273 42.37818359 77.63280273 42.37818359 76.62280273 43.38818359 C74.97280273 43.38818359 73.32280273 43.38818359 71.62280273 43.38818359 C71.62280273 48.00818359 71.62280273 52.62818359 71.62280273 57.38818359 C73.60280273 57.38818359 75.58280273 57.38818359 77.62280273 57.38818359 C79.96679688 58.34326172 79.96679688 58.34326172 81.62280273 60.38818359 C82.01521298 63.41747612 82.15998046 66.07817355 82.11889648 69.10693359 C82.12035172 69.96121948 82.12180695 70.81550537 82.12330627 71.69567871 C82.12164681 73.50125541 82.11008017 75.30684617 82.08935547 77.11230469 C82.06040878 79.87805178 82.06874305 82.64188159 82.08178711 85.40771484 C82.07554944 87.16163042 82.06715828 88.91553994 82.05639648 90.66943359 C82.05933212 91.49761597 82.06226776 92.32579834 82.06529236 93.17907715 C81.9709738 98.91142871 81.9709738 98.91142871 80.36830139 101.10598755 C78.18501647 102.70976953 76.98363981 102.76797587 74.29077148 102.77636719 C73.41976807 102.78582367 72.54876465 102.79528015 71.65136719 102.80502319 C70.71381592 102.7989505 69.77626465 102.79287781 68.81030273 102.78662109 C67.84503662 102.78949127 66.87977051 102.79236145 65.88525391 102.7953186 C63.8443137 102.7973602 61.80335396 102.79182366 59.76245117 102.77929688 C56.63472834 102.7632448 53.50829778 102.77914255 50.38061523 102.79833984 C48.39884154 102.79635743 46.41706866 102.79251379 44.43530273 102.78662109 C43.49775146 102.79269379 42.5602002 102.79876648 41.59423828 102.80502319 C40.72323486 102.79556671 39.85223145 102.78611023 38.95483398 102.77636719 C38.18888916 102.77398041 37.42294434 102.77159363 36.63378906 102.76913452 C34.0405499 102.27788461 33.15985864 101.51528398 31.62280273 99.38818359 C31.28222656 97.48706055 31.28222656 97.48706055 31.32983398 95.37646484 C31.34433594 94.24047852 31.34433594 94.24047852 31.35913086 93.08154297 C31.38426758 92.29585937 31.4094043 91.51017578 31.43530273 90.70068359 C31.44883789 89.90339844 31.46237305 89.10611328 31.47631836 88.28466797 C31.51163185 86.31888392 31.56543827 84.35344777 31.62280273 82.38818359 C29.92752441 82.41960449 29.92752441 82.41960449 28.19799805 82.45166016 C24.00118704 82.52411056 19.80443121 82.57000144 15.60717773 82.60791016 C13.79132794 82.62801421 11.97554279 82.65530194 10.15991211 82.68994141 C7.54842168 82.73851399 4.93778775 82.76116386 2.32592773 82.77880859 C1.51536926 82.79945374 0.70481079 82.82009888 -0.13031006 82.84136963 C-3.49530992 82.84270647 -5.80286559 82.79595849 -8.59223938 80.81550598 C-11.04733313 77.47688153 -10.87838496 75.22050183 -10.87890625 71.09692383 C-10.88430923 70.36964081 -10.88971222 69.64235779 -10.89527893 68.89303589 C-10.90776612 66.49386655 -10.8912782 64.09589718 -10.87329102 61.69677734 C-10.87344599 60.028162 -10.87493468 58.35954629 -10.87770081 56.69093323 C-10.87908473 53.19638123 -10.86652689 49.7022397 -10.84375 46.20776367 C-10.81534311 41.7261944 -10.8181086 37.24530601 -10.83084011 32.76368618 C-10.83779076 29.31930208 -10.83001546 25.87507571 -10.81758308 22.43071175 C-10.81306414 20.77808296 -10.81273565 19.12543727 -10.81664848 17.47280693 C-10.81955533 15.16486694 -10.80308113 12.85786974 -10.78125 10.55004883 C-10.77584702 9.23640854 -10.77044403 7.92276825 -10.76487732 6.56932068 C-10.37719727 3.38818359 -10.37719727 3.38818359 -9.3130188 1.46482849 C-6.32157672 -0.19892036 -3.33367549 -0.02867156 0 0 Z " fill="#6F6F6F" transform="translate(581.377197265625,1016.61181640625)"/>
<path d="M0 0 C3.79239673 2.52826449 4.17817065 5.00605972 5.3046875 9.18359375 C5.5092305 9.90694412 5.7137735 10.63029449 5.92451477 11.37556458 C6.58608977 13.72652392 7.23115828 16.08162799 7.875 18.4375 C8.32134782 20.04478358 8.76836975 21.65188012 9.21606445 23.25878906 C10.09268877 26.4133854 10.96206547 29.56984675 11.82568359 32.72802734 C12.79271589 36.25954798 13.78931724 39.78169234 14.80078125 43.30078125 C15.26403022 44.95023768 15.72638691 46.5999452 16.1875 48.25 C16.49953369 49.3162561 16.49953369 49.3162561 16.81787109 50.40405273 C18.07287042 55.04162291 17.93962413 58.37968263 17 63 C7.06117616 66.50686955 -2.98565491 69.4533776 -13.1418457 72.26074219 C-22.77012022 74.92309776 -32.35986832 77.70744744 -41.9453125 80.51953125 C-43.25278442 80.90189941 -43.25278442 80.90189941 -44.58666992 81.29199219 C-46.10111273 81.73629003 -47.61447835 82.18429412 -49.1262207 82.63769531 C-52.53981861 83.64853747 -55.42679528 84.21655786 -59 84 C-62.24930248 78.01040595 -64.2112711 72.27806603 -65.875 65.6875 C-68.02104137 57.48962196 -70.36423231 49.39777085 -72.99560547 41.3425293 C-77.70987997 26.82718377 -77.70987997 26.82718377 -77 22 C-74.26207147 20.17471431 -72.6600741 19.50295017 -69.5625 18.703125 C-68.67755859 18.46980469 -67.79261719 18.23648438 -66.88085938 17.99609375 C-65.93017578 17.74988281 -64.97949219 17.50367188 -64 17.25 C-56.77244824 15.33335335 -49.61141328 13.31101876 -42.5 11 C-34.49887153 8.404299 -26.4282557 6.14809778 -18.29492188 4.00390625 C-2.42535853 -0.21090074 -2.42535853 -0.21090074 0 0 Z " fill="#717171" transform="translate(504,900)"/>
<path d="M0 0 C0 24.75 0 49.5 0 75 C-7.13800489 77.14140147 -12.17532561 78.52991955 -19.3125 78.4375 C-20.13427734 78.43137695 -20.95605469 78.42525391 -21.80273438 78.41894531 C-29.03975511 78.23504916 -35.25295341 76.60681346 -42 74 C-42.96421875 73.69964844 -43.9284375 73.39929688 -44.921875 73.08984375 C-55.71597827 69.64586881 -63.68647562 63.08785821 -69.03125 53.06640625 C-71.67557403 46.98201252 -72.20414722 40.72951153 -70.15625 34.38671875 C-66.788417 26.8887392 -61.87059591 22.15860156 -54.75 18.1875 C-47.71276932 15.95904362 -40.60234676 15.06532893 -33.25 14.6875 C-27.67811724 14.22516924 -24.45000788 12.2091403 -20 9 C-5.7443609 0 -5.7443609 0 0 0 Z " fill="#D8DADB" transform="translate(190,136)"/>
<path d="M0 0 C3.06932458 4.01493693 4.29812236 8.62756145 5.69921875 13.40625 C5.9391304 14.20857056 6.17904205 15.01089111 6.42622375 15.83752441 C6.92957237 17.52755118 7.42944177 19.21861764 7.92602539 20.91064453 C8.68584979 23.49438854 9.46029505 26.0734279 10.23632812 28.65234375 C10.72484201 30.2992173 11.21250132 31.94634463 11.69921875 33.59375 C11.93041916 34.36158813 12.16161957 35.12942627 12.39982605 35.92053223 C13.50339884 39.71669803 14.29126901 43.00036712 14 47 C8.4590134 49.52958084 2.85659906 51.33846988 -3 53 C-1.35 53.66 0.3 54.32 2 55 C2 55.66 2 56.32 2 57 C3.32 57.66 4.64 58.32 6 59 C5.64879477 65.2046257 3.96049839 69.79966379 1.26171875 75.3828125 C0.21816459 77.54746045 -0.693506 79.70020052 -1.5625 81.9375 C-3.06854163 85.14602347 -4.04218127 87.02812085 -7 89 C-11.89184897 88.61546366 -15.99620862 87.41824989 -20.51953125 85.56640625 C-22.2994043 84.8403418 -22.2994043 84.8403418 -24.11523438 84.09960938 C-24.72197998 83.84719482 -25.32872559 83.59478027 -25.95385742 83.3347168 C-27.82139967 82.55880242 -29.69430881 81.7971505 -31.56835938 81.03710938 C-40.73105577 77.26894423 -40.73105577 77.26894423 -43 75 C-43.46422669 69.68427747 -42.46476027 65.75406564 -40.5625 60.8125 C-39.70012434 58.54477141 -38.84489766 56.27429828 -38 54 C-37.77183594 53.41742432 -37.54367187 52.83484863 -37.30859375 52.23461914 C-36.84357468 48.86727772 -37.87426702 46.27134409 -38.87109375 43.0390625 C-39.0722731 42.37087494 -39.27345245 41.70268738 -39.48072815 41.01425171 C-40.12350202 38.88148113 -40.77911974 36.75300053 -41.4375 34.625 C-42.09169694 32.50398404 -42.74269663 30.38225676 -43.38356018 28.25717163 C-43.96687384 26.32342938 -44.56210665 24.39329442 -45.15795898 22.46337891 C-45.97090041 19.11968883 -46.32353505 16.42085654 -46 13 C-42.37085248 9.89131162 -37.78441778 8.87485156 -33.25 7.625 C-31.7368205 7.19717537 -30.22380441 6.76877244 -28.7109375 6.33984375 C-27.93588867 6.12183105 -27.16083984 5.90381836 -26.36230469 5.67919922 C-24.01533489 5.00440902 -21.68312825 4.29249427 -19.3515625 3.56640625 C-18.60100586 3.33550293 -17.85044922 3.10459961 -17.07714844 2.86669922 C-15.64854664 2.42608168 -14.22195403 1.9788753 -12.79785156 1.52392578 C-8.42121965 0.19335248 -4.55784216 -0.64077243 0 0 Z " fill="#6D6D6C" transform="translate(630,903)"/>
<path d="M0 0 C2.55932855 2.55932855 2.87012264 4.56968861 3.8125 8.0625 C4.15667969 9.31289062 4.50085938 10.56328125 4.85546875 11.8515625 C5.13076416 12.85751465 5.13076416 12.85751465 5.41162109 13.88378906 C6.4395683 17.58098674 7.53486775 21.25825305 8.625 24.9375 C9.22889653 26.98016763 9.83195867 29.02305711 10.43188477 31.06689453 C10.99390686 32.97926709 11.56137749 34.89003565 12.12890625 36.80078125 C13.02429415 40.08922379 13.38475812 42.61412851 13 46 C10.98685184 48.49484519 9.22762453 49.48815436 6.17578125 50.359375 C5.40637207 50.58447754 4.63696289 50.80958008 3.84423828 51.04150391 C3.00876465 51.27530762 2.17329102 51.50911133 1.3125 51.75 C0.43835449 52.00313965 -0.43579102 52.2562793 -1.33642578 52.51708984 C-3.22656953 53.06382564 -5.11789893 53.6064753 -7.01025391 54.14550781 C-11.10519789 55.31587397 -15.1906927 56.51775895 -19.27709961 57.7175293 C-22.33412878 58.61302756 -25.3932957 59.50084098 -28.453125 60.38671875 C-31.78159277 61.35102535 -35.10512368 62.32819622 -38.421875 63.33203125 C-40.25492188 63.87923828 -40.25492188 63.87923828 -42.125 64.4375 C-43.13820313 64.74558594 -44.15140625 65.05367187 -45.1953125 65.37109375 C-48.25381945 66.05691495 -50.8760312 66.25221844 -54 66 C-56.31672625 63.68327375 -56.66666533 62.27640921 -57.55078125 59.15234375 C-57.83501953 58.16210205 -58.11925781 57.17186035 -58.41210938 56.15161133 C-58.85780273 54.56062622 -58.85780273 54.56062622 -59.3125 52.9375 C-59.93302315 50.75244204 -60.55412067 48.56754712 -61.17578125 46.3828125 C-61.48209473 45.30161133 -61.7884082 44.22041016 -62.10400391 43.10644531 C-62.9054746 40.32772241 -63.74184091 37.56460076 -64.60546875 34.8046875 C-64.84289795 34.03777588 -65.08032715 33.27086426 -65.32495117 32.48071289 C-65.76306306 31.07352604 -66.20937445 29.66885604 -66.6652832 28.26733398 C-67.82888752 24.47821078 -68.16768634 21.81687473 -67 18 C-54.9368811 14.0471335 -42.85197747 10.33869877 -30.58520508 7.06884766 C-23.96312474 5.29390661 -17.47587427 3.25200952 -11 1 C-3.48764629 -1.55006502 -3.48764629 -1.55006502 0 0 Z " fill="#717171" transform="translate(624,1155)"/>
<path d="M0 0 C1.32 0.99 2.64 1.98 4 3 C4 3.66 4 4.32 4 5 C4.95869995 4.9685791 4.95869995 4.9685791 5.93676758 4.93652344 C29.85924691 4.25493445 29.85924691 4.25493445 38 9 C38.71800781 9.4125 39.43601562 9.825 40.17578125 10.25 C48.07028719 15.48326947 53.55970663 23.90703837 56 33 C56.41594606 36.13840966 56.47765823 39.21206142 56.4375 42.375 C56.42992676 43.21063477 56.42235352 44.04626953 56.41455078 44.90722656 C56.2452129 51.25307108 55.40135123 56.52361059 52 62 C51.61070312 62.639375 51.22140625 63.27875 50.8203125 63.9375 C44.99317368 71.93688583 35.15580195 74.71104951 26 77 C17.42 77 8.84 77 0 77 C0 51.59 0 26.18 0 0 Z " fill="#D9DADB" transform="translate(357,139)"/>
<path d="M0 0 C3.26843561 0.50842332 5.5865061 1.67207482 8.45703125 3.26953125 C18.01450991 8.00864588 26.42881705 7.89008141 36.98632812 7.96484375 C38.20384766 7.98675781 39.42136719 8.00867187 40.67578125 8.03125 C41.78219971 8.03833984 42.88861816 8.04542969 44.02856445 8.05273438 C46.8125 8.4375 46.8125 8.4375 48.4622345 9.65162659 C50.24636314 12.01133133 50.19276795 13.45360728 50.20068359 16.39624023 C50.21014008 17.40416122 50.21959656 18.41208221 50.2293396 19.45054626 C50.22326691 20.53807693 50.21719421 21.6256076 50.2109375 22.74609375 C50.21380768 23.8643605 50.21667786 24.98262726 50.21963501 26.13478088 C50.22167763 28.50107326 50.21613403 30.86738245 50.20361328 33.23364258 C50.18757824 36.85731794 50.20344837 40.4798753 50.22265625 44.10351562 C50.22067356 46.40104413 50.21682935 48.69857194 50.2109375 50.99609375 C50.21701019 52.08160019 50.22308289 53.16710663 50.2293396 54.2855072 C50.21515488 55.80211693 50.21515488 55.80211693 50.20068359 57.34936523 C50.19829681 58.2374437 50.19591003 59.12552216 50.19345093 60.04051208 C49.72920273 62.96161618 48.8771111 64.33735024 46.8125 66.4375 C44.20054192 66.81946624 42.0144407 66.9522189 39.40625 66.8984375 C38.68514038 66.89752106 37.96403076 66.89660461 37.22106934 66.8956604 C35.69793101 66.88962405 34.17480457 66.87387665 32.65185547 66.84912109 C30.32084401 66.81263062 27.9914234 66.80810161 25.66015625 66.80859375 C24.17967377 66.79876151 22.69920205 66.78710404 21.21875 66.7734375 C20.17334045 66.77009903 20.17334045 66.77009903 19.10681152 66.76669312 C15.46587381 66.69530549 13.92681118 66.51370745 10.8125 64.4375 C10.59112607 61.81052936 10.53087975 59.42856036 10.625 56.8125 C10.64530273 55.75289062 10.64530273 55.75289062 10.66601562 54.671875 C10.7013896 52.92675872 10.75519779 51.18203392 10.8125 49.4375 C7.52174004 49.81654208 7.52174004 49.81654208 4.8125 51.4375 C2.3182035 51.59063272 -0.12938493 51.66906517 -2.625 51.6875 C-3.31916016 51.708125 -4.01332031 51.72875 -4.72851562 51.75 C-6.74609375 51.765625 -6.74609375 51.765625 -10.1875 51.4375 C-12.35020069 48.19344896 -12.40685107 46.14329353 -12.765625 42.35546875 C-13.06366002 40.17976475 -13.06366002 40.17976475 -15.3125 38.3125 C-15.93125 37.69375 -16.55 37.075 -17.1875 36.4375 C-16.64323821 30.08606764 -13.97762332 24.45068957 -11.57714844 18.61401367 C-10.8119417 16.74863901 -10.06172681 14.87770058 -9.3125 13.00585938 C-8.83039062 11.82443359 -8.34828125 10.64300781 -7.8515625 9.42578125 C-7.41279785 8.34852783 -6.9740332 7.27127441 -6.52197266 6.16137695 C-4.89317414 2.83673278 -3.72237065 0.74447413 0 0 Z " fill="#6B6C6B" transform="translate(683.1875,1151.5625)"/>
<path d="M0 0 C1.42662964 -0.01418472 1.42662964 -0.01418472 2.88208008 -0.02865601 C3.90712646 -0.02258331 4.93217285 -0.01651062 5.98828125 -0.01025391 C7.04233154 -0.01312408 8.09638184 -0.01599426 9.18237305 -0.01895142 C11.41162656 -0.02099354 13.64089792 -0.01545339 15.87011719 -0.00292969 C19.28751593 0.01312129 22.7037319 -0.00277399 26.12109375 -0.02197266 C28.28515887 -0.01999025 30.44922325 -0.01614663 32.61328125 -0.01025391 C33.63832764 -0.0163266 34.66337402 -0.02239929 35.71948242 -0.02865601 C36.67056885 -0.01919952 37.62165527 -0.00974304 38.6015625 0 C39.43856689 0.00238678 40.27557129 0.00477356 41.13793945 0.00723267 C43.83596492 0.48244787 44.71664998 1.17248815 46.30078125 3.38818359 C46.61149872 6.42495402 46.74490649 9.25223778 46.734375 12.29052734 C46.73961685 13.1646376 46.7448587 14.03874786 46.7502594 14.93934631 C46.75668183 16.78775979 46.75533973 18.63621412 46.74682617 20.48461914 C46.73832259 23.31193943 46.76706273 26.1372352 46.79882812 28.96435547 C46.8004404 30.76057882 46.7998621 32.55680575 46.796875 34.35302734 C46.80810898 35.19792221 46.81934296 36.04281708 46.83091736 36.91331482 C46.78893766 40.45234101 46.63137041 42.7845775 44.91430664 45.91967773 C40.75195323 48.25844987 36.68388389 47.95850853 31.98828125 47.91943359 C30.98240967 47.9232605 29.97653809 47.9270874 28.94018555 47.93103027 C26.81525674 47.9337501 24.69029449 47.926384 22.56542969 47.90966797 C19.31239193 47.88826 16.0615628 47.90946791 12.80859375 47.93505859 C10.74348471 47.93241533 8.67837704 47.92729039 6.61328125 47.91943359 C5.64028076 47.92753052 4.66728027 47.93562744 3.66479492 47.94396973 C-0.20710143 47.89018862 -2.90357735 47.83524413 -6.31274414 45.91967773 C-8.40323934 42.10274787 -8.25231955 38.6404637 -8.1953125 34.35302734 C-8.19676773 33.47796036 -8.19822296 32.60289337 -8.19972229 31.7013092 C-8.19806473 29.85463119 -8.18651937 28.00793916 -8.16577148 26.16137695 C-8.13678436 23.33208722 -8.14517133 20.5046677 -8.15820312 17.67529297 C-8.15196652 15.88036197 -8.14357619 14.0854369 -8.1328125 12.29052734 C-8.13574814 11.44360825 -8.13868378 10.59668915 -8.14170837 9.72410583 C-8.04752625 3.87535493 -8.04752625 3.87535493 -6.46766663 1.66563416 C-4.17960719 0.01283858 -2.80978087 0.0080123 0 0 Z " fill="#666766" transform="translate(666.69921875,970.61181640625)"/>
<path d="M0 0 C0.89347641 -0.00287018 1.78695282 -0.00574036 2.70750427 -0.00869751 C4.59106075 -0.01073393 6.47463858 -0.00523363 8.3581543 0.00732422 C11.23990108 0.02340295 14.12024942 0.00745165 17.00195312 -0.01171875 C18.83463851 -0.00973661 20.66732302 -0.00589355 22.5 0 C23.36049454 -0.00607269 24.22098907 -0.01214539 25.1075592 -0.0184021 C28.44392684 0.02081955 31.09861529 0.17300513 34.2265625 1.37841797 C36.59607606 4.66349759 36.23252484 8.22195567 36.1796875 12.1171875 C36.18114273 12.97147339 36.18259796 13.82575928 36.18409729 14.70593262 C36.18243783 16.51150931 36.17087118 18.31710008 36.15014648 20.12255859 C36.12119979 22.88830569 36.12953406 25.6521355 36.14257812 28.41796875 C36.13634046 30.17188433 36.1279493 31.92579385 36.1171875 33.6796875 C36.12012314 34.50786987 36.12305878 35.33605225 36.12608337 36.18933105 C36.03176482 41.92168262 36.03176482 41.92168262 34.42909241 44.11624146 C32.24580748 45.72002344 31.04443083 45.77822978 28.3515625 45.78662109 C27.48055908 45.79607758 26.60955566 45.80553406 25.7121582 45.8152771 C24.77460693 45.80920441 23.83705566 45.80313171 22.87109375 45.796875 C21.42319458 45.80118027 21.42319458 45.80118027 19.94604492 45.80557251 C17.90510471 45.80761411 15.86414498 45.80207757 13.82324219 45.78955078 C10.69551935 45.7734987 7.56908879 45.78939645 4.44140625 45.80859375 C2.45963256 45.80661134 0.47785967 45.8027677 -1.50390625 45.796875 C-2.44145752 45.80294769 -3.37900879 45.80902039 -4.3449707 45.8152771 C-5.65147583 45.80109238 -5.65147583 45.80109238 -6.984375 45.78662109 C-7.75031982 45.78423431 -8.51626465 45.78184753 -9.30541992 45.77938843 C-11.8948142 45.28886687 -12.77116371 44.51268537 -14.31640625 42.3984375 C-14.6391248 39.42192176 -14.7844317 36.65891107 -14.78515625 33.6796875 C-14.79276978 32.82540161 -14.8003833 31.97111572 -14.80822754 31.09094238 C-14.81902911 29.28543012 -14.8218814 27.47985537 -14.81738281 25.67431641 C-14.81640966 22.90812424 -14.85804382 20.14469828 -14.90234375 17.37890625 C-14.9075501 15.62500579 -14.91023895 13.87109568 -14.91015625 12.1171875 C-14.92655151 11.28900513 -14.94294678 10.46082275 -14.95983887 9.60754395 C-14.91716177 6.07199593 -14.8774178 3.97815644 -12.36157227 1.37841797 C-8.18166238 0.03325977 -4.36744302 -0.03089465 0 0 Z " fill="#676766" transform="translate(627.31640625,1073.6015625)"/>
<path d="M0 0 C1.87171875 -0.00386719 1.87171875 -0.00386719 3.78125 -0.0078125 C5.74578125 0.00378906 5.74578125 0.00378906 7.75 0.015625 C9.0596875 0.00789062 10.369375 0.00015625 11.71875 -0.0078125 C12.9665625 -0.00523437 14.214375 -0.00265625 15.5 0 C16.64984375 0.00225586 17.7996875 0.00451172 18.984375 0.00683594 C21.75 0.265625 21.75 0.265625 23.75 2.265625 C24.00396729 4.58068848 24.00396729 4.58068848 24.00878906 7.50976562 C24.01509338 8.60430054 24.02139771 9.69883545 24.02789307 10.82653809 C24.0238446 12.01299927 24.01979614 13.19946045 24.015625 14.421875 C24.01849518 16.24168884 24.01849518 16.24168884 24.02142334 18.0982666 C24.02278634 20.66723843 24.01908192 23.23621712 24.01074219 25.80517578 C24.0000446 29.74918004 24.01063394 33.69272875 24.0234375 37.63671875 C24.02211593 40.12760518 24.01955358 42.61849132 24.015625 45.109375 C24.01967346 46.29583618 24.02372192 47.48229736 24.02789307 48.70471191 C24.02158875 49.79924683 24.01528442 50.89378174 24.00878906 52.02148438 C24.00719788 52.98807983 24.00560669 53.95467529 24.00396729 54.95056152 C23.75 57.265625 23.75 57.265625 21.75 59.265625 C18.984375 59.52441406 18.984375 59.52441406 15.5 59.53125 C13.62828125 59.53511719 13.62828125 59.53511719 11.71875 59.5390625 C9.75421875 59.52746094 9.75421875 59.52746094 7.75 59.515625 C6.4403125 59.52335938 5.130625 59.53109375 3.78125 59.5390625 C2.5334375 59.53648437 1.285625 59.53390625 0 59.53125 C-1.72476563 59.52786621 -1.72476563 59.52786621 -3.484375 59.52441406 C-6.25 59.265625 -6.25 59.265625 -8.25 57.265625 C-8.50396729 54.95056152 -8.50396729 54.95056152 -8.50878906 52.02148438 C-8.51509338 50.92694946 -8.52139771 49.83241455 -8.52789307 48.70471191 C-8.5238446 47.51825073 -8.51979614 46.33178955 -8.515625 45.109375 C-8.51753845 43.89616577 -8.5194519 42.68295654 -8.52142334 41.4329834 C-8.52278634 38.86401157 -8.51908192 36.29503288 -8.51074219 33.72607422 C-8.5000446 29.78206996 -8.51063394 25.83852125 -8.5234375 21.89453125 C-8.52211593 19.40364482 -8.51955358 16.91275868 -8.515625 14.421875 C-8.52169769 12.64218323 -8.52169769 12.64218323 -8.52789307 10.82653809 C-8.52158875 9.73200317 -8.51528442 8.63746826 -8.50878906 7.50976562 C-8.50719788 6.54317017 -8.50560669 5.57657471 -8.50396729 4.58068848 C-7.93276114 -0.62619669 -4.35046249 0.0085351 0 0 Z " fill="#666766" transform="translate(815.25,934.734375)"/>
<path d="M0 0 C1.00939636 -0.00218285 1.00939636 -0.00218285 2.03918457 -0.00440979 C3.4579706 -0.00275425 4.87677523 0.00876872 6.29541016 0.02954102 C8.46204217 0.05850408 10.62622624 0.05014426 12.79296875 0.03710938 C14.17449101 0.04334733 15.55600557 0.05173873 16.9375 0.0625 C18.81598633 0.0771228 18.81598633 0.0771228 20.73242188 0.09204102 C24.23353566 0.52915201 25.69930926 0.79427912 27.96875 3.49609375 C28.47045898 6.54296875 28.47045898 6.54296875 28.46484375 10.24609375 C28.46629898 10.90061523 28.46775421 11.55513672 28.46925354 12.22949219 C28.46759579 13.61137347 28.45604793 14.99327345 28.43530273 16.375 C28.40634607 18.48907967 28.41469292 20.60065111 28.42773438 22.71484375 C28.42149657 24.05860593 28.41310528 25.40236019 28.40234375 26.74609375 C28.39259521 27.968125 28.38284668 29.19015625 28.37280273 30.44921875 C27.96875 33.49609375 27.96875 33.49609375 26.90454102 35.39086914 C23.9177945 37.0961285 20.91077911 36.94379107 17.5625 36.9296875 C16.84139038 36.93492935 16.12028076 36.9401712 15.37731934 36.9455719 C13.85426114 36.95198905 12.33115336 36.95065899 10.80810547 36.94213867 C8.47664318 36.93362258 6.14762675 36.96239823 3.81640625 36.99414062 C2.33593823 36.99575262 0.85546588 36.99517514 -0.625 36.9921875 C-1.67040955 37.00903847 -1.67040955 37.00903847 -2.73693848 37.02622986 C-5.78888031 36.98223599 -7.59494235 36.86405809 -9.96704102 34.86352539 C-12.24974645 29.78543532 -11.49893764 23.96280012 -11.46875 18.49609375 C-11.48873047 17.2121875 -11.50871094 15.92828125 -11.52929688 14.60546875 C-11.52865234 13.373125 -11.52800781 12.14078125 -11.52734375 10.87109375 C-11.52919678 9.74445313 -11.5310498 8.6178125 -11.53295898 7.45703125 C-11.03125 4.49609375 -11.03125 4.49609375 -9.43969727 2.12866211 C-6.17222657 -0.08619613 -3.93016358 -0.00581535 0 0 Z " fill="#666766" transform="translate(687.03125,1064.50390625)"/>
<path d="M0 0 C0.74584854 0.00091141 1.49169708 0.00182281 2.26014709 0.00276184 C3.02706375 -0.00152328 3.79398041 -0.00580841 4.58413696 -0.01022339 C6.20733146 -0.01597014 7.83055172 -0.0164644 9.45375061 -0.01213074 C11.93849128 -0.00897351 14.42203836 -0.03241445 16.90663147 -0.05778503 C18.48280184 -0.06005827 20.05897542 -0.06076141 21.63514709 -0.05973816 C22.75088356 -0.07355278 22.75088356 -0.07355278 23.88916016 -0.08764648 C26.76515422 -0.06183551 28.97369755 -0.01852239 31.47938538 1.47492981 C33.84740783 5.66003792 32.98037742 11.06892222 32.95155334 15.74104309 C32.98152405 17.45904114 32.98152405 17.45904114 33.01210022 19.21174622 C33.01145569 20.31325012 33.01081116 21.41475403 33.01014709 22.54963684 C33.01292664 24.06061951 33.01292664 24.06061951 33.01576233 25.60212708 C32.51405334 28.30354309 32.51405334 28.30354309 30.95204163 30.63215637 C27.68053304 32.87497109 24.84075369 32.86184311 21.01014709 32.79963684 C19.93060509 32.80181969 19.93060509 32.80181969 18.82925415 32.80404663 C17.31211791 32.80239069 15.79496435 32.79086335 14.27796936 32.77009583 C11.95554893 32.74109299 9.63540582 32.74950029 7.31288147 32.76252747 C5.83695892 32.75629099 4.36104357 32.74790075 2.88514709 32.73713684 C1.84444313 32.7415403 1.84444313 32.7415403 0.78271484 32.74603271 C-1.96008584 32.69230668 -4.03452993 32.57002568 -6.42393494 31.15950012 C-7.97196672 28.45418113 -7.85761821 26.27837073 -7.84922791 23.17463684 C-7.84858337 21.97516418 -7.84793884 20.77569153 -7.84727478 19.53987122 C-7.8311615 18.28625793 -7.81504822 17.03264465 -7.79844666 15.74104309 C-7.80166931 14.48356262 -7.80489197 13.22608215 -7.80821228 11.93049622 C-7.73824936 0.10676209 -7.73824936 0.10676209 0 0 Z " fill="#666666" transform="translate(518.4859466552734,1058.6964569091797)"/>
<path d="M0 0 C1.08166443 -0.00642769 1.08166443 -0.00642769 2.18518066 -0.01298523 C3.70824128 -0.01872256 5.23132929 -0.01923317 6.75439453 -0.01489258 C9.08543528 -0.01173003 11.41520968 -0.03520583 13.74609375 -0.06054688 C15.2265609 -0.06281968 16.70703146 -0.06352345 18.1875 -0.0625 C19.23290955 -0.07631462 19.23290955 -0.07631462 20.29943848 -0.09040833 C23.0876447 -0.06372146 25.12880745 0.01319396 27.53173828 1.49951172 C28.96257584 3.92634379 28.98187193 5.67239883 28.9921875 8.484375 C28.99798828 9.9993457 28.99798828 9.9993457 29.00390625 11.54492188 C28.99230469 12.59873047 28.98070312 13.65253906 28.96875 14.73828125 C28.98035156 15.78822266 28.99195313 16.83816406 29.00390625 17.91992188 C29.00003906 18.93119141 28.99617187 19.94246094 28.9921875 20.984375 C28.98880371 21.90790771 28.98541992 22.83144043 28.98193359 23.78295898 C28.49815971 26.92079548 28.00640499 28.2058744 25.59375 30.30078125 C22.90136729 30.68214943 20.62251327 30.81524396 17.93359375 30.76171875 C17.18791641 30.76080231 16.44223907 30.75988586 15.67396545 30.75894165 C14.09955469 30.75290528 12.52515543 30.73715789 10.95092773 30.71240234 C8.53651817 30.67586098 6.12364174 30.67138317 3.70898438 30.671875 C2.17967419 30.66204497 0.65037443 30.65038846 -0.87890625 30.63671875 C-1.60288101 30.6344931 -2.32685577 30.63226746 -3.07276917 30.62997437 C-8.1740818 30.53294945 -8.1740818 30.53294945 -10.40625 28.30078125 C-10.86531021 23.98520726 -10.73026051 19.6379397 -10.71875 15.30078125 C-10.73486328 14.08648438 -10.75097656 12.8721875 -10.76757812 11.62109375 C-10.76822266 10.46351563 -10.76886719 9.3059375 -10.76953125 8.11328125 C-10.77251221 7.04722656 -10.77549316 5.98117187 -10.77856445 4.8828125 C-10.65570068 4.03074219 -10.53283691 3.17867187 -10.40625 2.30078125 C-6.80515725 -0.09994725 -4.16185911 -0.00544258 0 0 Z " fill="#666666" transform="translate(551.40625,980.69921875)"/>
<path d="M0 0 C8.3440545 0.07814411 15.33716387 3.2337161 22.9375 6.4375 C24.17995328 6.94690422 25.42278977 7.45537483 26.66601562 7.96289062 C35.71152491 11.71152491 35.71152491 11.71152491 38 14 C37.68985828 19.23364157 36.13746216 23.64636909 34 28.375 C33.72671875 29.00277344 33.4534375 29.63054688 33.171875 30.27734375 C31.16276544 34.83723456 31.16276544 34.83723456 30 36 C24.67020504 36.37858976 20.94084874 35.50440603 16.04296875 33.4453125 C15.41393143 33.18370331 14.7848941 32.92209412 14.13679504 32.65255737 C12.81929471 32.10183824 11.504254 31.54520051 10.19165039 30.98291016 C8.18075228 30.12211153 6.16266079 29.28039318 4.14257812 28.44140625 C-5.68883836 24.31116164 -5.68883836 24.31116164 -8 22 C-7.84162519 14.87313373 -5.05349039 5.05349039 0 0 Z " fill="#666666" transform="translate(471,989)"/>
<path d="M0 0 C0.87100342 -0.00945648 1.74200684 -0.01891296 2.6394043 -0.02865601 C3.57695557 -0.02258331 4.51450684 -0.01651062 5.48046875 -0.01025391 C6.44573486 -0.01312408 7.41100098 -0.01599426 8.40551758 -0.01895142 C10.44645779 -0.02099302 12.48741752 -0.01545648 14.52832031 -0.00292969 C17.65604315 0.01312239 20.78247371 -0.00277536 23.91015625 -0.02197266 C25.89192994 -0.01999024 27.87370283 -0.0161466 29.85546875 -0.01025391 C30.79302002 -0.0163266 31.73057129 -0.02239929 32.6965332 -0.02865601 C33.56753662 -0.01919952 34.43854004 -0.00974304 35.3359375 0 C36.10188232 0.00238678 36.86782715 0.00477356 37.65698242 0.00723267 C40.2175487 0.4922932 41.10380738 1.33476585 42.66796875 3.38818359 C43.1015625 6.16552734 43.1015625 6.16552734 43.10546875 9.32568359 C43.12480469 10.36595703 43.14414062 11.40623047 43.1640625 12.47802734 C42.52078769 16.25156853 41.78043825 17.15284849 38.66796875 19.38818359 C35.43873873 19.97914496 32.2515316 19.92468402 28.9765625 19.88427734 C28.03490738 19.88573257 27.09325226 19.88718781 26.12306213 19.88868713 C24.13515118 19.88702904 22.14722727 19.87547779 20.15942383 19.85473633 C17.11289125 19.82575421 14.0680958 19.8341346 11.02148438 19.84716797 C9.08983528 19.84093132 7.15819168 19.83254096 5.2265625 19.82177734 C3.85775185 19.8261808 3.85775185 19.8261808 2.46128845 19.83067322 C1.61353348 19.81798904 0.7657785 19.80530487 -0.10766602 19.79223633 C-0.85282974 19.78683334 -1.59799347 19.78143036 -2.36573792 19.77586365 C-4.89647657 19.27689593 -5.78797037 18.42614663 -7.33203125 16.38818359 C-7.73046875 13.35693359 -7.73046875 13.35693359 -7.70703125 9.88818359 C-7.71863281 8.17115234 -7.71863281 8.17115234 -7.73046875 6.41943359 C-7.33203125 3.38818359 -7.33203125 3.38818359 -6.07788086 1.72299194 C-3.89397852 0.0532656 -2.72941517 0.0085052 0 0 Z " fill="#717271" transform="translate(724.33203125,923.61181640625)"/>
<path d="M0 0 C1.20140625 -0.01611328 2.4028125 -0.03222656 3.640625 -0.04882812 C4.79046875 -0.04947266 5.9403125 -0.05011719 7.125 -0.05078125 C8.17945313 -0.05376221 9.23390625 -0.05674316 10.3203125 -0.05981445 C13 0.3125 13 0.3125 14.84228516 1.59106445 C16.89842402 4.64838944 16.42843266 8.25625931 16.375 11.8125 C16.38660156 12.58464844 16.39820313 13.35679687 16.41015625 14.15234375 C16.38111505 19.73793463 16.38111505 19.73793463 14.8581543 22.03393555 C12.17408806 23.880796 10.10696154 23.68452876 6.87109375 23.67578125 C5.67162109 23.67513672 4.47214844 23.67449219 3.23632812 23.67382812 C1.98271484 23.65771484 0.72910156 23.64160156 -0.5625 23.625 C-2.4487207 23.62983398 -2.4487207 23.62983398 -4.37304688 23.63476562 C-13.73311942 23.57938058 -13.73311942 23.57938058 -16 21.3125 C-16.4456098 18.16590068 -16.32411997 14.98707507 -16.3125 11.8125 C-16.32861328 10.93207031 -16.34472656 10.05164063 -16.36132812 9.14453125 C-16.36197266 8.30277344 -16.36261719 7.46101562 -16.36328125 6.59375 C-16.36626221 5.82095703 -16.36924316 5.04816406 -16.37231445 4.25195312 C-16.24945068 3.61193359 -16.12658691 2.97191406 -16 2.3125 C-11.12873683 -0.93500878 -5.72409973 -0.01535434 0 0 Z " fill="#666766" transform="translate(654,897.6875)"/>
<path d="M0 0 C0.92876953 0.00064453 1.85753906 0.00128906 2.81445312 0.00195312 C3.78189453 0.01806641 4.74933594 0.03417969 5.74609375 0.05078125 C6.71740234 0.04755859 7.68871094 0.04433594 8.68945312 0.04101562 C15.91657366 0.09626116 15.91657366 0.09626116 18.18359375 2.36328125 C18.44921875 5.33203125 18.44921875 5.33203125 18.43359375 8.86328125 C18.43875 10.02859375 18.44390625 11.19390625 18.44921875 12.39453125 C18.18359375 15.36328125 18.18359375 15.36328125 16.18359375 17.36328125 C12.72416042 17.814198 9.23154941 17.68734547 5.74609375 17.67578125 C4.77865234 17.69189453 3.81121094 17.70800781 2.81445312 17.72460938 C1.88568359 17.72525391 0.95691406 17.72589844 0 17.7265625 C-0.85134521 17.72954346 -1.70269043 17.73252441 -2.57983398 17.7355957 C-5.30243227 17.28237418 -6.18154964 16.5531999 -7.81640625 14.36328125 C-8.21484375 11.76953125 -8.21484375 11.76953125 -8.19140625 8.86328125 C-8.19914062 7.90421875 -8.206875 6.94515625 -8.21484375 5.95703125 C-7.44486462 0.94461806 -4.74848605 -0.01662667 0 0 Z " fill="#666666" transform="translate(510.81640625,1134.63671875)"/>
<path d="M0 0 C0.33 0 0.66 0 1 0 C1 62.7 1 125.4 1 190 C0.67 190 0.34 190 0 190 C-0.00238835 189.16178522 -0.00477671 188.32357044 -0.00723743 187.45995522 C-0.06630723 167.0885344 -0.14180551 146.71723269 -0.23571491 126.34594154 C-0.28072985 116.49463595 -0.32013123 106.64336697 -0.34643555 96.79199219 C-0.36936962 88.20810879 -0.40271584 79.62434071 -0.44870156 71.04054868 C-0.47269599 66.49314673 -0.49138386 61.94585942 -0.49761391 57.39839554 C-0.50363681 53.12201324 -0.52353431 48.84592453 -0.55427551 44.56965065 C-0.56310086 42.99665549 -0.56676909 41.42362204 -0.56500816 39.8506031 C-0.56336752 37.70959785 -0.57994863 35.5695006 -0.60127258 33.42861938 C-0.60588155 32.22844492 -0.61049051 31.02827045 -0.61523914 29.79172707 C-0.74221023 28.87045713 -0.86918131 27.9491872 -1 27 C-4.25077841 24.5364399 -4.25077841 24.5364399 -10 24 C-10 19.38 -10 14.76 -10 10 C-8.02 9.34 -6.04 8.68 -4 8 C-2.45930697 6.11361539 -2.45930697 6.11361539 -1.625 3.875 C-1.30789063 3.15054687 -0.99078125 2.42609375 -0.6640625 1.6796875 C-0.44492187 1.12539062 -0.22578125 0.57109375 0 0 Z " fill="#5C6845" transform="translate(663,1050)"/>
<path d="M0 0 C0.33 0 0.66 0 1 0 C1 8.25 1 16.5 1 25 C-0.32 24.34 -1.64 23.68 -3 23 C-4.98 22.67 -6.96 22.34 -9 22 C-9 17.38 -9 12.76 -9 8 C-7.02 7.34 -5.04 6.68 -3 6 C-1.08160141 2.9994093 -1.08160141 2.9994093 0 0 Z " fill="#5F5141" transform="translate(662,1052)"/>
<path d="M0 0 C0.99 0.66 1.98 1.32 3 2 C3.3125 5 3.3125 5 3 8 C1 10 1 10 -2.4375 10.25 C-6 10 -6 10 -9 8 C-9.43566323 5.16818902 -9.39684676 3.63936422 -7.875 1.1875 C-5.15523346 -0.53501881 -3.15413751 -0.32855599 0 0 Z " fill="#666564" transform="translate(659,1175)"/>
</svg>
