<?xml version="1.0" encoding="UTF-8"?>
<svg version="1.1" xmlns="http://www.w3.org/2000/svg" width="1920" height="1080">
<path d="M0 0 C0.91265625 -0.02578125 1.8253125 -0.0515625 2.765625 -0.078125 C5.75 0.25 5.75 0.25 8.7734375 1.7421875 C14.23653335 4.25855878 20.23398356 3.6825045 26.125 3.625 C27.30578125 3.63660156 28.4865625 3.64820313 29.703125 3.66015625 C35.89973659 3.63945487 41.01036998 3.16431361 46.79638672 0.93554688 C54.59367267 -1.80061645 63.84923285 -0.11138103 71.2734375 2.9765625 C76.72532541 5.77989918 81.34063436 9.09437392 84.75 14.25 C84.75 14.91 84.75 15.57 84.75 16.25 C85.54664063 16.21519531 86.34328125 16.18039063 87.1640625 16.14453125 C94.62353047 15.9539609 99.49507237 16.16638435 105.125 21.5 C108.02654935 23.43436624 108.63220608 23.4496065 111.9375 23.0625 C115.53339576 22.46286969 115.53339576 22.46286969 117.75 21.25 C121.26398019 20.95434773 124.78754333 20.9718563 128.3125 20.9375 C129.27736328 20.90849609 130.24222656 20.87949219 131.23632812 20.84960938 C137.98741511 20.79034933 142.83325679 22.0206732 148.75 25.25 C151.31964849 26.53482424 153.18755447 26.37634547 156.0625 26.390625 C157.13886719 26.40996094 158.21523438 26.42929688 159.32421875 26.44921875 C161.57664923 26.48260712 163.82935487 26.50126536 166.08203125 26.50390625 C175.09096854 26.70695466 181.17443775 29.08180872 188.53125 34.17578125 C190.75658594 35.53543382 190.75658594 35.53543382 193.40625 34.66796875 C194.3446875 34.26191406 195.283125 33.85585937 196.25 33.4375 C203.76378202 30.63951952 212.05142227 29.53174615 219.75 32.4375 C222.94995978 34.37080904 225.26262758 36.46999554 227.75 39.25 C229.63799288 41.13799288 233.03069689 40.74348499 235.5625 41 C244.14206211 42.02235501 251.94492797 44.22147328 258.8125 49.6875 C262.48135167 54.53985221 264.24062539 59.44471305 265.75 65.25 C266.87535156 65.27126953 266.87535156 65.27126953 268.0234375 65.29296875 C277.13730482 65.71767038 283.77055138 67.85088763 290.75 73.8125 C292.75 76.25 292.75 76.25 293.8125 78.4375 C295.3229727 81.35774723 297.99489889 81.98826651 301.00390625 83.03125 C302.54534298 83.51115585 304.0870107 83.99032035 305.62890625 84.46875 C307.75 85.25 307.75 85.25 310.75 87.25 C312.76237919 87.55848256 312.76237919 87.55848256 314.9375 87.625 C320.49602613 88.13196655 325.31045411 90.06651267 329.49682617 93.81347656 C332.42097791 95.67778568 334.18197515 95.52549366 337.625 95.3671875 C338.77613281 95.33496094 339.92726563 95.30273438 341.11328125 95.26953125 C343.50688676 95.17440407 345.90016125 95.07047196 348.29296875 94.95703125 C358.00346677 94.7091495 366.15652507 96.50022455 373.8125 102.75 C379.30480113 109.83684017 379.63302366 115.38966032 378.75 124.25 C377.11352683 130.43547896 373.08334087 134.84509877 367.75 138.25 C362.58789124 140.83307051 358.47894225 141.65263207 352.68359375 141.55078125 C351.12955307 141.55843101 349.57551635 141.56692222 348.02148438 141.57617188 C345.61482938 141.57397891 343.20898976 141.56274858 340.80249023 141.53491211 C330.58085073 141.44318621 322.96795348 142.37172591 313.73657227 146.86694336 C309.82969155 148.67618715 306.77803737 149.09755406 302.5 149.375 C297.92255797 149.75818201 294.03470687 150.31658835 289.875 152.375 C282.31241803 155.78457085 271.73554819 155.81303673 263.859375 153.34375 C262.31376392 152.62724155 260.7743335 151.89721058 259.2421875 151.15234375 C252.87409411 148.84665476 245.16684789 149.13973449 238.953125 151.74609375 C234.19957036 153.66292329 229.6982997 153.68733228 224.625 153.75 C218.47675994 153.91988208 212.79634009 154.25684629 206.8125 155.8125 C200.59322553 157.33176921 194.62118128 157.58280675 188.25 157.625 C186.83279663 157.64542358 186.83279663 157.64542358 185.38696289 157.66625977 C180.09358197 157.631712 176.30158001 157.24224241 171.75 154.25 C171.28505127 153.70432373 170.82010254 153.15864746 170.34106445 152.59643555 C168.85818722 151.02356012 168.85818722 151.02356012 166.8815918 151.38354492 C166.18203369 151.60115479 165.48247559 151.81876465 164.76171875 152.04296875 C159.32232258 153.47299822 154.16393402 153.58156547 148.5625 153.5625 C147.12487305 153.58666992 147.12487305 153.58666992 145.65820312 153.61132812 C140.14937396 153.61513519 136.60065415 153.08853095 131.75 150.25 C126.64748423 148.73877237 121.3374605 149.2534732 116.07617188 149.46484375 C112.29451496 149.53879615 110.19682766 149.48603774 106.77734375 147.6796875 C103.09457597 145.94047072 101.19928764 146.30656374 97.27929688 146.90869141 C92.54192807 147.54796183 87.77287063 147.43442073 83 147.4375 C81.98550781 147.44974609 80.97101563 147.46199219 79.92578125 147.47460938 C78.94480469 147.47654297 77.96382812 147.47847656 76.953125 147.48046875 C76.07301758 147.48457764 75.19291016 147.48868652 74.28613281 147.49291992 C71.46373771 147.22258077 69.36495485 146.31253758 66.75 145.25 C64.58421872 145.01072 64.58421872 145.01072 62.4296875 145.125 C61.25599609 145.14820313 61.25599609 145.14820313 60.05859375 145.171875 C58.85396484 145.21054687 58.85396484 145.21054687 57.625 145.25 C56.0185009 145.30108105 54.41168241 145.34312572 52.8046875 145.375 C52.09812012 145.39820313 51.39155273 145.42140625 50.66357422 145.4453125 C48.75 145.25 48.75 145.25 45.75 143.25 C43.69764564 143.22849095 43.69764564 143.22849095 41.4375 143.625 C33.38484838 144.61537004 25.11139542 144.82887191 17.0625 143.6875 C13.75579196 143.00488921 13.75579196 143.00488921 10.75 144.25 C-2.28688427 145.45804462 -14.64743303 144.68386009 -25.25 136.25 C-26.42712942 135.07287058 -27.59316145 133.88457641 -28.75 132.6875 C-31.68727692 129.65381355 -34.40713161 128.05379537 -38.25 126.25 C-39.64997859 125.37195517 -41.02388699 124.45152321 -42.375 123.5 C-43.01695313 123.05140625 -43.65890625 122.6028125 -44.3203125 122.140625 C-49.51830249 117.04785748 -50.82283206 111.9101511 -51.3125 104.9375 C-51.74351771 100.16828392 -52.18341346 95.82864268 -53.875 91.3125 C-56.96726442 81.93957415 -56.89316707 70.5023538 -52.6875 61.5625 C-50.6412065 57.99123063 -48.57814144 55.50301608 -45.4375 52.875 C-42.88906647 50.59306933 -42.30185677 49.58063874 -41.76171875 46.13671875 C-41.66919614 43.71791334 -41.59015121 41.29856104 -41.5234375 38.87890625 C-40.71013603 28.08523386 -34.76388032 20.54847397 -27.25 13.25 C-26.59902344 12.59 -25.94804688 11.93 -25.27734375 11.25 C-18.53115068 4.82241564 -9.40738208 0.15766562 0 0 Z " fill="#FFFFFF" transform="translate(129.25,201.75)"/>
<path d="M0 0 C1.98089457 1.1288504 3.36263308 2.1744202 4.93359375 3.8359375 C5.40925781 4.28195313 5.88492187 4.72796875 6.375 5.1875 C8.96937107 4.98793299 10.7997431 4.54276555 13.01953125 3.171875 C19.37056832 0.51771025 29.11903321 0.82635747 35.65136719 2.91552734 C38.48662026 4.09487602 41.2150059 5.37339266 43.89550781 6.87280273 C47.44825594 8.77186503 49.73462053 9.42807748 53.59375 8.5 C56.21095354 7.66383475 58.73506544 6.66907121 61.25 5.5625 C70.82398665 2.31566974 83.39339213 2.69014675 92.4921875 7.0390625 C94.375 8.1875 94.375 8.1875 96.8125 10.3125 C99.64240582 12.3831628 101.14765868 12.61468153 104.5625 13.125 C115.10271333 14.77808976 122.39285164 20.4365669 130.375 27.1875 C130.96410156 27.6309375 131.55320312 28.074375 132.16015625 28.53125 C136.33706408 31.6933081 139.44854696 35.31091386 141.375 40.1875 C141.52327162 42.14198955 141.60235588 44.10252522 141.625 46.0625 C141.87497045 52.67005219 144.68734235 55.42094603 149.20703125 59.9765625 C155.086421 65.97248069 154.72517307 72.70734843 154.7734375 80.56640625 C154.22029652 85.59348159 152.64810759 88.83482318 149.1875 92.51171875 C146.23615088 96.8687751 147.19058405 101.24989712 147.53125 106.33007812 C147.83235979 113.76372606 145.32337024 118.34844623 141.1875 124.375 C136.10709721 129.45540279 129.6083255 133.21802802 122.3125 133.3984375 C114.40057166 133.66125477 107.097634 133.9193947 99.515625 136.36328125 C94.12371636 137.77832195 88.59467056 138.38112151 83.07275391 139.09716797 C78.87426692 139.65052997 74.7740213 140.28452204 70.65234375 141.265625 C66.90697682 142.13659245 63.42261946 142.42634379 59.5625 142.375 C58.48355469 142.36855469 57.40460938 142.36210937 56.29296875 142.35546875 C53.81940723 142.21308167 51.73510132 141.90181638 49.375 141.1875 C49.375 140.5275 49.375 139.8675 49.375 139.1875 C48.22451172 139.51621094 48.22451172 139.51621094 47.05078125 139.8515625 C45.31066761 140.34873783 43.57039741 140.84540435 41.828125 141.33496094 C37.95292224 142.42889048 34.10259937 143.57977684 30.26171875 144.7890625 C6.35980267 152.17990133 6.35980267 152.17990133 -1.625 148.1875 C-3.33561375 148.10503214 -5.04912055 148.07924654 -6.76171875 148.08203125 C-22.71995756 147.92216602 -36.21188664 147.19476609 -48.40234375 135.703125 C-49.625 134.1875 -49.625 134.1875 -49.625 132.1875 C-50.8625 132.3525 -52.1 132.5175 -53.375 132.6875 C-70.33770969 134.53069208 -84.64388184 130.84962426 -98.140625 120.203125 C-101.53523046 116.63140969 -103.00533579 113.31150163 -104.4375 108.625 C-106.26958603 102.87494644 -109.14992775 100.89938318 -114.15625 97.78515625 C-120.89635131 93.42328689 -124.71747559 86.90332908 -126.625 79.1875 C-127.53417524 71.46878779 -127.35833012 64.60092 -122.625 58.1875 C-121.6040625 57.259375 -121.6040625 57.259375 -120.5625 56.3125 C-118.3899194 53.92966966 -118.05036181 52.51725481 -117.25 49.4375 C-114.39701272 39.19677724 -107.42022422 33.69673072 -98.625 28.1875 C-91.42885568 24.2858405 -85.14763862 23.04320921 -77.00024414 23.40454102 C-68.11042249 23.75265521 -62.0792308 22.94778635 -54.19140625 18.59765625 C-49.44649033 15.99048023 -45.20916531 16.05945733 -39.875 16.125 C-39.17761719 16.12951172 -38.48023438 16.13402344 -37.76171875 16.13867188 C-36.04944197 16.1503998 -34.33720967 16.16833347 -32.625 16.1875 C-32.21314453 14.83011719 -32.21314453 14.83011719 -31.79296875 13.4453125 C-29.64180152 7.44506677 -25.65362456 1.72397089 -19.8046875 -1.1875 C-13.34697164 -3.0391748 -6.0911801 -2.91611025 0 0 Z " fill="#FFFFFF" transform="translate(1665.625,227.8125)"/>
<path d="M0 0 C2.91514121 0.97171374 5.0686191 0.50265793 8.06323242 0.09008789 C19.4259664 -1.23838805 32.97391212 -2.57181909 42.4375 4.8125 C43.22382812 5.50988281 44.01015625 6.20726563 44.8203125 6.92578125 C47.82655694 9.09296941 49.59380161 9.40737807 53.25 9.75 C63.64055459 11.12122222 75.29550998 13.00883291 82.46875 21.26171875 C83.4375 22.8125 83.4375 22.8125 83.4375 24.8125 C85.355625 25.121875 85.355625 25.121875 87.3125 25.4375 C96.00245811 27.3944512 103.52623351 32.32780236 108.4375 39.8125 C109.5952506 43.28575181 109.50616652 46.17317448 109.4375 49.8125 C110.159375 50.039375 110.88125 50.26625 111.625 50.5 C115.01435109 52.08169718 116.9799688 54.01364502 119.4375 56.8125 C120.49086511 59.97259533 120.63782888 62.3678136 120.6875 65.6875 C120.72617188 67.23050781 120.72617188 67.23050781 120.765625 68.8046875 C120.2659304 73.38522137 118.3999751 75.92600977 115.0625 79 C110.03511665 82.47128851 106.13826672 82.98855558 100.0625 83.0625 C94.38359498 83.28311933 91.10582791 83.99573253 87.16015625 88.18359375 C82.55261248 92.54038684 76.01790702 94.93343904 69.75 95.25 C63.47916043 95.57158152 58.03217135 98.03550401 52.26953125 100.33984375 C45.83839584 102.85633994 40.18696761 104.12345452 33.3125 104 C32.62285156 103.99935547 31.93320313 103.99871094 31.22265625 103.99804688 C27.49172829 103.9659452 24.08182636 103.54400131 20.4375 102.8125 C18.74800386 103.41898579 17.08113134 104.09090576 15.4375 104.8125 C-0.42804701 108.1245777 -15.84938532 104.98251583 -30.5625 98.8125 C-31.5525 97.8225 -31.5525 97.8225 -32.5625 96.8125 C-34.66893879 96.70361847 -36.77707234 96.60670221 -38.88623047 96.58691406 C-49.84875799 96.48200949 -57.64629219 94.44257568 -66.4375 87.5625 C-68.98438637 84.26652941 -70.97428207 80.78706648 -72.9375 77.1171875 C-74.83417619 74.42719001 -76.67885528 73.34184512 -79.5625 71.8125 C-84.0345726 68.39267978 -85.49740331 64.18363045 -86.5625 58.8125 C-87.51673303 49.83026296 -87.06344365 43.11295448 -81.5625 35.8125 C-80.92828125 34.89404297 -80.92828125 34.89404297 -80.28125 33.95703125 C-75.28284077 27.37482374 -67.39002335 22.35215099 -59.5625 19.8125 C-56.88671875 19.6171875 -56.88671875 19.6171875 -54.25 19.6875 C-52.92548828 19.71457031 -52.92548828 19.71457031 -51.57421875 19.7421875 C-50.57841797 19.77699219 -50.57841797 19.77699219 -49.5625 19.8125 C-49.48 18.94625 -49.3975 18.08 -49.3125 17.1875 C-48.43443173 13.2361928 -46.98430255 11.04157007 -44.5625 7.8125 C-43.82 6.78125 -43.0775 5.75 -42.3125 4.6875 C-32.18472858 -5.90062467 -12.71935012 -5.89433298 0 0 Z " fill="#FFFFFF" transform="translate(1178.5625,89.1875)"/>
<path d="M0 0 C0.82435547 -0.01611328 1.64871094 -0.03222656 2.49804688 -0.04882812 C9.0633608 -0.05407618 13.22388553 1.3001232 18.1875 5.8125 C22.4375 10.53472222 22.4375 10.53472222 22.4375 14.3125 C23.489375 14.250625 24.54125 14.18875 25.625 14.125 C30.32649002 14.35622082 32.5605117 15.4199994 35.85546875 18.7421875 C39.4375 22.77573529 39.4375 22.77573529 39.4375 26.3125 C39.95699219 25.96316406 40.47648437 25.61382812 41.01171875 25.25390625 C41.70910156 24.79886719 42.40648437 24.34382813 43.125 23.875 C43.80949219 23.42253906 44.49398438 22.97007812 45.19921875 22.50390625 C51.49795739 19.15117451 59.5284367 19.62234384 66.4375 20.3125 C71.03298113 21.88140311 74.99162416 23.86662416 78.4375 27.3125 C80.59914398 27.80978779 80.59914398 27.80978779 83.0625 28.125 C86.94410739 28.8017644 89.48185527 29.77894227 92.6875 32.0625 C95.69493104 34.18693178 95.69493104 34.18693178 99.375 33.8125 C100.385625 33.3175 101.39625 32.8225 102.4375 32.3125 C112.52295446 27.64742195 125.94346919 27.53130676 136.359375 31.33984375 C141.67138455 33.82610386 145.94753557 36.73208306 148.73828125 42.08984375 C149.98752966 46.06091832 149.9676384 50.16547198 150.15625 54.30078125 C150.48760492 57.8490402 151.80046502 60.18078091 153.4375 63.3125 C154.32796638 68.80025794 153.64176894 73.60070198 150.8515625 78.421875 C143.59208046 88.12792281 127.08397268 96.3969631 115.4375 99.3125 C112.83797627 99.47836919 110.2874488 99.59237516 107.6875 99.625 C102.39415627 99.69246418 99.36554087 100.19896258 94.76953125 102.828125 C88.56273931 106.1528097 82.78284921 105.94518023 75.875 105.75 C74.12413086 105.74129883 74.12413086 105.74129883 72.33789062 105.73242188 C67.16563401 105.65957319 62.31044983 105.42540475 57.2734375 104.203125 C53.52837757 102.91795843 53.52837757 102.91795843 50.625 104.625 C49.903125 105.181875 49.18125 105.73875 48.4375 106.3125 C44.08213035 107.69302709 39.71404906 107.53460139 35.1875 107.5625 C34.36636719 107.583125 33.54523438 107.60375 32.69921875 107.625 C28.43248219 107.65204746 25.23294483 107.39192716 21.328125 105.609375 C19.05051066 104.63884908 17.94085272 104.19440914 15.51025391 104.76464844 C14.18388797 105.32698785 12.86507687 105.90742355 11.55371094 106.50390625 C7.6672311 107.988911 3.67790441 107.84263945 -0.4375 107.8125 C-1.31937988 107.80822998 -2.20125977 107.80395996 -3.10986328 107.79956055 C-9.90380697 107.62176454 -15.03439356 106.4529389 -20.5625 102.3125 C-21.17351562 101.87035156 -21.78453125 101.42820312 -22.4140625 100.97265625 C-24.99622921 98.95954524 -26.73884945 97.04797582 -28.5625 94.3125 C-31.26464075 93.21679427 -31.26464075 93.21679427 -34.375 92.375 C-41.70236017 90.04038763 -45.48493716 87.15778346 -49.4777832 80.65332031 C-51.38634842 76.53463401 -51.30443812 72.53497694 -51.1875 68.0625 C-51.17203125 67.13445557 -51.1565625 66.20641113 -51.140625 65.25024414 C-50.75783485 54.72259475 -47.30794486 47.71699079 -41.3125 39.1875 C-38.07444656 34.56343864 -36.68618711 31.31378224 -36.79296875 25.6640625 C-36.05233284 18.10706555 -29.72260147 12.33835493 -24.5625 7.3125 C-17.09842313 1.38797489 -9.34636416 -0.03670999 0 0 Z " fill="#FFFFFF" transform="translate(1057.5625,329.6875)"/>
<path d="M0 0 C4.47023716 1.19144751 8.5576939 1.29513397 13.15625 1.3828125 C27.64640317 1.87296567 27.64640317 1.87296567 32.78125 7.0078125 C36.24550832 7.21248422 39.70282659 7.35376435 43.171875 7.4375 C50.40977058 7.74012978 55.7270125 9.61383207 61.21875 14.5703125 C61.89808594 15.16972656 62.57742188 15.76914062 63.27734375 16.38671875 C64.78125 18.0078125 64.78125 18.0078125 64.78125 20.0078125 C65.72484375 19.97300781 66.6684375 19.93820312 67.640625 19.90234375 C77.1031581 19.70283251 86.63733869 19.64852348 94.84375 25.0078125 C95.9546899 26.15458917 97.05187025 27.31595238 98.10546875 28.515625 C100.13494065 30.32275382 101.97275231 30.98495461 104.53125 31.8828125 C111.84705512 34.69822438 116.96887844 37.94786517 120.78125 45.0078125 C123.6281544 52.40976394 124.06943674 59.71189558 120.84375 67.0078125 C120.17478378 68.3505404 119.49059891 69.68597357 118.78125 71.0078125 C117.54009003 73.49013245 117.67562516 75.29825351 117.59375 78.0703125 C117.03950672 84.28924813 115.21345811 88.56666849 110.78125 93.0078125 C105.49761078 96.5621027 99.88520567 98.34309732 93.78125 100.0078125 C92.42075586 100.67341863 91.06569584 101.35019314 89.71484375 102.03515625 C84.55618516 104.35322462 80.00410201 104.62334808 74.40625 104.5078125 C73.48666504 104.49862793 72.56708008 104.48944336 71.61962891 104.47998047 C63.37309737 104.2597034 56.68644035 102.61127273 49.78125 98.0078125 C45.49285782 97.71206132 41.97717655 97.88416256 37.84375 99.0078125 C28.43996747 101.26080207 16.82670431 101.61940368 7.98046875 97.4140625 C4.60703247 95.25698069 1.76185325 92.6453873 -1.12890625 89.88671875 C-2.99706786 88.20711924 -4.62689381 87.08583317 -6.84375 85.9453125 C-10.95610171 83.584518 -14.23001154 80.69604294 -17.21875 77.0078125 C-17.21875 76.3478125 -17.21875 75.6878125 -17.21875 75.0078125 C-18.09273437 74.76998047 -18.09273437 74.76998047 -18.984375 74.52734375 C-40.21525209 68.48522307 -40.21525209 68.48522307 -46.21875 61.0078125 C-49.26990631 55.04981132 -48.83456877 48.52647944 -48.21875 42.0078125 C-46.99883463 38.26003126 -45.13670058 35.74217296 -42.03125 33.2578125 C-39.41598111 30.01127181 -39.78611564 26.9670594 -39.546875 22.89453125 C-38.75736238 15.94869994 -35.61318244 10.42143904 -30.21875 6.0078125 C-21.57138953 -0.49667136 -10.56191144 -3.25573484 0 0 Z " fill="#FFFFFF" transform="translate(645.21875,499.9921875)"/>
</svg>
