<?xml version="1.0" encoding="UTF-8"?>
<svg version="1.1" xmlns="http://www.w3.org/2000/svg" width="1920" height="1080">
<path d="M0 0 C633.6 0 1267.2 0 1920 0 C1920 356.4 1920 712.8 1920 1080 C1286.4 1080 652.8 1080 0 1080 C0 723.6 0 367.2 0 0 Z " fill="#6BCDFE" transform="translate(0,0)"/>
<path d="M0 0 C1.27552734 -0.00386719 2.55105469 -0.00773438 3.86523438 -0.01171875 C5.72825195 -0.00978516 5.72825195 -0.00978516 7.62890625 -0.0078125 C9.30255249 -0.00612061 9.30255249 -0.00612061 11.01000977 -0.00439453 C14.16884241 0.11485764 17.2370287 0.45519986 20.36808777 0.87576294 C23.88900977 1.29981777 27.4201556 1.45461418 30.9609375 1.625 C31.74715485 1.66560547 32.53337219 1.70621094 33.34341431 1.74804688 C35.83297804 1.87645923 38.32270596 2.00113928 40.8125 2.125 C59.22996251 3.04515426 59.22996251 3.04515426 67.09277344 3.91503906 C70.92152567 4.2578886 74.75507073 4.31891682 78.59667969 4.4152832 C100.49183297 4.98108736 119.6925034 9.06758424 140.39868164 16.10668945 C141.48910767 16.47733521 141.48910767 16.47733521 142.6015625 16.85546875 C143.24561035 17.07614014 143.8896582 17.29681152 144.55322266 17.52416992 C146.48986665 18.14169789 148.46547667 18.63199417 150.4375 19.125 C150.4375 125.385 150.4375 231.645 150.4375 341.125 C-483.1625 341.125 -1116.7625 341.125 -1769.5625 341.125 C-1769.5625 262.585 -1769.5625 184.045 -1769.5625 103.125 C-1740.68941328 94.87554665 -1740.68941328 94.87554665 -1737.39404297 94.83789062 C-1736.65572235 94.82447632 -1735.91740173 94.81106201 -1735.15670776 94.79724121 C-1734.38054108 94.79196411 -1733.60437439 94.78668701 -1732.8046875 94.78125 C-1731.97977814 94.7666272 -1731.15486877 94.75200439 -1730.30496216 94.73693848 C-1727.68252371 94.69076846 -1725.06015383 94.6564293 -1722.4375 94.625 C-1707.30347905 94.46576069 -1707.30347905 94.46576069 -1692.29956055 92.59985352 C-1684.75923005 91.29167915 -1677.06972385 91.13626337 -1669.43359375 91.01953125 C-1656.07881334 90.77061333 -1643.4669547 89.64418095 -1630.3581543 87.07226562 C-1621.34226298 85.34169604 -1612.3832096 84.21090492 -1603.25 83.375 C-1602.02506836 83.25979004 -1600.80013672 83.14458008 -1599.53808594 83.02587891 C-1595.54876548 82.67918671 -1591.55838158 82.38263789 -1587.5625 82.125 C-1586.79710907 82.07561279 -1586.03171814 82.02622559 -1585.24313354 81.9753418 C-1565.76190719 80.78941198 -1546.25673561 81.04453057 -1526.75 81.125 C-1520.92945475 81.14891812 -1515.10893843 81.169178 -1509.28835487 81.18093872 C-1507.00780269 81.18725134 -1504.72734587 81.19974028 -1502.44682312 81.21264648 C-1494.23154692 81.24121206 -1486.07052056 81.018608 -1477.8708601 80.4923172 C-1469.72971974 79.97176755 -1461.59289547 79.92690051 -1453.4375 79.9375 C-1452.63944946 79.93777191 -1451.84139893 79.93804382 -1451.01916504 79.93832397 C-1434.05397845 79.9647199 -1417.30413328 80.62124241 -1400.640625 84.01660156 C-1391.61697429 85.70426351 -1382.37218651 85.94088968 -1373.21875 86.390625 C-1367.08406241 86.70938818 -1361.09997386 87.12593091 -1355.04296875 88.171875 C-1347.72688037 89.38747295 -1340.52585914 89.38187164 -1333.125 89.3125 C-1331.17110352 89.3115332 -1331.17110352 89.3115332 -1329.17773438 89.31054688 C-1323.05736365 89.28312859 -1317.04529813 89.09809158 -1310.94335938 88.62280273 C-1303.87775594 88.10049285 -1296.85989653 87.98047861 -1289.77734375 87.9921875 C-1287.85875801 87.9898687 -1287.85875801 87.9898687 -1285.90141296 87.98750305 C-1281.7675856 87.98366221 -1277.63381665 87.99107891 -1273.5 88 C-1272.06654867 88.00257467 -1270.63309733 88.00514831 -1269.199646 88.00772095 C-1260.62391183 88.02481703 -1252.04834377 88.05983962 -1243.47271729 88.10540771 C-1239.88985172 88.12335979 -1236.30701322 88.13591659 -1232.72412109 88.14697266 C-1212.50674374 88.22619359 -1192.81329955 88.85814319 -1172.84985352 92.18847656 C-1163.11841719 93.80991358 -1153.46298963 94.84394728 -1143.625 95.5625 C-1128.4907982 96.68466679 -1113.44284467 98.3224623 -1098.375 100.125 C-1097.32265167 100.25083466 -1096.27030334 100.37666931 -1095.18606567 100.50631714 C-1085.81411399 101.63015233 -1076.44361201 102.76535818 -1067.0769043 103.93212891 C-1055.71103392 105.33796762 -1044.37638619 106.56579031 -1032.95071411 107.34768677 C-1016.00819372 108.52029253 -999.16041652 110.30517591 -982.29956055 112.32373047 C-959.44963712 115.04886478 -936.60823194 116.63842585 -913.625 117.75 C-912.27222562 117.81633813 -910.9194526 117.88270391 -909.56668091 117.94909668 C-877.17426282 119.79270112 -877.17426282 119.79270112 -844.796875 118.63671875 C-837.91695056 118.01121985 -831.03820917 117.88262945 -824.13595581 117.73657227 C-813.38676919 117.50326963 -802.7051765 117.17766929 -792 116.125 C-783.50464333 115.29283513 -775.07032805 115.02248348 -766.5390625 114.9140625 C-764.90189018 114.89143341 -764.90189018 114.89143341 -763.23164368 114.86834717 C-757.70490669 114.79564183 -752.17928592 114.74646046 -746.65209961 114.73046875 C-735.46310325 114.64226051 -725.2006435 113.84088104 -714.34985352 111.06933594 C-709.65294003 109.89821099 -705.06625846 109.30083886 -700.25 108.9375 C-699.38955078 108.86273437 -698.52910156 108.78796875 -697.64257812 108.7109375 C-690.47528244 108.1184272 -683.29277372 107.76170768 -676.10424805 107.55395508 C-671.49987068 107.39162275 -667.09293321 106.91120678 -662.55126953 106.12280273 C-655.87058565 105.0755531 -649.36951325 104.82866142 -642.6171875 104.81640625 C-640.14843343 104.79340157 -637.67968351 104.76994738 -635.2109375 104.74609375 C-633.30393066 104.73231689 -633.30393066 104.73231689 -631.35839844 104.71826172 C-612.72066449 104.5720379 -594.13057739 104.34305277 -575.5625 102.625 C-574.84157166 102.55910675 -574.12064331 102.4932135 -573.37786865 102.42532349 C-565.8586632 101.84095882 -565.8586632 101.84095882 -558.5625 100.125 C-556.94188905 100.01661759 -555.31743134 99.96169975 -553.69335938 99.93896484 C-552.69863617 99.92128555 -551.70391296 99.90360626 -550.67904663 99.88539124 C-549.59902374 99.8690715 -548.51900085 99.85275177 -547.40625 99.8359375 C-513.61284284 99.32628896 -513.61284284 99.32628896 -480.80078125 92.10253906 C-474.88566414 90.3169443 -468.8461085 89.06120645 -462.80755615 87.76742554 C-460.77124669 87.33047052 -458.73732318 86.8836901 -456.70361328 86.43481445 C-449.8256592 84.94188091 -442.96879012 83.69192942 -436.00634766 82.67260742 C-429.80572293 81.68664391 -423.66417141 80.39317654 -417.51022339 79.15341187 C-401.31061565 75.903955 -385.15573383 73.14180498 -368.68359375 71.68359375 C-357.42234505 70.66894247 -346.78323582 68.51166904 -335.83203125 65.70361328 C-332.95928536 64.97121141 -330.07649019 64.290228 -327.1875 63.625 C-326.1871875 63.39167969 -325.186875 63.15835938 -324.15625 62.91796875 C-321.26475618 62.27995435 -318.37330576 61.68668791 -315.46875 61.11328125 C-300.48949799 58.09911628 -286.2610145 53.74917481 -272.04931641 48.1315918 C-263.71416673 44.91530267 -255.1406205 42.97358986 -246.4375 41.0625 C-245.25362701 40.79862488 -245.25362701 40.79862488 -244.0458374 40.52941895 C-233.96523591 38.29324441 -223.96871856 36.44969462 -213.6875 35.375 C-201.76369322 34.1259926 -191.48884695 31.3269014 -180.37084961 26.83300781 C-169.16828421 22.31582962 -158.47958064 19.05585593 -146.5625 17.125 C-145.82660645 16.99963867 -145.09071289 16.87427734 -144.33251953 16.74511719 C-121.57246793 12.89624676 -98.51184668 10.33135546 -75.48583984 8.84350586 C-68.76297668 8.37917467 -62.56289603 7.48663893 -56.0234375 5.84765625 C-50.64924068 4.72550454 -45.21736149 4.30362167 -39.75024414 3.859375 C-35.75582268 3.51850055 -31.92610389 3.04436366 -28.01953125 2.12890625 C-18.71794964 -0.0412612 -9.52230843 -0.02895786 0 0 Z " fill="#709274" transform="translate(1769.5625,738.875)"/>
<path d="M0 0 C1.54965454 -0.02719116 1.54965454 -0.02719116 3.13061523 -0.05493164 C9.69582263 -0.00347934 15.12142306 1.19797331 21.26953125 3.49609375 C24.19228103 4.54664857 27.10139415 5.2973564 30.125 6 C34.85512391 7.13986233 39.3020825 8.62204057 43.84765625 10.34375 C47.88223192 11.7948246 51.9663529 13.04807852 56.0625 14.3125 C92.09431539 25.53181539 92.09431539 25.53181539 97.0625 30.5 C97.15914967 32.44894959 97.18437121 34.40145455 97.18275452 36.35279846 C97.18412918 37.62471039 97.18550385 38.89662231 97.18692017 40.20707703 C97.18338055 41.62966942 97.17974573 43.05226158 97.17602539 44.47485352 C97.17574353 45.96266681 97.17590124 47.45048024 97.1764679 48.93829346 C97.1767559 52.98977 97.17085867 57.0412172 97.16389394 61.09268689 C97.15766092 65.32211997 97.15705664 69.55155364 97.15586853 73.7809906 C97.15275506 81.79559722 97.14454146 89.81019027 97.13451904 97.82479089 C97.12335839 106.94676684 97.11784758 116.06874342 97.11282361 125.19072449 C97.10235886 143.9604907 97.08475912 162.73024426 97.0625 181.5 C95.81847412 181.36118408 94.57444824 181.22236816 93.29272461 181.0793457 C92.59296005 181.00126175 91.8931955 180.9231778 91.17222595 180.84272766 C87.80675013 180.29600184 84.75376786 178.98828664 81.625 177.6875 C73.27071951 174.39791567 64.86145452 172.2343566 56.0625 170.5 C54.98355469 170.28472656 53.90460938 170.06945312 52.79296875 169.84765625 C44.09527388 168.37837857 35.38175039 168.17221124 26.58007812 167.89379883 C17.05754988 167.58183994 7.5782928 166.94877156 -1.92138672 166.23266602 C-9.57876903 165.65811958 -17.23214611 165.17304342 -24.90405273 164.84179688 C-28.16252543 164.69189413 -31.33905127 164.44300563 -34.5703125 163.984375 C-40.70339504 163.17348187 -46.88730543 163.31567654 -53.0625 163.3125 C-54.29226563 163.30025391 -55.52203125 163.28800781 -56.7890625 163.27539062 C-65.34596548 163.26190811 -73.50094352 164.1214382 -81.9375 165.5 C-83.33367704 165.69450785 -84.73065755 165.88349106 -86.12890625 166.0625 C-99.18704646 167.6500864 -99.18704646 167.6500864 -112.12426758 169.97705078 C-118.74922283 171.41458474 -125.2407587 171.97659457 -132 172.375 C-148.06290668 173.46446284 -163.99574985 175.29397628 -179.9375 177.5 C-181.07617523 177.65662109 -181.07617523 177.65662109 -182.237854 177.81640625 C-201.30356911 180.45940525 -219.30831713 183.37404852 -236.9375 191.5 C-248.38043395 196.65368781 -260.18328102 198.51753689 -272.5625 199.8125 C-295.59228327 202.33318161 -316.96267384 208.13961585 -338.61328125 216.203125 C-351.20361899 220.86077871 -364.04133834 223.61388578 -377.22631836 225.97753906 C-384.23659173 227.26837337 -390.91675884 229.13696591 -397.6875 231.3515625 C-406.61971711 233.99062665 -416.03495624 234.65929149 -425.27490234 235.4375 C-440.7941425 236.76163194 -455.65494474 239.42886884 -470.86962891 242.82617188 C-474.89967317 243.711332 -478.94232648 244.50320137 -483 245.25 C-484.08410156 245.45109375 -485.16820312 245.6521875 -486.28515625 245.859375 C-488.31445247 246.21531573 -490.34505161 246.56465258 -492.37988281 246.88745117 C-501.00505286 248.26762735 -509.54318616 249.99788779 -518.08935547 251.79418945 C-520.53622148 252.30699267 -522.98481563 252.81087177 -525.43359375 253.31445312 C-527.05236778 253.65228573 -528.67085797 253.99148124 -530.2890625 254.33203125 C-531.09993317 254.50176956 -531.91080383 254.67150787 -532.74624634 254.84638977 C-536.62665779 255.68462164 -540.41985295 256.60773555 -544.19677734 257.8347168 C-557.78403545 262.22052713 -571.11554212 262.42886654 -585.3125 262.6875 C-588.9201342 262.76862213 -592.52742027 262.85637808 -596.13467407 262.95295715 C-598.35837218 263.01095291 -600.58234359 263.05960054 -602.80648804 263.09672546 C-609.00200374 263.2406972 -614.87188344 263.90118284 -620.96783447 265.00166321 C-625.8857086 265.82692706 -630.82313515 266.22155152 -635.79296875 266.59375 C-636.90270554 266.67774048 -638.01244232 266.76173096 -639.1558075 266.8482666 C-654.1446038 267.89547554 -669.15885928 267.91037183 -684.17749023 268.03173828 C-688.01037357 268.06568511 -691.84302136 268.11066619 -695.67578125 268.15625 C-696.8176741 268.1615271 -697.95956696 268.1668042 -699.13606262 268.17224121 C-705.91194843 268.25514913 -712.38123396 268.88055245 -719.05949402 270.04101562 C-723.34568265 270.72457696 -727.60540845 270.87480002 -731.9375 271 C-739.18103458 271.29158435 -746.40227393 271.68490732 -753.625 272.3125 C-754.39392578 272.37050781 -755.16285156 272.42851563 -755.95507812 272.48828125 C-760.71549393 272.927825 -765.19331905 273.79772293 -769.82797241 274.98152161 C-780.97475734 277.76273712 -791.78273751 278.08161549 -803.23361206 278.11474609 C-808.7942359 278.13220211 -814.35399252 278.21221089 -819.9140625 278.2890625 C-820.98702072 278.30269836 -822.05997894 278.31633423 -823.16545105 278.3303833 C-831.52841303 278.4524137 -839.77390799 278.9492293 -848.09863281 279.76782227 C-858.61562639 280.75926996 -869.15843724 280.93482631 -879.71459961 281.15820312 C-886.86115803 281.31517815 -893.94550389 281.62724405 -901.06762695 282.27514648 C-952.95354701 286.34038956 -1007.26103377 279.33412062 -1058.75646973 273.18289185 C-1070.42347307 271.7930127 -1082.09367596 270.83291591 -1093.8125 270 C-1106.08087354 269.124453 -1118.19651506 267.92992865 -1130.36987305 266.12548828 C-1141.92551895 264.43527618 -1153.51547326 263.13465377 -1165.125 261.875 C-1166.63472885 261.71067474 -1166.63472885 261.71067474 -1168.17495728 261.54302979 C-1180.33641577 260.22664075 -1192.47418253 259.08343502 -1204.68310547 258.31030273 C-1211.02115868 257.86112093 -1217.21556103 257.01896072 -1223.48248291 255.97322083 C-1245.49269891 252.30567054 -1267.11127095 251.58056522 -1289.40228271 251.51177979 C-1292.56499034 251.50124125 -1295.72764767 251.4863594 -1298.89032745 251.46955395 C-1307.50420928 251.42386496 -1316.11805921 251.39430867 -1324.73204803 251.37884903 C-1326.15400998 251.37629499 -1327.5759715 251.37348725 -1328.99793243 251.37041855 C-1333.71610472 251.36063265 -1338.43416411 251.36148511 -1343.15234375 251.3671875 C-1344.92959587 251.36424934 -1344.92959587 251.36424934 -1346.74275208 251.36125183 C-1353.80485823 251.38042916 -1360.78454485 251.7225488 -1367.82493591 252.27093506 C-1374.04697842 252.72883786 -1380.26295655 252.68441388 -1386.5 252.6875 C-1388.45969727 252.70586914 -1388.45969727 252.70586914 -1390.45898438 252.72460938 C-1397.68728044 252.735414 -1404.48607794 252.22584718 -1411.60327148 250.99682617 C-1417.24739496 250.15580755 -1422.92599584 249.94583257 -1428.62109375 249.66601562 C-1447.49310487 248.72063133 -1447.49310487 248.72063133 -1455.9375 247 C-1472.74416331 243.67579049 -1489.73231654 243.31831956 -1506.8125 243.3125 C-1507.96316956 243.31100449 -1507.96316956 243.31100449 -1509.13708496 243.30947876 C-1517.24985151 243.31067328 -1525.31923539 243.48691997 -1533.41577148 244.0065918 C-1541.62752281 244.49440255 -1549.80296282 244.62170913 -1558.02733421 244.57516479 C-1560.38324756 244.56199535 -1562.73910236 244.55578567 -1565.095047 244.55102539 C-1570.9434822 244.53789575 -1576.79186043 244.51374991 -1582.64025879 244.48962402 C-1611.80334752 244.32890843 -1611.80334752 244.32890843 -1640.9375 245.5 C-1642.02649094 245.57021362 -1642.02649094 245.57021362 -1643.13748169 245.6418457 C-1647.64014166 245.94506483 -1652.13212003 246.32742579 -1656.625 246.75 C-1657.28939087 246.8108075 -1657.95378174 246.87161499 -1658.63830566 246.93426514 C-1668.27348766 247.8290215 -1677.68504522 249.26115504 -1687.1875 251.125 C-1698.89842802 253.41251134 -1710.26457125 254.09587263 -1722.17578125 254.32421875 C-1728.79054246 254.45653301 -1735.34911364 254.91003446 -1741.9375 255.5 C-1742.89309814 255.58338623 -1743.84869629 255.66677246 -1744.83325195 255.75268555 C-1749.37728499 256.12487223 -1749.37728499 256.12487223 -1753.83578491 257.00970459 C-1757.25666287 257.80773891 -1760.73137553 257.63599808 -1764.2265625 257.640625 C-1765.90886729 257.65899136 -1767.59115924 257.67856504 -1769.2734375 257.69921875 C-1771.89474658 257.72782719 -1774.51524493 257.74999104 -1777.13671875 257.75048828 C-1791.05740478 257.76914157 -1803.09501613 259.99041436 -1816.19384766 264.66113281 C-1818.9375 265.5 -1818.9375 265.5 -1822.9375 265.5 C-1822.9375 233.82 -1822.9375 202.14 -1822.9375 169.5 C-1786.01086299 152.715165 -1748.61372909 136.5820277 -1709.30908203 126.14160156 C-1706.76858364 125.45430181 -1704.24164041 124.72821997 -1701.71484375 123.9921875 C-1700.82152344 123.73236084 -1699.92820312 123.47253418 -1699.0078125 123.20483398 C-1697.36798531 122.72690586 -1695.72858381 122.24751165 -1694.08984375 121.76586914 C-1622.74215279 101.18651953 -1538.54437995 88.37914143 -1465.8046875 108.71679688 C-1462.31963171 109.66877737 -1458.81738182 110.54661761 -1455.3125 111.421875 C-1453.24406415 111.94180298 -1451.17589218 112.4627649 -1449.10784912 112.98425293 C-1447.14125658 113.48014105 -1445.17439359 113.97495622 -1443.20751953 114.46972656 C-1436.85693022 116.10332397 -1430.65524582 117.90373243 -1424.46484375 120.0703125 C-1417.53578455 122.4274171 -1410.66602529 123.87906908 -1403.44769287 125.04104614 C-1400.53401362 125.51050037 -1397.62527296 126.00801635 -1394.71582031 126.50288391 C-1393.17145349 126.76521491 -1391.62685381 127.02617859 -1390.08203125 127.28581238 C-1381.14285229 128.79017491 -1372.22685268 130.41824 -1363.3125 132.0625 C-1362.50583893 132.21102417 -1361.69917786 132.35954834 -1360.86807251 132.51257324 C-1348.45609578 134.80203534 -1336.08732565 137.25155356 -1323.74707031 139.90283203 C-1320.73792093 140.54242009 -1317.72512034 141.16192868 -1314.7109375 141.77734375 C-1303.37929581 144.09356258 -1292.11023264 146.49674457 -1280.9375 149.5 C-1280.13248047 149.71237305 -1279.32746094 149.92474609 -1278.49804688 150.14355469 C-1266.96387072 153.20637525 -1256.01281785 156.86483845 -1245.06298828 161.59570312 C-1218.00198196 173.10890866 -1191.83093854 178.11962091 -1162.578125 179.88671875 C-1149.36078092 180.72690951 -1136.74290187 182.47838228 -1123.796875 185.26953125 C-1117.69089014 186.58437462 -1111.5615439 187.56239598 -1105.38476562 188.47412109 C-1101.01691112 189.13117389 -1096.78967099 189.99008225 -1092.5 191.0625 C-1084.40840972 192.88381927 -1076.20271937 193.26763552 -1067.93969727 193.76586914 C-1062.82938471 194.07519771 -1057.73708846 194.38464863 -1052.65307617 194.99682617 C-1038.59481057 196.66468491 -1024.64270035 196.7730476 -1010.49584961 196.70581055 C-1007.12707518 196.6903735 -1003.75863356 196.68500536 -1000.38984776 196.68575573 C-997.13618587 196.68541879 -993.88255519 196.67659739 -990.62890625 196.66796875 C-988.82589806 196.66629951 -988.82589806 196.66629951 -986.98646545 196.66459656 C-985.87017258 196.65821671 -984.7538797 196.65183685 -983.60375977 196.64526367 C-982.62705826 196.64145187 -981.65035675 196.63764008 -980.64405823 196.63371277 C-977.97802426 196.50200203 -975.54226765 196.06090211 -972.9375 195.5 C-971.39319118 195.47921567 -969.84770619 195.50386672 -968.3046875 195.5703125 C-948.03323403 195.93067738 -935.10852461 186.99196686 -920.47363281 173.86621094 C-909.75889816 164.33670441 -898.00074106 157.13157528 -885.5793457 150.02368164 C-879.5530081 146.54799797 -873.58794555 142.97189687 -867.75 139.1875 C-864.62973101 137.17214213 -861.49276716 135.22998283 -858.2578125 133.40625 C-852.10293029 129.90786573 -846.71911759 126.63931247 -841.8125 121.4375 C-832.09405421 111.21664667 -819.52501872 106.32675586 -806.75805664 100.88720703 C-800.59958868 98.24311831 -794.91188258 95.37365734 -789.22729492 91.83007812 C-785.78238802 89.82902761 -782.21337656 88.5437641 -778.4375 87.3125 C-777.41462891 86.96155273 -777.41462891 86.96155273 -776.37109375 86.60351562 C-763.57007652 82.26074062 -750.50056848 79.07354214 -737.37524414 75.88427734 C-734.98037642 75.30011606 -732.58678512 74.71069393 -730.19458008 74.11572266 C-717.03897273 70.84434282 -704.03866167 67.90598136 -690.5460968 66.4387207 C-681.38885978 65.44022929 -672.75629993 63.08612661 -663.9375 60.5 C-661.39543716 59.76899488 -658.85238085 59.04151109 -656.30932617 58.31396484 C-654.55619447 57.81148422 -652.80375392 57.30658613 -651.05200195 56.79931641 C-644.56414619 54.92968242 -638.0431131 53.22685504 -631.5 51.5625 C-623.82460775 49.60373318 -616.27864071 47.39978488 -608.75 44.9375 C-598.58866447 41.61723507 -588.34248676 38.93502471 -577.9375 36.5 C-576.99902222 36.277677 -576.06054443 36.055354 -575.09362793 35.82629395 C-549.92825896 29.92423143 -526.45816994 27.80400215 -500.72241211 28.21496582 C-495.21116761 28.29721892 -489.69941208 28.3369882 -484.1877594 28.38165283 C-481.28022447 28.40528431 -478.37320602 28.44007676 -475.46592712 28.48504639 C-468.30969497 28.58154171 -461.2683511 28.38465719 -454.13734436 27.76022339 C-448.43310256 27.29633297 -442.71915476 27.12921372 -437 26.94921875 C-436.34743225 26.92840429 -435.6948645 26.90758984 -435.02252197 26.88614464 C-418.9569777 26.38478681 -402.89111937 26.31259162 -386.81884766 26.31469727 C-383.55023746 26.31477915 -380.2817656 26.30771172 -377.01318359 26.29418945 C-359.2958697 26.22207271 -341.78509378 26.33469089 -324.14868164 28.26699829 C-321.06724928 28.59170206 -317.98158845 28.81480525 -314.890625 29.02734375 C-298.47183022 30.19655676 -282.68183931 32.39575916 -266.625 36 C-234.00253493 43.23559614 -196.277915 46.05727153 -164.11328125 35.375 C-159.96550092 34.23219214 -155.97923694 33.972475 -151.69140625 33.87109375 C-148.31990658 33.41677819 -145.96643964 32.02600131 -142.9375 30.5 C-140.68036111 30.01459379 -138.40672165 29.60219518 -136.125 29.25 C-124.47731754 27.19719663 -113.55333136 22.17553641 -103.2109375 16.54296875 C-95.8139001 13.14948252 -87.86873467 12.60999333 -79.875 11.625 C-70.25244821 10.4019029 -60.67020305 9.05383831 -51.125 7.3125 C-50.20130615 7.14572754 -49.2776123 6.97895508 -48.32592773 6.80712891 C-44.30326771 6.37214296 -44.30326771 6.37214296 -40.9375 4.5 C-27.54045461 1.5450563 -13.70185248 0.10554578 0 0 Z " fill="#95CC9D" transform="translate(1822.9375,576.5)"/>
<path d="M0 0 C1.25665466 0.16820755 1.25665466 0.16820755 2.53869629 0.33981323 C3.76683044 0.50427444 3.76683044 0.50427444 5.01977539 0.67205811 C10.82463677 1.43282935 16.58168045 1.92294155 22.43713379 2.06637573 C34.50273146 2.36726992 46.45578874 3.91755991 58.43986511 5.26065063 C59.2252919 5.34864929 60.01071869 5.43664795 60.81994629 5.52731323 C61.59679276 5.61450623 62.37363922 5.70169922 63.17402649 5.79153442 C69.27559137 6.47108516 75.3821354 7.0490494 81.49963379 7.56637573 C89.7069513 8.26777628 97.85439674 9.25964222 106.01965332 10.34152222 C111.56814087 11.0556452 117.09941475 11.63976945 122.67932129 12.04684448 C145.34472175 13.73197157 167.51426297 17.4941366 189.88635254 21.44528198 C202.64570377 23.69341881 215.07834665 25.69224415 228.06213379 25.94137573 C238.68331752 26.25381025 248.44150205 27.54921283 258.77575684 29.99899292 C264.32420981 31.2811297 269.85113357 32.16875204 275.49963379 32.87887573 C276.46393311 33.00335083 277.42823242 33.12782593 278.42175293 33.256073 C284.72469436 34.05324261 291.0344267 34.76869556 297.35119629 35.44528198 C321.94479566 38.08128484 346.04571915 41.84860727 370.28723145 46.81100464 C376.52096593 48.08138655 382.76081088 49.32127363 388.99963379 50.56637573 C391.54261608 51.07542267 394.08558515 51.58453566 396.62854004 52.09371948 C400.88533666 52.94530666 405.14286842 53.79283967 409.40197754 54.63278198 C417.47132951 56.22651142 425.52755089 57.86730903 433.56213379 59.62887573 C434.29399902 59.78759155 435.02586426 59.94630737 435.77990723 60.10983276 C439.84913659 61.01526962 443.74083567 62.17226967 447.68713379 63.50387573 C449.63791389 63.97391049 451.59733032 64.40891649 453.56213379 64.81637573 C454.78287598 65.07418823 456.00361816 65.33200073 457.26135254 65.59762573 C460.59297637 66.28708785 463.93022533 66.94458745 467.26916504 67.59762573 C479.3010198 69.98193958 490.84288829 72.93402386 502.47961426 76.78952026 C513.75705271 80.43891032 525.32909172 83.21894155 536.81213379 86.12887573 C538.50874146 86.56284668 538.50874146 86.56284668 540.23962402 87.00558472 C554.85636803 90.66687031 569.11427868 92.89790473 584.10198975 94.09667969 C599.60307574 95.35326503 614.96108868 97.06776269 630.31213379 99.56637573 C631.0736676 99.69025665 631.83520142 99.81413757 632.61981201 99.94177246 C639.61968546 101.0899467 646.60574406 102.30648414 653.58509827 103.57331848 C666.13748235 105.83616678 678.74758704 107.71017121 691.37463379 109.50387573 C692.62703857 109.6819577 693.87944336 109.86003967 695.1697998 110.04351807 C716.123757 112.97893268 737.00109168 114.73577522 758.14294434 115.58004761 C760.22020533 115.66457136 762.29743578 115.74984934 764.37463379 115.83590698 C765.39623093 115.87766556 766.41782806 115.91942413 767.47038269 115.96244812 C774.71133461 116.30110238 781.82306853 117.09396912 789.00744629 118.03512573 C804.66847277 120.01959475 820.32636468 120.07224904 836.08628845 120.17403793 C839.45636539 120.19763784 842.82632805 120.23066062 846.19632721 120.26334095 C856.80635827 120.36545292 867.41645502 120.4317652 878.02680969 120.48898315 C880.66990053 120.50377926 883.31297681 120.52013418 885.95605469 120.53707886 C896.98257916 120.60756794 908.00896818 120.65660018 919.03568268 120.68420792 C921.38840958 120.6912303 923.74110066 120.70151139 926.09381104 120.71270752 C946.30596231 120.80206619 966.36183298 120.16643798 986.52679443 118.78631592 C990.65994292 118.50359978 994.7941581 118.23999124 998.92883301 117.98068237 C1005.55980246 117.56361373 1012.1899032 117.13429051 1018.81970215 116.69894409 C1022.16279953 116.47983695 1025.50602326 116.26289279 1028.84932804 116.04698849 C1032.11960334 115.83525223 1035.38968458 115.62056033 1038.65979004 115.40621948 C1039.84097916 115.33015976 1041.02216827 115.25410004 1042.239151 115.17573547 C1047.72391712 114.81257393 1053.17285383 114.36466903 1058.6315155 113.72160339 C1062.05746718 113.3587323 1065.48834765 113.21759307 1068.92932129 113.07418823 C1070.50876426 113.00030842 1072.08819081 112.92607678 1073.66760254 112.85153198 C1076.08136452 112.74043833 1078.49513558 112.63170507 1080.90930176 112.52975464 C1091.23257628 112.08748269 1101.43289733 111.24058431 1111.69494629 110.02340698 C1126.83671285 108.24251543 1141.98094626 107.54452722 1157.2076416 106.9225769 C1184.38211807 105.78559319 1210.35973385 102.01455995 1236.45666504 94.38668823 C1242.89193066 92.62807876 1249.01306406 91.50387573 1255.68713379 91.50387573 C1255.68713379 124.17387573 1255.68713379 156.84387573 1255.68713379 190.50387573 C622.08713379 190.50387573 -11.51286621 190.50387573 -664.31286621 190.50387573 C-664.31286621 168.06387573 -664.31286621 145.62387573 -664.31286621 122.50387573 C-614.10049704 103.57460958 -614.10049704 103.57460958 -589.93786621 97.62887573 C-570.27186263 92.75872015 -551.42830863 84.72413711 -532.57019043 77.42160034 C-504.34928051 66.5442122 -476.00331372 56.65162923 -446.70300293 49.07467651 C-440.42952213 47.43265149 -434.30760624 45.5194425 -428.16969299 43.42767334 C-420.78889561 40.94304616 -413.2841086 38.96471717 -405.75036621 37.00387573 C-405.00764465 36.80933807 -404.2649231 36.61480042 -403.49969482 36.41436768 C-385.80109671 31.78226647 -368.10813714 27.77966069 -350.1005249 24.52410889 C-337.44201275 22.22562505 -324.9071327 19.44585912 -312.35720825 16.61987305 C-293.7334656 12.43082919 -275.30854412 8.56935692 -256.31286621 6.50387573 C-254.92300467 6.33983227 -253.53319732 6.17532936 -252.14343262 6.01046753 C-239.63320426 4.56594757 -227.14243418 3.92707742 -214.56286621 3.44137573 C-211.62392682 3.32504675 -208.68509597 3.20688317 -205.74639893 3.08457947 C-203.94011038 3.00964804 -202.13367445 2.93815568 -200.3270874 2.87080383 C-195.58671204 2.67685819 -191.01333496 2.17583591 -186.31286621 1.50387573 C-182.9511843 1.25577123 -179.58675879 1.11071891 -176.21911621 0.96871948 C-175.24701202 0.92560638 -174.27490784 0.88249329 -173.27334595 0.83807373 C-170.12004518 0.70074484 -166.96652813 0.57013132 -163.81286621 0.44137573 C-162.20033966 0.37459122 -162.20033966 0.37459122 -160.55523682 0.30645752 C-117.57488533 -1.4499915 -117.57488533 -1.4499915 -100.07434082 0.06930542 C-92.31984244 0.73921752 -85.53045469 -0.00443976 -77.87536621 -1.43362427 C-51.81788561 -6.1181829 -26.02679754 -3.48668138 0 0 Z " fill="#45854E" transform="translate(664.3128662109375,889.4961242675781)"/>
<path d="M0 0 C1.1034375 -0.02900391 2.206875 -0.05800781 3.34375 -0.08789062 C10.31640712 -0.14108578 15.9736036 0.82269695 22.4987793 3.30200195 C25.40613623 4.3698474 28.29699628 5.11363889 31.3125 5.8125 C36.01644813 6.94605451 40.4409318 8.41557076 44.9609375 10.12890625 C52.30491644 12.77169202 59.7980076 14.99581843 67.25 17.3125 C67.25 17.6425 67.25 17.9725 67.25 18.3125 C60.95150156 17.89948371 55.91730254 16.58096144 50.046875 14.30078125 C45.86866279 12.8244018 41.61369692 12.03189472 37.25 11.3125 C37.25 10.6525 37.25 9.9925 37.25 9.3125 C36.09242187 9.04695312 34.93484375 8.78140625 33.7421875 8.5078125 C32.20309007 8.15119236 30.66402952 7.79441309 29.125 7.4375 C28.36445312 7.26347656 27.60390625 7.08945312 26.8203125 6.91015625 C25.69882813 6.64912109 25.69882813 6.64912109 24.5546875 6.3828125 C23.5335083 6.14715576 23.5335083 6.14715576 22.49169922 5.90673828 C20.25 5.3125 20.25 5.3125 17.55078125 4.2578125 C13.32655331 3.04803361 9.50129107 3.06233602 5.1328125 3.1171875 C3.8470784 3.12143234 3.8470784 3.12143234 2.53536987 3.12576294 C-0.18489932 3.13690001 -2.90483141 3.1619924 -5.625 3.1875 C-7.47655772 3.19753818 -9.32812064 3.20666256 -11.1796875 3.21484375 C-15.7032536 3.23681812 -20.22656977 3.271303 -24.75 3.3125 C-17.30540917 -0.70215961 -8.25213623 0.07130302 0 0 Z " fill="#84CDC4" transform="translate(1821.75,576.6875)"/>
<path d="M0 0 C-10.18293352 5.70244277 -21.72253667 5.14255221 -33 5 C-33 4.67 -33 4.34 -33 4 C-29.00170835 3.32281186 -25.00113468 2.66016492 -21 2 C-19.87464844 1.80921875 -18.74929688 1.6184375 -17.58984375 1.421875 C-11.642717 0.44807647 -6.02622377 -0.2363225 0 0 Z " fill="#85CDC2" transform="translate(1771,585)"/>
<path d="M0 0 C8.06480039 2.13337405 16.03946386 4.50679552 24 7 C24 7.33 24 7.66 24 8 C15.84374894 7.57812495 8.45255695 5.28608624 1 2 C0.67 1.34 0.34 0.68 0 0 Z " fill="#80CDCE" transform="translate(1865,587)"/>
<path d="M0 0 C0 0.33 0 0.66 0 1 C-5.94 1.495 -5.94 1.495 -12 2 C-12 2.66 -12 3.32 -12 4 C-16.67201205 5.20568053 -21.21496292 5.09382426 -26 5 C-26 4.67 -26 4.34 -26 4 C-25.28972656 3.86722656 -24.57945313 3.73445312 -23.84765625 3.59765625 C-22.92855469 3.42105469 -22.00945312 3.24445312 -21.0625 3.0625 C-19.68771484 2.80146484 -19.68771484 2.80146484 -18.28515625 2.53515625 C-16.04710156 2.22285012 -16.04710156 2.22285012 -15 1 C-9.9301448 0.06880211 -5.12881696 -0.08997924 0 0 Z " fill="#84CDC4" transform="translate(1797,580)"/>
<path d="M0 0 C1.73017508 0.45451184 3.45909877 0.91378857 5.1875 1.375 C6.15042969 1.63023437 7.11335938 1.88546875 8.10546875 2.1484375 C10.82210207 2.94766296 13.39137175 3.9031362 16 5 C16 5.33 16 5.66 16 6 C9.58076669 5.70887831 5.37899794 4.54784971 0 1 C0 0.67 0 0.34 0 0 Z " fill="#81CDCB" transform="translate(1890,595)"/>
</svg>
