<?xml version="1.0" encoding="UTF-8" standalone="no"?>
<svg
   version="1.1"
   width="300"
   height="224"
   id="svg119"
   sodipodi:docname="Swiggle girl and boy.svg"
   inkscape:version="1.3.2 (091e20e, 2023-11-25, custom)"
   xml:space="preserve"
   xmlns:inkscape="http://www.inkscape.org/namespaces/inkscape"
   xmlns:sodipodi="http://sodipodi.sourceforge.net/DTD/sodipodi-0.dtd"
   xmlns="http://www.w3.org/2000/svg"
   xmlns:svg="http://www.w3.org/2000/svg"><defs
     id="defs119" /><sodipodi:namedview
     id="namedview119"
     pagecolor="#ffffff"
     bordercolor="#000000"
     borderopacity="0.25"
     inkscape:showpageshadow="2"
     inkscape:pageopacity="0.0"
     inkscape:pagecheckerboard="0"
     inkscape:deskcolor="#d1d1d1"
     inkscape:zoom="4"
     inkscape:cx="164.25"
     inkscape:cy="97.875"
     inkscape:window-width="1920"
     inkscape:window-height="991"
     inkscape:window-x="-9"
     inkscape:window-y="-9"
     inkscape:window-maximized="1"
     inkscape:current-layer="svg119" />
     
     <style>
      .hair { fill: #c1a084; }
      .hairShade { fill: #431c58; }
      .trousers { fill: #646f75; }
      .outline { fill: #141414; }
      .shirt { fill: #af598a; }
      .skin { fill: #eaa979; }
      .shirtShade { fill: #7c4066; }
      .shoes { fill: #f0eeec; }
     </style>

     <path
     d="m 164,36 c 7.92,0 15.84,0 24,0 0,1.32 0,2.64 0,4 1.32,0 2.64,0 4,0 0,1.32 0,2.64 0,4 1.32,0 2.64,0 4,0 0,3.96 0,7.92 0,12 -1.32,0 -2.64,0 -4,0 0,5.28 0,10.56 0,16 1.32,0 2.64,0 4,0 0,2.64 0,5.28 0,8 -1.32,0 -2.64,0 -4,0 0,1.32 0,2.64 0,4 1.32,0 2.64,0 4,0 0,1.32 0,2.64 0,4 -1.32,0 -2.64,0 -4,0 0,1.32 0,2.64 0,4 -1.32,0 -2.64,0 -4,0 0,1.32 0,2.64 0,4 -2.64,0 -5.28,0 -8,0 0,-1.32 0,-2.64 0,-4 -2.64,0 -5.28,0 -8,0 0,1.32 0,2.64 0,4 -2.64,0 -5.28,0 -8,0 0,-1.32 0,-2.64 0,-4 -1.32,0 -2.64,0 -4,0 0,-1.32 0,-2.64 0,-4 -1.32,0 -2.64,0 -4,0 0,-1.32 0,-2.64 0,-4 -1.32,0 -2.64,0 -4,0 0,-1.32 0,-2.64 0,-4 -1.32,0 -2.64,0 -4,0 0,-3.96 0,-7.92 0,-12 1.32,0 2.64,0 4,0 0,-5.28 0,-10.56 0,-16 1.32,0 2.64,0 4,0 0,-2.64 0,-5.28 0,-8 1.32,0 2.64,0 4,0 0,-1.32 0,-2.64 0,-4 1.32,0 2.64,0 4,0 0,-1.32 0,-2.64 0,-4 z"
     fill="#c1a084"
     class="hair"
     style="fill:#c1a084;fill-opacity:1" /><path
     d="m 33,36 c 7.92,0 15.84,0 24,0 0,1.32 0,2.64 0,4 1.32,0 2.64,0 4,0 0,1.32 0,2.64 0,4 1.32,0 2.64,0 4,0 0,3.96 0,7.92 0,12 -1.32,0 -2.64,0 -4,0 0,5.28 0,10.56 0,16 1.32,0 2.64,0 4,0 0,2.64 0,5.28 0,8 -1.32,0 -2.64,0 -4,0 0,1.32 0,2.64 0,4 1.32,0 2.64,0 4,0 0,1.32 0,2.64 0,4 -1.32,0 -2.64,0 -4,0 0,1.32 0,2.64 0,4 -1.32,0 -2.64,0 -4,0 0,1.32 0,2.64 0,4 -2.64,0 -5.28,0 -8,0 0,-1.32 0,-2.64 0,-4 -2.64,0 -5.28,0 -8,0 0,1.32 0,2.64 0,4 -2.64,0 -5.28,0 -8,0 0,-1.32 0,-2.64 0,-4 -1.32,0 -2.64,0 -4,0 0,-1.32 0,-2.64 0,-4 -1.32,0 -2.64,0 -4,0 0,-1.32 0,-2.64 0,-4 -1.32,0 -2.64,0 -4,0 0,-1.32 0,-2.64 0,-4 -1.32,0 -2.64,0 -4,0 0,-3.96 0,-7.92 0,-12 1.32,0 2.64,0 4,0 0,-5.28 0,-10.56 0,-16 1.32,0 2.64,0 4,0 0,-2.64 0,-5.28 0,-8 1.32,0 2.64,0 4,0 0,-1.32 0,-2.64 0,-4 1.32,0 2.64,0 4,0 0,-1.32 0,-2.64 0,-4 z"
     fill="#c1a084"
     class="hair" /><path
     d="m 100,36 c 7.92,0 15.84,0 24,0 0,1.32 0,2.64 0,4 1.32,0 2.64,0 4,0 0,1.32 0,2.64 0,4 1.32,0 2.64,0 4,0 0,3.96 0,7.92 0,12 -1.32,0 -2.64,0 -4,0 0,5.28 0,10.56 0,16 -1.32,0 -2.64,0 -4,0 0,1.32 0,2.64 0,4 1.32,0 2.64,0 4,0 0,2.64 0,5.28 0,8 -1.32,0 -2.64,0 -4,0 0,1.32 0,2.64 0,4 -1.32,0 -2.64,0 -4,0 0,2.64 0,5.28 0,8 -5.28,0 -10.56,0 -16,0 0,-2.64 0,-5.28 0,-8 -1.32,0 -2.64,0 -4,0 0,-1.32 0,-2.64 0,-4 -3.96,0 -7.92,0 -12,0 0,-1.32 0,-2.64 0,-4 -1.32,0 -2.64,0 -4,0 0,-3.96 0,-7.92 0,-12 1.32,0 2.64,0 4,0 0,-5.28 0,-10.56 0,-16 1.32,0 2.64,0 4,0 0,-2.64 0,-5.28 0,-8 1.32,0 2.64,0 4,0 0,-1.32 0,-2.64 0,-4 1.32,0 2.64,0 4,0 0,-1.32 0,-2.64 0,-4 z"
     fill="#c1a084"
     class="hair" /><path
     d="m 164,128 c 7.92,0 15.84,0 24,0 0,1.32 0,2.64 0,4 1.32,0 2.64,0 4,0 0,1.32 0,2.64 0,4 1.32,0 2.64,0 4,0 0,3.96 0,7.92 0,12 -1.32,0 -2.64,0 -4,0 0,5.28 0,10.56 0,16 1.32,0 2.64,0 4,0 0,2.64 0,5.28 0,8 -1.32,0 -2.64,0 -4,0 0,1.32 0,2.64 0,4 1.32,0 2.64,0 4,0 0,1.32 0,2.64 0,4 -1.32,0 -2.64,0 -4,0 0,1.32 0,2.64 0,4 -1.32,0 -2.64,0 -4,0 0,1.32 0,2.64 0,4 -2.64,0 -5.28,0 -8,0 0,-1.32 0,-2.64 0,-4 -2.64,0 -5.28,0 -8,0 0,1.32 0,2.64 0,4 -2.64,0 -5.28,0 -8,0 0,-1.32 0,-2.64 0,-4 -1.32,0 -2.64,0 -4,0 0,-1.32 0,-2.64 0,-4 -1.32,0 -2.64,0 -4,0 0,-1.32 0,-2.64 0,-4 1.32,0 2.64,0 4,0 0,-3.96 0,-7.92 0,-12 1.32,0 2.64,0 4,0 0,-1.32 0,-2.64 0,-4 -1.32,0 -2.64,0 -4,0 0,-1.32 0,-2.64 0,-4 -1.32,0 -2.64,0 -4,0 0,-6.6 0,-13.2 0,-20 1.32,0 2.64,0 4,0 0,-1.32 0,-2.64 0,-4 1.32,0 2.64,0 4,0 0,-1.32 0,-2.64 0,-4 z"
     fill="#bd9a7e"
     class="hair" /><path
     d="m 33,128 c 7.92,0 15.84,0 24,0 0,1.32 0,2.64 0,4 1.32,0 2.64,0 4,0 0,1.32 0,2.64 0,4 1.32,0 2.64,0 4,0 0,3.96 0,7.92 0,12 -1.32,0 -2.64,0 -4,0 0,5.28 0,10.56 0,16 1.32,0 2.64,0 4,0 0,2.64 0,5.28 0,8 -1.32,0 -2.64,0 -4,0 0,1.32 0,2.64 0,4 1.32,0 2.64,0 4,0 0,1.32 0,2.64 0,4 -1.32,0 -2.64,0 -4,0 0,1.32 0,2.64 0,4 -1.32,0 -2.64,0 -4,0 0,1.32 0,2.64 0,4 -2.64,0 -5.28,0 -8,0 0,-1.32 0,-2.64 0,-4 -2.64,0 -5.28,0 -8,0 0,1.32 0,2.64 0,4 -2.64,0 -5.28,0 -8,0 0,-1.32 0,-2.64 0,-4 -1.32,0 -2.64,0 -4,0 0,-1.32 0,-2.64 0,-4 -1.32,0 -2.64,0 -4,0 0,-1.32 0,-2.64 0,-4 1.32,0 2.64,0 4,0 0,-3.96 0,-7.92 0,-12 1.32,0 2.64,0 4,0 0,-1.32 0,-2.64 0,-4 -1.32,0 -2.64,0 -4,0 0,-1.32 0,-2.64 0,-4 -1.32,0 -2.64,0 -4,0 0,-6.6 0,-13.2 0,-20 1.32,0 2.64,0 4,0 0,-1.32 0,-2.64 0,-4 1.32,0 2.64,0 4,0 0,-1.32 0,-2.64 0,-4 z"
     fill="#bd9a7e"
     class="hair" /><path
     d="m 100,128 c 7.92,0 15.84,0 24,0 0,1.32 0,2.64 0,4 1.32,0 2.64,0 4,0 0,1.32 0,2.64 0,4 1.32,0 2.64,0 4,0 0,3.96 0,7.92 0,12 -1.32,0 -2.64,0 -4,0 0,3.96 0,7.92 0,12 -1.32,0 -2.64,0 -4,0 0,2.64 0,5.28 0,8 1.32,0 2.64,0 4,0 0,2.64 0,5.28 0,8 -1.32,0 -2.64,0 -4,0 0,1.32 0,2.64 0,4 -1.32,0 -2.64,0 -4,0 0,2.64 0,5.28 0,8 -5.28,0 -10.56,0 -16,0 0,-2.64 0,-5.28 0,-8 -1.32,0 -2.64,0 -4,0 0,-1.32 0,-2.64 0,-4 -1.32,0 -2.64,0 -4,0 0,-3.96 0,-7.92 0,-12 1.32,0 2.64,0 4,0 0,-1.32 0,-2.64 0,-4 -1.32,0 -2.64,0 -4,0 0,-1.32 0,-2.64 0,-4 -1.32,0 -2.64,0 -4,0 0,-6.6 0,-13.2 0,-20 1.32,0 2.64,0 4,0 0,-1.32 0,-2.64 0,-4 1.32,0 2.64,0 4,0 0,-1.32 0,-2.64 0,-4 z"
     fill="#bd9a7e"
     class="hair" /><path
     d="m 188,56 c 1.32,0 2.64,0 4,0 0,5.28 0,10.56 0,16 1.32,0 2.64,0 4,0 0,2.64 0,5.28 0,8 -1.32,0 -2.64,0 -4,0 0,1.32 0,2.64 0,4 1.32,0 2.64,0 4,0 0,1.32 0,2.64 0,4 -1.32,0 -2.64,0 -4,0 0,1.32 0,2.64 0,4 -1.32,0 -2.64,0 -4,0 0,1.32 0,2.64 0,4 -2.64,0 -5.28,0 -8,0 0,-1.32 0,-2.64 0,-4 -2.64,0 -5.28,0 -8,0 0,1.32 0,2.64 0,4 -2.64,0 -5.28,0 -8,0 0,-1.32 0,-2.64 0,-4 -1.32,0 -2.64,0 -4,0 0,-1.32 0,-2.64 0,-4 -1.32,0 -2.64,0 -4,0 0,-1.32 0,-2.64 0,-4 -1.32,0 -2.64,0 -4,0 0,-1.32 0,-2.64 0,-4 6.6,0 13.2,0 20,0 0,1.32 0,2.64 0,4 2.64,0 5.28,0 8,0 0,-1.32 0,-2.64 0,-4 2.64,0 5.28,0 8,0 0,-2.64 0,-5.28 0,-8 -1.32,0 -2.64,0 -4,0 0,-1.32 0,-2.64 0,-4 1.32,0 2.64,0 4,0 0,-3.96 0,-7.92 0,-12 z"
     fill="#646f75"
     class="trousers" /><path
     d="m 57,56 c 1.32,0 2.64,0 4,0 0,5.28 0,10.56 0,16 1.32,0 2.64,0 4,0 0,2.64 0,5.28 0,8 -1.32,0 -2.64,0 -4,0 0,1.32 0,2.64 0,4 1.32,0 2.64,0 4,0 0,1.32 0,2.64 0,4 -1.32,0 -2.64,0 -4,0 0,1.32 0,2.64 0,4 -1.32,0 -2.64,0 -4,0 0,1.32 0,2.64 0,4 -2.64,0 -5.28,0 -8,0 0,-1.32 0,-2.64 0,-4 -2.64,0 -5.28,0 -8,0 0,1.32 0,2.64 0,4 -2.64,0 -5.28,0 -8,0 0,-1.32 0,-2.64 0,-4 -1.32,0 -2.64,0 -4,0 0,-1.32 0,-2.64 0,-4 -1.32,0 -2.64,0 -4,0 0,-1.32 0,-2.64 0,-4 -1.32,0 -2.64,0 -4,0 0,-1.32 0,-2.64 0,-4 6.6,0 13.2,0 20,0 0,1.32 0,2.64 0,4 2.64,0 5.28,0 8,0 0,-1.32 0,-2.64 0,-4 2.64,0 5.28,0 8,0 0,-2.64 0,-5.28 0,-8 -1.32,0 -2.64,0 -4,0 0,-1.32 0,-2.64 0,-4 1.32,0 2.64,0 4,0 0,-3.96 0,-7.92 0,-12 z"
     fill="#646f75"
     class="trousers" /><path
     d="m 188,148 c 1.32,0 2.64,0 4,0 0,5.28 0,10.56 0,16 1.32,0 2.64,0 4,0 0,2.64 0,5.28 0,8 -1.32,0 -2.64,0 -4,0 0,1.32 0,2.64 0,4 1.32,0 2.64,0 4,0 0,1.32 0,2.64 0,4 -1.32,0 -2.64,0 -4,0 0,1.32 0,2.64 0,4 -1.32,0 -2.64,0 -4,0 0,1.32 0,2.64 0,4 -2.64,0 -5.28,0 -8,0 0,-1.32 0,-2.64 0,-4 -2.64,0 -5.28,0 -8,0 0,1.32 0,2.64 0,4 -2.64,0 -5.28,0 -8,0 0,-1.32 0,-2.64 0,-4 -1.32,0 -2.64,0 -4,0 0,-1.32 0,-2.64 0,-4 -1.32,0 -2.64,0 -4,0 0,-1.32 0,-2.64 0,-4 1.32,0 2.64,0 4,0 0,-3.96 0,-7.92 0,-12 1.32,0 2.64,0 4,0 0,2.64 0,5.28 0,8 1.32,0 2.64,0 4,0 0,1.32 0,2.64 0,4 5.28,0 10.56,0 16,0 0,-1.32 0,-2.64 0,-4 1.32,0 2.64,0 4,0 0,-2.64 0,-5.28 0,-8 -1.32,0 -2.64,0 -4,0 0,-1.32 0,-2.64 0,-4 1.32,0 2.64,0 4,0 0,-3.96 0,-7.92 0,-12 z"
     fill="#6b6a6d"
     class="trousers"
     style="fill:#656e76;fill-opacity:1" /><path
     d="m 124,76 c 1.32,0 2.64,0 4,0 0,2.64 0,5.28 0,8 -1.32,0 -2.64,0 -4,0 0,1.32 0,2.64 0,4 -1.32,0 -2.64,0 -4,0 0,2.64 0,5.28 0,8 -5.28,0 -10.56,0 -16,0 0,-2.64 0,-5.28 0,-8 -1.32,0 -2.64,0 -4,0 0,-1.32 0,-2.64 0,-4 -3.96,0 -7.92,0 -12,0 0,-1.32 0,-2.64 0,-4 6.6,0 13.2,0 20,0 0,1.32 0,2.64 0,4 2.64,0 5.28,0 8,0 0,-1.32 0,-2.64 0,-4 2.64,0 5.28,0 8,0 0,-1.32 0,-2.64 0,-4 z"
     fill="#787d86"
     class="trousers" /><path
     d="m 120,56 c 1.32,0 2.64,0 4,0 0,3.96 0,7.92 0,12 -1.32,0 -2.64,0 -4,0 0,2.64 0,5.28 0,8 1.32,0 2.64,0 4,0 0,1.32 0,2.64 0,4 -2.64,0 -5.28,0 -8,0 0,1.32 0,2.64 0,4 -2.64,0 -5.28,0 -8,0 0,-1.32 0,-2.64 0,-4 -1.32,0 -2.64,0 -4,0 0,-2.64 0,-5.28 0,-8 1.32,0 2.64,0 4,0 0,-1.32 0,-2.64 0,-4 1.32,0 2.64,0 4,0 0,-2.64 0,-5.28 0,-8 1.32,0 2.64,0 4,0 0,1.32 0,2.64 0,4 1.32,0 2.64,0 4,0 0,-2.64 0,-5.28 0,-8 z"
     fill="#b55c89"
     class="shirt" /><path
     d="m 164,164 c 7.92,0 15.84,0 24,0 0,2.64 0,5.28 0,8 -1.32,0 -2.64,0 -4,0 0,1.32 0,2.64 0,4 -5.28,0 -10.56,0 -16,0 0,-1.32 0,-2.64 0,-4 -1.32,0 -2.64,0 -4,0 0,-2.64 0,-5.28 0,-8 z"
     fill="#8da4c9"
     class="shirt" /><path
     d="m 180,68 c 1.32,0 2.64,0 4,0 0,1.32 0,2.64 0,4 1.32,0 2.64,0 4,0 0,2.64 0,5.28 0,8 -2.64,0 -5.28,0 -8,0 0,1.32 0,2.64 0,4 -2.64,0 -5.28,0 -8,0 0,-1.32 0,-2.64 0,-4 -2.64,0 -5.28,0 -8,0 0,-2.64 0,-5.28 0,-8 5.28,0 10.56,0 16,0 0,-1.32 0,-2.64 0,-4 z"
     fill="#af598a"
     class="shirt" /><path
     d="m 176,148 c 1.32,0 2.64,0 4,0 0,2.64 0,5.28 0,8 1.32,0 2.64,0 4,0 0,-2.64 0,-5.28 0,-8 1.32,0 2.64,0 4,0 0,3.96 0,7.92 0,12 -1.32,0 -2.64,0 -4,0 0,1.32 0,2.64 0,4 -3.96,0 -7.92,0 -12,0 0,-1.32 0,-2.64 0,-4 -1.32,0 -2.64,0 -4,0 0,-1.32 0,-2.64 0,-4 1.32,0 2.64,0 4,0 0,-1.32 0,-2.64 0,-4 1.32,0 2.64,0 4,0 0,-1.32 0,-2.64 0,-4 z"
     fill="#eaa979"
     class="skin" /><path
     d="m 112,148 c 1.32,0 2.64,0 4,0 0,2.64 0,5.28 0,8 1.32,0 2.64,0 4,0 0,-2.64 0,-5.28 0,-8 1.32,0 2.64,0 4,0 0,3.96 0,7.92 0,12 -1.32,0 -2.64,0 -4,0 0,1.32 0,2.64 0,4 -3.96,0 -7.92,0 -12,0 0,-1.32 0,-2.64 0,-4 -1.32,0 -2.64,0 -4,0 0,-1.32 0,-2.64 0,-4 1.32,0 2.64,0 4,0 0,-1.32 0,-2.64 0,-4 1.32,0 2.64,0 4,0 0,-1.32 0,-2.64 0,-4 z"
     fill="#eaa979"
     class="skin" /><path
     d="m 45,148 c 1.32,0 2.64,0 4,0 0,2.64 0,5.28 0,8 1.32,0 2.64,0 4,0 0,-2.64 0,-5.28 0,-8 1.32,0 2.64,0 4,0 0,3.96 0,7.92 0,12 -1.32,0 -2.64,0 -4,0 0,1.32 0,2.64 0,4 -3.96,0 -7.92,0 -12,0 0,-1.32 0,-2.64 0,-4 -1.32,0 -2.64,0 -4,0 0,-1.32 0,-2.64 0,-4 1.32,0 2.64,0 4,0 0,-1.32 0,-2.64 0,-4 1.32,0 2.64,0 4,0 0,-1.32 0,-2.64 0,-4 z"
     fill="#eaa979"
     class="skin" /><path
     d="m 41,164 c 5.28,0 10.56,0 16,0 0,2.64 0,5.28 0,8 -1.32,0 -2.64,0 -4,0 0,1.32 0,2.64 0,4 -5.28,0 -10.56,0 -16,0 0,-1.32 0,-2.64 0,-4 1.32,0 2.64,0 4,0 0,-2.64 0,-5.28 0,-8 z"
     fill="#8da4c9"
     class="shirt"
     style="fill:#af5987;fill-opacity:1" /><path
     d="m 188,56 c 1.32,0 2.64,0 4,0 0,5.28 0,10.56 0,16 1.32,0 2.64,0 4,0 0,2.64 0,5.28 0,8 -1.32,0 -2.64,0 -4,0 0,1.32 0,2.64 0,4 -2.64,0 -5.28,0 -8,0 0,-1.32 0,-2.64 0,-4 1.32,0 2.64,0 4,0 0,-2.64 0,-5.28 0,-8 -1.32,0 -2.64,0 -4,0 0,-1.32 0,-2.64 0,-4 1.32,0 2.64,0 4,0 0,-3.96 0,-7.92 0,-12 z"
     fill="#e1936c"
     class="skin" /><path
     d="m 57,56 c 1.32,0 2.64,0 4,0 0,5.28 0,10.56 0,16 1.32,0 2.64,0 4,0 0,2.64 0,5.28 0,8 -1.32,0 -2.64,0 -4,0 0,1.32 0,2.64 0,4 -2.64,0 -5.28,0 -8,0 0,-1.32 0,-2.64 0,-4 1.32,0 2.64,0 4,0 0,-2.64 0,-5.28 0,-8 -1.32,0 -2.64,0 -4,0 0,-1.32 0,-2.64 0,-4 1.32,0 2.64,0 4,0 0,-3.96 0,-7.92 0,-12 z"
     fill="#e1936c"
     class="skin" /><path
     d="m 49,68 c 1.32,0 2.64,0 4,0 0,1.32 0,2.64 0,4 1.32,0 2.64,0 4,0 0,2.64 0,5.28 0,8 -2.64,0 -5.28,0 -8,0 0,1.32 0,2.64 0,4 -2.64,0 -5.28,0 -8,0 0,-3.96 0,-7.92 0,-12 2.64,0 5.28,0 8,0 0,-1.32 0,-2.64 0,-4 z"
     fill="#af5987"
     class="shirt" /><path
     d="m 184,56 c 1.32,0 2.64,0 4,0 0,3.96 0,7.92 0,12 -2.64,0 -5.28,0 -8,0 0,1.32 0,2.64 0,4 -2.64,0 -5.28,0 -8,0 0,-1.32 0,-2.64 0,-4 1.32,0 2.64,0 4,0 0,-2.64 0,-5.28 0,-8 1.32,0 2.64,0 4,0 0,1.32 0,2.64 0,4 1.32,0 2.64,0 4,0 0,-2.64 0,-5.28 0,-8 z"
     fill="#efb681"
     class="skin" /><path
     d="m 120,56 c 1.32,0 2.64,0 4,0 0,3.96 0,7.92 0,12 -2.64,0 -5.28,0 -8,0 0,1.32 0,2.64 0,4 -2.64,0 -5.28,0 -8,0 0,-1.32 0,-2.64 0,-4 1.32,0 2.64,0 4,0 0,-2.64 0,-5.28 0,-8 1.32,0 2.64,0 4,0 0,1.32 0,2.64 0,4 1.32,0 2.64,0 4,0 0,-2.64 0,-5.28 0,-8 z"
     fill="#efb681"
     class="skin" /><path
     d="m 53,56 c 1.32,0 2.64,0 4,0 0,3.96 0,7.92 0,12 -2.64,0 -5.28,0 -8,0 0,1.32 0,2.64 0,4 -2.64,0 -5.28,0 -8,0 0,-1.32 0,-2.64 0,-4 1.32,0 2.64,0 4,0 0,-2.64 0,-5.28 0,-8 1.32,0 2.64,0 4,0 0,1.32 0,2.64 0,4 1.32,0 2.64,0 4,0 0,-2.64 0,-5.28 0,-8 z"
     fill="#efb681"
     class="skin" /><path
     d="m 104,180 c 1.32,0 2.64,0 4,0 0,1.32 0,2.64 0,4 2.64,0 5.28,0 8,0 0,-1.32 0,-2.64 0,-4 1.32,0 2.64,0 4,0 0,2.64 0,5.28 0,8 -5.28,0 -10.56,0 -16,0 0,-2.64 0,-5.28 0,-8 z"
     fill="#141414"
     class="outline"/><path
     d="m 160,164 c 1.32,0 2.64,0 4,0 0,6.6 0,13.2 0,20 -1.32,0 -2.64,0 -4,0 0,-1.32 0,-2.64 0,-4 -1.32,0 -2.64,0 -4,0 0,-1.32 0,-2.64 0,-4 1.32,0 2.64,0 4,0 0,-3.96 0,-7.92 0,-12 z"
     fill="#3A3837"
     class="outline"
     style="fill:#141414;fill-opacity:1" /><path
     d="m 29,164 c 1.32,0 2.64,0 4,0 0,6.6 0,13.2 0,20 -1.32,0 -2.64,0 -4,0 0,-1.32 0,-2.64 0,-4 -1.32,0 -2.64,0 -4,0 0,-1.32 0,-2.64 0,-4 1.32,0 2.64,0 4,0 0,-3.96 0,-7.92 0,-12 z"
     fill="#3A3837"
     class="outline"
     style="fill:#141414;fill-opacity:1" /><path
     d="m 160,128 c 10.56,0 21.11999,0 32,0 0,1.32 0,2.64 0,4 -10.56,0 -21.11999,0 -32,0 0,-1.32 0,-2.64 0,-4 z"
     fill="#141414"
     class="outline"
     style="stroke-width:1.1547" /><path
     d="m 96,128 c 10.56,0 21.12,0 32,0 0,1.32 0,2.64 0,4 -10.56,0 -21.12,0 -32,0 0,-1.32 0,-2.64 0,-4 z"
     fill="#141414"
     class="outline"
     style="stroke-width:1.1547" /><path
     d="m 28.981982,128 c 10.577838,0 21.155676,0 32.054054,0 0,1.32 0,2.64 0,4 -10.577838,0 -21.155676,0 -32.054054,0 0,-1.32 0,-2.64 0,-4 z"
     fill="#141414"
     class="outline"
     style="stroke-width:1.15567" /><path
     d="m 104,88 c 1.32,0 2.64,0 4,0 0,1.32 0,2.64 0,4 2.64,0 5.28,0 8,0 0,-1.32 0,-2.64 0,-4 1.32,0 2.64,0 4,0 0,2.64 0,5.28 0,8 -5.28,0 -10.56,0 -16,0 0,-2.64 0,-5.28 0,-8 z"
     fill="#141414"
     class="outline" /><path
     d="m 124,56 c 1.32,0 2.64,0 4,0 0,5.28 0,10.56 0,16 -1.32,0 -2.64,0 -4,0 0,1.32 0,2.64 0,4 -1.32,0 -2.64,0 -4,0 0,-2.64 0,-5.28 0,-8 1.32,0 2.64,0 4,0 0,-3.96 0,-7.92 0,-12 z"
     fill="#141414"
     class="outline" /><path
     d="m 160,36 c 10.57701,0 21.15401,0 32.05153,0 0,1.32 0,2.64 0,4 -10.577,0 -21.15401,0 -32.05153,0 0,-1.32 0,-2.64 0,-4 z"
     fill="#141414"
     class="outline"
     style="stroke-width:1.15563" /><path
     d="m 96.054054,36 c 10.554056,0 21.108106,0 31.981986,0 0,1.32 0,2.64 0,4 -10.55406,0 -21.10811,0 -31.981986,0 0,-1.32 0,-2.64 0,-4 z"
     fill="#141414"
     class="outline"
     style="stroke-width:1.15437" /><path
     d="m 29.006895,36.018018 c 10.560375,0 21.120751,0 32.001136,0 0,1.32 0,2.64 0,4 -10.560375,0 -21.120749,0 -32.001136,0 0,-1.32 0,-2.64 0,-4 z"
     fill="#141414"
     class="outline"
     style="stroke-width:1.15473" /><path
     d="m 188,148 c 1.32,0 2.64,0 4,0 0,5.28 0,10.56 0,16 -2.64,0 -5.28,0 -8,0 0,-1.32 0,-2.64 0,-4 1.32,0 2.64,0 4,0 0,-3.96 0,-7.92 0,-12 z"
     fill="#141414"
     class="outline" /><path
     d="m 57,148 c 1.32,0 2.64,0 4,0 0,5.28 0,10.56 0,16 -2.64,0 -5.28,0 -8,0 0,-1.32 0,-2.64 0,-4 1.32,0 2.64,0 4,0 0,-3.96 0,-7.92 0,-12 z"
     fill="#141414"
     class="outline" /><path
     d="m 156,132 c 1.32,0 2.64,0 4,0 0,9.24019 0,18.48038 0,28.00057 -1.32,0 -2.64,0 -4,0 0,-9.24019 0,-18.48037 0,-28.00057 z"
     fill="#141414"
     class="outline"
     style="stroke-width:1.18323" /><path
     d="m 92,132 c 1.32,0 2.64,0 4,0 0,9.23178 0,18.46356 0,27.97509 -1.32,0 -2.64,0 -4,0 0,-9.23178 0,-18.46356 0,-27.97509 z"
     fill="#141414"
     class="outline"
     style="stroke-width:1.18269" /><path
     d="m 25,132 c 1.32,0 2.64,0 4,0 0,9.24595 0,18.49189 0,28.01802 -1.32,0 -2.64,0 -4,0 0,-9.24595 0,-18.49189 0,-28.01802 z"
     fill="#141414"
     class="outline"
     style="stroke-width:1.1836" /><path
     d="m 124,76 c 1.32,0 2.64,0 4,0 0,2.64 0,5.28 0,8 -1.32,0 -2.64,0 -4,0 0,1.32 0,2.64 0,4 -1.32,0 -2.64,0 -4,0 0,-1.32 0,-2.64 0,-4 -1.32,0 -2.64,0 -4,0 0,-1.32 0,-2.64 0,-4 2.64,0 5.28,0 8,0 0,-1.32 0,-2.64 0,-4 z"
     fill="#59314a"
     class="shirtShade"
     style="fill:#7c4066;fill-opacity:1" /><path
     d="m 88,80 c 5.28,0 10.56,0 16,0 0,2.64 0,5.28 0,8 -1.32,0 -2.64,0 -4,0 0,-1.32 0,-2.64 0,-4 -3.96,0 -7.92,0 -12,0 0,-1.32 0,-2.64 0,-4 z"
     fill="#141414"
     class="outline" /><path
     d="m 188,56 c 1.32,0 2.64,0 4,0 0,5.28 0,10.56 0,16 -2.64,0 -5.28,0 -8,0 0,-1.32 0,-2.64 0,-4 1.32,0 2.64,0 4,0 0,-3.96 0,-7.92 0,-12 z"
     fill="#141414"
     class="outline" /><path
     d="m 57,56 c 1.32,0 2.64,0 4,0 0,5.28 0,10.56 0,16 -2.64,0 -5.28,0 -8,0 0,-1.32 0,-2.64 0,-4 1.32,0 2.64,0 4,0 0,-3.96 0,-7.92 0,-12 z"
     fill="#141414"
     class="outline" /><path
     d="m 188,164 c 2.64,0 5.28,0 8,0 0,2.64 0,5.28 0,8 -2.64,0 -5.28,0 -8,0 0,-2.64 0,-5.28 0,-8 z"
     fill="#e1936c"
     class="skin" /><path
     d="m 108,168 c 2.64,0 5.28,0 8,0 0,2.64 0,5.28 0,8 -2.64,0 -5.28,0 -8,0 0,-2.64 0,-5.28 0,-8 z"
     fill="#efb681"
     class="skin" /><path
     d="m 57,164 c 2.64,0 5.28,0 8,0 0,2.64 0,5.28 0,8 -2.64,0 -5.28,0 -8,0 0,-2.64 0,-5.28 0,-8 z"
     fill="#e1936c"
     class="skin" /><path
     d="m 33,164 c 2.64,0 5.28,0 8,0 0,2.64 0,5.28 0,8 -2.64,0 -5.28,0 -8,0 0,-2.64 0,-5.28 0,-8 z"
     fill="#efb681"
     class="skin" /><path
     d="m 152,80 c 3.96,0 7.92,0 12,0 0,1.32 0,2.64 0,4 -1.32,0 -2.64,0 -4,0 0,1.32 0,2.64 0,4 -1.32,0 -2.64,0 -4,0 0,-1.32 0,-2.64 0,-4 -1.32,0 -2.64,0 -4,0 0,-1.32 0,-2.64 0,-4 z"
     fill="#141414"
     class="outline" /><path
     d="m 21,80 c 3.96,0 7.92,0 12,0 0,1.336818 0,2.673635 0,4.050963 -1.32,0 -2.64,0 -4,0 0,1.336817 0,2.673635 0,4.050962 -1.32,0 -2.64,0 -4,0 0,-1.336817 0,-2.673635 0,-4.050962 -1.32,0 -2.64,0 -4,0 C 21,82.714145 21,81.377327 21,80 Z"
     fill="#141414"
     class="outline"
     style="stroke-width:1.00635" /><path
     d="m 25.001136,88.051531 c 1.32,0 2.64,0 4,0 0,1.33663 0,2.67326 0,4.050395 -1.32,0 -2.64,0 -4,0 0,-1.33663 0,-2.673261 0,-4.050395 z"
     fill="#141414"
     class="outline"
     style="stroke-width:0.711547" /><path
     d="m 108,76 c 2.64,0 5.28,0 8,0 0,2.64 0,5.28 0,8 -2.64,0 -5.28,0 -8,0 0,-2.64 0,-5.28 0,-8 z"
     fill="#efb681"
     class="skin" /><path
     d="m 33,72 c 2.64,0 5.28,0 8,0 0,2.64 0,5.28 0,8 -2.64,0 -5.28,0 -8,0 0,-2.64 0,-5.28 0,-8 z"
     fill="#efb681"
     class="skin" /><path
     d="m 152,52 c 1.32,0 2.64,0 4,0 0,5.28 0,10.56 0,16 -1.32,0 -2.64,0 -4,0 0,-5.28 0,-10.56 0,-16 z"
     fill="#141414"
     class="outline" /><path
     d="m 88,52 c 1.32,0 2.64,0 4,0 0,5.28 0,10.56 0,16 -1.32,0 -2.64,0 -4,0 0,-5.28 0,-10.56 0,-16 z"
     fill="#141414"
     class="outline" /><path
     d="m 21,52 c 1.32,0 2.64,0 4,0 0,5.28 0,10.56 0,16 -1.32,0 -2.64,0 -4,0 0,-5.28 0,-10.56 0,-16 z"
     fill="#141414"
     class="outline" /><path
     d="m 160,160 c 1.32,0 2.64,0 4,0 0,5.24655 0,10.4931 0,15.89864 -1.32,0 -2.64,0 -4,0 0,-5.24655 0,-10.4931 0,-15.89864 z"
     fill="#141414"
     class="outline"
     style="stroke-width:1.15104" /><path
     d="m 96,160 c 1.32,0 2.64,0 4,0 0,6.617 0,13.234 0,20.05153 -1.32,0 -2.64,0 -4,0 0,-6.61701 0,-13.23401 0,-20.05153 z"
     fill="#141414"
     class="outline"
     style="stroke-width:1.29266" /><path
     d="m 29,159.99099 c 1.32,0 2.64,0 4,0 0,4.9708 0,9.94162 0,15.06306 -1.32,0 -2.64,0 -4,0 0,-4.97081 0,-9.94163 0,-15.06306 z"
     fill="#141414"
     class="outline"
     style="stroke-width:1.12038" /><path
     d="m 124,148 c 1.32,0 2.64,0 4,0 0,3.96 0,7.92 0,12 -1.32,0 -2.64,0 -4,0 0,-3.96 0,-7.92 0,-12 z"
     fill="#141414"
     class="outline" /><path
     d="m 192,132 c 1.32,0 2.64,0 4,0 0,5.27999 0,10.56 0,16 -1.32,0 -2.64,0 -4,0 0,-5.28 0,-10.56 0,-16 z"
     fill="#141414"
     class="outline"
     style="stroke-width:1.1547" /><path
     d="m 128,132 c 1.32,0 2.64,0 4,0 0,5.28 0,10.56 0,16 -1.32,0 -2.64,0 -4,0 0,-5.28 0,-10.56 0,-16 z"
     fill="#141414"
     class="outline"
     style="stroke-width:1.1547" /><path
     d="m 61,131.96396 c 1.32,0 2.64,0 4,0 0,5.2919 0,10.58379 0,16.03604 -1.32,0 -2.64,0 -4,0 0,-5.29189 0,-10.58378 0,-16.03604 z"
     fill="#141414"
     class="outline"
     style="stroke-width:1.156" /><path
     d="m 148,68 c 1.32,0 2.64,0 4,0 0,3.96 0,7.92 0,12 -1.32,0 -2.64,0 -4,0 0,-3.96 0,-7.92 0,-12 z"
     fill="#141414"
     class="outline" /><path
     d="m 84,68 c 1.32,0 2.64,0 4,0 0,3.96 0,7.92 0,12 -1.32,0 -2.64,0 -4,0 0,-3.96 0,-7.92 0,-12 z"
     fill="#141414"
     class="outline" /><path
     d="m 17,68 c 1.32,0 2.64,0 4,0 0,3.96 0,7.92 0,12 -1.32,0 -2.64,0 -4,0 0,-3.96 0,-7.92 0,-12 z"
     fill="#141414"
     class="outline" /><path
     d="m 184,56 c 1.32,0 2.64,0 4,0 0,3.96 0,7.92 0,12 -1.32,0 -2.64,0 -4,0 0,-3.96 0,-7.92 0,-12 z"
     fill="#e69f73"
     class="skin" /><path
     d="m 120,56 c 1.32,0 2.64,0 4,0 0,3.96 0,7.92 0,12 -1.32,0 -2.64,0 -4,0 0,-3.96 0,-7.92 0,-12 z"
     fill="#e69f73"
     class="skin" /><path
     d="m 53,56 c 1.32,0 2.64,0 4,0 0,3.96 0,7.92 0,12 -1.32,0 -2.64,0 -4,0 0,-3.96 0,-7.92 0,-12 z"
     fill="#e69f73"
     class="skin" /><path
     d="m 192,39.948469 c 1.32,0 2.64,0 4,0 0,5.297005 0,10.594011 0,16.051531 -1.32,0 -2.64,0 -4,0 0,-5.297005 0,-10.59401 0,-16.051531 z"
     fill="#141414"
     class="outline"
     style="stroke-width:1.15656" /><path
     d="m 128,40 c 1.32,0 2.64,0 4,0 0,5.28 0,10.56 0,16 -1.32,0 -2.64,0 -4,0 0,-5.28 0,-10.56 0,-16 z"
     fill="#141414"
     class="outline"
     style="stroke-width:1.1547" /><path
     d="m 61,40 c 1.32,0 2.64,0 4,0 0,5.28 0,10.56 0,16 -1.32,0 -2.64,0 -4,0 0,-5.28 0,-10.56 0,-16 z"
     fill="#141414"
     class="outline"
     style="stroke-width:1.1547" /><path
     d="m 180,184 c 3.96,0 7.92,0 12,0 0,1.32 0,2.64 0,4 -3.96,0 -7.92,0 -12,0 0,-1.32 0,-2.64 0,-4 z"
     fill="#141414"
     class="outline"
     style="stroke-width:1.22474" /><path
     d="m 164,184 c 2.64,0 5.28,0 8,0 0,1.32 0,2.64 0,4 -2.64,0 -5.28,0 -8,0 0,-1.32 0,-2.64 0,-4 z"
     fill="#141414"
     class="outline" /><path
     d="m 49,184 c 3.977005,0 7.95401,0 12.051531,0 0,1.32 0,2.64 0,4 -3.977005,0 -7.954011,0 -12.051531,0 0,-1.32 0,-2.64 0,-4 z"
     fill="#141414"
     class="outline"
     style="stroke-width:1.22737" /><path
     d="m 33,184 c 2.64,0 5.28,0 8,0 0,1.32 0,2.64 0,4 -2.64,0 -5.28,0 -8,0 0,-1.32 0,-2.64 0,-4 z"
     fill="#141414"
     class="outline" /><path
     d="m 172,180 c 2.64,0 5.28,0 8,0 0,1.32 0,2.64 0,4 -2.64,0 -5.28,0 -8,0 0,-1.32 0,-2.64 0,-4 z"
     fill="#141414"
     class="outline" /><path
     d="m 164,180 c 2.64,0 5.28,0 8,0 0,1.32 0,2.64 0,4 -2.64,0 -5.28,0 -8,0 0,-1.32 0,-2.64 0,-4 z"
     fill="#f0eeec"
     class="shoes"
     style="fill:#f0eeec;fill-opacity:1" /><path
     d="m 108,180 c 2.64,0 5.28,0 8,0 0,1.32 0,2.64 0,4 -2.64,0 -5.28,0 -8,0 0,-1.32 0,-2.64 0,-4 z"
     fill="#cbc6c1"
     class="shoes" /><path
     d="m 41,180 c 2.64,0 5.28,0 8,0 0,1.32 0,2.64 0,4 -2.64,0 -5.28,0 -8,0 0,-1.32 0,-2.64 0,-4 z"
     fill="#141414"
     class="outline" /><path
     d="m 33,180 c 2.64,0 5.28,0 8,0 0,1.32 0,2.64 0,4 -2.64,0 -5.28,0 -8,0 0,-1.32 0,-2.64 0,-4 z"
     fill="#f0eeec"
     class="shoes" /><path
     d="m 124,168 c 1.32,0 2.64,0 4,0 0,3.97189 0,7.94378 0,12.03604 -1.32,0 -2.64,0 -4,0 0,-3.9719 0,-7.94379 0,-12.03604 z"
     fill="#141414"
     class="outline"
     style="stroke-width:1.22658" /><path
     d="m 192,164 c 1.32,0 2.64,0 4,0 0,6.6 0,13.2 0,20 -1.32,0 -2.64,0 -4,0 0,-6.6 0,-13.2 0,-20 z"
     fill="#141414"
     class="outline"
     style="stroke-width:1.58114" /><path
     d="m 61,164 c 1.32,0 2.64,0 4,0 0,2.64 0,5.28 0,8 -1.32,0 -2.64,0 -4,0 0,-2.64 0,-5.28 0,-8 z"
     fill="#141414"
     class="outline" /><path
     d="m 164,160 c 2.64,0 5.28,0 8,0 0,1.32 0,2.64 0,4 -2.64,0 -5.28,0 -8,0 0,-1.32 0,-2.64 0,-4 z"
     fill="#744236"
     class="skin" /><path
     d="m 120,160 c 1.32,0 2.64,0 4,0 0,2.64 0,5.28 0,8 -1.32,0 -2.64,0 -4,0 0,-2.64 0,-5.28 0,-8 z"
     fill="#141414"
     class="outline" /><path
     d="m 100,160 c 2.64,0 5.28,0 8,0 0,1.32 0,2.64 0,4 -2.64,0 -5.28,0 -8,0 0,-1.32 0,-2.64 0,-4 z"
     fill="#744236"
     class="skin" /><path
     d="m 33,160 c 2.64,0 5.28,0 8,0 0,1.32 0,2.64 0,4 -2.64,0 -5.28,0 -8,0 0,-1.32 0,-2.64 0,-4 z"
     fill="#744236"
     class="skin"
     style="fill:#e69f73;fill-opacity:1" /><path
     d="m 184,148 c 1.32,0 2.64,0 4,0 0,2.64 0,5.28 0,8 -1.32,0 -2.64,0 -4,0 0,-2.64 0,-5.28 0,-8 z"
     fill="#efb681"
     class="skin" /><path
     d="m 180,148 c 1.32,0 2.64,0 4,0 0,2.64 0,5.28 0,8 -1.32,0 -2.64,0 -4,0 0,-2.64 0,-5.28 0,-8 z"
     fill="#141414"
     class="outline" /><path
     d="m 120,148 c 1.32,0 2.64,0 4,0 0,2.64 0,5.28 0,8 -1.32,0 -2.64,0 -4,0 0,-2.64 0,-5.28 0,-8 z"
     fill="#efb681"
     class="skin" /><path
     d="m 116,148 c 1.32,0 2.64,0 4,0 0,2.64 0,5.28 0,8 -1.32,0 -2.64,0 -4,0 0,-2.64 0,-5.28 0,-8 z"
     fill="#141414"
     class="outline" /><path
     d="m 53,148 c 1.32,0 2.64,0 4,0 0,2.64 0,5.28 0,8 -1.32,0 -2.64,0 -4,0 0,-2.64 0,-5.28 0,-8 z"
     fill="#efb681"
     class="skin" /><path
     d="m 49,148 c 1.32,0 2.64,0 4,0 0,2.64 0,5.28 0,8 -1.32,0 -2.64,0 -4,0 0,-2.64 0,-5.28 0,-8 z"
     fill="#141414"
     class="outline" /><path
     d="m 180,92 c 3.96,0 7.92,0 12,0 0,1.32 0,2.64 0,4 -3.96,0 -7.92,0 -12,0 0,-1.32 0,-2.64 0,-4 z"
     fill="#141414"
     class="outline"
     style="stroke-width:1.22474" /><path
     d="m 159.97395,92 c 3.9686,0 7.93719,0 12.02605,0 0,1.32 0,2.64 0,4 -3.9686,0 -7.93719,0 -12.02605,0 0,-1.32 0,-2.64 0,-4 z"
     fill="#141414"
     class="outline"
     style="stroke-width:1.22607" /><path
     d="m 49,92 c 3.971892,0 7.943784,0 12.036036,0 0,1.32 0,2.64 0,4 C 57.064144,96 53.092252,96 49,96 c 0,-1.32 0,-2.64 0,-4 z"
     fill="#141414"
     class="outline"
     style="stroke-width:1.22658" /><path
     d="M 28.999432,92 C 32.95962,92 36.919806,92 41,92 c 0,1.32 0,2.64 0,4 -3.960188,0 -7.920375,0 -12.000568,0 0,-1.32 0,-2.64 0,-4 z"
     fill="#141414"
     class="outline"
     style="stroke-width:1.22477" /><path
     d="m 172,88 c 2.64,0 5.28,0 8,0 0,1.32 0,2.64 0,4 -2.64,0 -5.28,0 -8,0 0,-1.32 0,-2.64 0,-4 z"
     fill="#141414"
     class="outline" /><path
     d="m 164,88 c 2.64,0 5.28,0 8,0 0,1.32 0,2.64 0,4 -2.64,0 -5.28,0 -8,0 0,-1.32 0,-2.64 0,-4 z"
     fill="#f0eeec"
     class="shoes" /><path
     d="m 41,88 c 2.64,0 5.28,0 8,0 0,1.32 0,2.64 0,4 -2.64,0 -5.28,0 -8,0 0,-1.32 0,-2.64 0,-4 z"
     fill="#141414"
     class="outline" /><path
     d="m 33,88 c 2.64,0 5.28,0 8,0 0,1.32 0,2.64 0,4 -2.64,0 -5.28,0 -8,0 0,-1.32 0,-2.64 0,-4 z"
     fill="#f0eeec"
     class="shoes" /><path
     d="m 184,80 c 3.96493,0 7.92986,0 12.01492,0 0,1.32 0,2.64 0,4 -3.96491,0 -7.92984,0 -12.01492,0 0,-1.32 0,-2.64 0,-4 z"
     fill="#141414"
     class="outline"
     style="stroke-width:1.2255" /><path
     d="m 164,80 c 2.64,0 5.28,0 8,0 0,1.32 0,2.64 0,4 -2.64,0 -5.28,0 -8,0 0,-1.32 0,-2.64 0,-4 z"
     fill="#7c4066"
     class="shirtShade" /><path
     d="m 53,80 c 3.96,0 7.92,0 12,0 0,1.32 0,2.64 0,4 -3.96,0 -7.92,0 -12,0 0,-1.32 0,-2.64 0,-4 z"
     fill="#141414"
     class="outline"
     style="stroke-width:1.22474" /><path
     d="m 33,80 c 2.64,0 5.28,0 8,0 0,1.32 0,2.64 0,4 -2.64,0 -5.28,0 -8,0 0,-1.32 0,-2.64 0,-4 z"
     fill="#7c4066"
     class="shirtShade" /><path
     d="m 124,76 c 1.32,0 2.64,0 4,0 0,3.958513 0,7.917027 0,11.995496 -1.32,0 -2.64,0 -4,0 0,-3.958514 0,-7.917028 0,-11.995496 z"
     fill="#141414"
     class="outline"
     style="stroke-width:1.22451" /><path
     d="m 192,72 c 1.32,0 2.64,0 4,0 0,2.64 0,5.28 0,8 -1.32,0 -2.64,0 -4,0 0,-2.64 0,-5.28 0,-8 z"
     fill="#141414"
     class="outline" /><path
     d="m 61,72 c 1.32,0 2.64,0 4,0 0,2.64 0,5.28 0,8 -1.32,0 -2.64,0 -4,0 0,-2.64 0,-5.28 0,-8 z"
     fill="#141414"
     class="outline" /><path
     d="m 180,56 c 1.32,0 2.64,0 4,0 0,2.64 0,5.28 0,8 -1.32,0 -2.64,0 -4,0 0,-2.64 0,-5.28 0,-8 z"
     fill="#141414"
     class="outline" /><path
     d="m 116,56 c 1.32,0 2.64,0 4,0 0,2.64 0,5.28 0,8 -1.32,0 -2.64,0 -4,0 0,-2.64 0,-5.28 0,-8 z"
     fill="#141414"
     class="outline" /><path
     d="m 49,56 c 1.32,0 2.64,0 4,0 0,2.64 0,5.28 0,8 -1.32,0 -2.64,0 -4,0 0,-2.64 0,-5.28 0,-8 z"
     fill="#141414"
     class="outline" /><path
     d="m 61.007933,87.992089 c 1.32,0 2.64,0 4,0 0,1.33663 0,2.67326 0,4.050395 -1.32,0 -2.64,0 -4,0 0,-1.33663 0,-2.673261 0,-4.050395 z"
     fill="#141414"
     class="outline"
     style="stroke-width:0.711547" /><path
     d="m 64.949605,84.00566 c 1.32,0 2.64,0 4,0 0,1.319813 0,2.639625 0,3.999432 -1.32,0 -2.64,0 -4,0 0,-1.319812 0,-2.639625 0,-3.999432 z"
     fill="#141414"
     class="outline"
     style="stroke-width:0.707056" /><path
     d="m 184,52 c 2.64,0 5.28,0 8,0 0,1.32 0,2.64 0,4 -2.64,0 -5.28,0 -8,0 0,-1.32 0,-2.64 0,-4 z"
     fill="#bb7c63"
     class="skin"
     style="fill:#e69f73;fill-opacity:1" /><path
     d="m 120,52 c 2.64,0 5.28,0 8,0 0,1.32 0,2.64 0,4 -2.64,0 -5.28,0 -8,0 0,-1.32 0,-2.64 0,-4 z"
     fill="#bb7c63"
     class="skin" /><path
     d="m 53,52 c 2.64,0 5.28,0 8,0 0,1.32 0,2.64 0,4 -2.64,0 -5.28,0 -8,0 0,-1.32 0,-2.64 0,-4 z"
     fill="#bb7c63"
     class="skin" /><path
     d="m 156,40 c 1.32,0 2.64,0 4,0 0,3.96 0,7.92 0,12 -1.32,0 -2.64,0 -4,0 0,-3.96 0,-7.92 0,-12 z"
     fill="#141414"
     class="outline"
     style="stroke-width:1.22474" /><path
     d="m 92,40.036036 c 1.32,0 2.64,0 4,0 0,3.948108 0,7.896216 0,11.963964 -1.32,0 -2.64,0 -4,0 0,-3.948108 0,-7.896216 0,-11.963964 z"
     fill="#141414"
     class="outline"
     style="stroke-width:1.2229" /><path
     d="m 25,40 c 1.32,0 2.64,0 4,0 0,3.96 0,7.92 0,12 -1.32,0 -2.64,0 -4,0 0,-3.96 0,-7.92 0,-12 z"
     fill="#141414"
     class="outline"
     style="stroke-width:1.22474" /><path
     d="m 119.94595,87.990991 c 1.34081,0 2.68162,0 4.06306,0 0,1.33663 0,2.67326 0,4.050395 -1.34081,0 -2.68162,0 -4.06306,0 0,-1.33663 0,-2.673261 0,-4.050395 z"
     fill="#141414"
     class="outline"
     style="stroke-width:0.717134" /><path
     d="m 192.00566,87.962062 c 1.32,0 2.64,0 4,0 0,1.33663 0,2.67326 0,4.050395 -1.32,0 -2.64,0 -4,0 0,-1.33663 0,-2.673261 0,-4.050395 z"
     fill="#141414"
     class="outline"
     style="stroke-width:0.711547" /><path
     d="m 195.92978,83.91676 c 1.32,0 2.64,0 4,0 0,1.33663 0,2.67326 0,4.050395 -1.32,0 -2.64,0 -4,0 0,-1.33663 0,-2.673261 0,-4.050395 z"
     fill="#141414"
     class="outline"
     style="stroke-width:0.711547" /><path
     d="m 156.01274,87.94224 c 1.32,0 2.64,0 4,0 0,1.33663 0,2.67326 0,4.050395 -1.32,0 -2.64,0 -4,0 0,-1.33663 0,-2.673261 0,-4.050395 z"
     fill="#141414"
     class="outline"
     style="stroke-width:0.711547" /><path
     d="m 61,171.92299 c 1.32,0 2.64,0 4,0 0,4.0611 0,8.12219 0,12.30634 -1.32,0 -2.64,0 -4,0 0,-4.0611 0,-8.12219 0,-12.30634 z"
     fill="#141414"
     class="outline"
     style="stroke-width:1.24028" /><path
     d="m 100,180 c 1.32,0 2.64,0 4,0 0,1.33663 0,2.67326 0,4.05039 -1.32,0 -2.64,0 -4,0 0,-1.33663 0,-2.67326 0,-4.05039 z"
     fill="#141414"
     class="outline"
     style="stroke-width:0.711547" /><path
     d="m 120,180 c 1.32,0 2.64,0 4,0 0,1.33663 0,2.67326 0,4.05039 -1.32,0 -2.64,0 -4,0 0,-1.33663 0,-2.67326 0,-4.05039 z"
     fill="#141414"
     class="outline"
     style="stroke-width:0.711547" /><g
     id="g119"
     transform="translate(201.50508,1.8290006)"><path
       d="m 29.476781,36 c 7.92,0 15.84,0 24,0 0,1.32 0,2.64 0,4 1.32,0 2.64,0 4,0 0,1.32 0,2.64 0,4 1.32,0 2.64,0 4,0 0,2.64 0,5.28 0,8 1.32,0 2.64,0 4,0 0,5.28 0,10.56 0,16 1.32,0 2.64,0 4,0 0,3.96 0,7.92 0,12 -1.32,0 -2.64,0 -4,0 0,1.32 0,2.64 0,4 -2.64,0 -5.28,0 -8,0 0,2.64 0,5.28 0,8 -1.32,0 -2.64,0 -4,0 0,-3.96 0,-7.92 0,-12 -2.64,0 -5.28,0 -8,0 0,3.96 0,7.92 0,12 -3.96,0 -7.92,0 -12,0 0,-1.32 0,-2.64 0,-4 -1.32,0 -2.64,0 -4,0 0,-1.32 0,-2.64 0,-4 -3.96,0 -7.92,0 -12,0 0,-1.32 0,-2.64 0,-4 -1.32,0 -2.64,0 -4,0 0,-3.96 0,-7.92 0,-12 1.32,0 2.64,0 4,0 0,-5.28 0,-10.56 0,-16 1.32,0 2.64,0 4,0 0,-2.64 0,-5.28 0,-8 1.32,0 2.64,0 4,0 0,-1.32 0,-2.64 0,-4 1.32,0 2.64,0 4,0 0,-1.32 0,-2.64 0,-4 z"
       fill="#882d77"
       class="hair" /><path
       d="m 29.476781,128 c 7.92,0 15.84,0 24,0 0,1.32 0,2.64 0,4 1.32,0 2.64,0 4,0 0,1.32 0,2.64 0,4 1.32,0 2.64,0 4,0 0,6.6 0,13.2 0,20 -1.32,0 -2.64,0 -4,0 0,-1.32 0,-2.64 0,-4 -1.32,0 -2.64,0 -4,0 0,-3.96 0,-7.92 0,-12 -1.32,0 -2.64,0 -4,0 0,1.32 0,2.64 0,4 -1.32,0 -2.64,0 -4,0 0,1.32 0,2.64 0,4 -2.64,0 -5.28,0 -8,0 0,-2.64 0,-5.28 0,-8 -1.32,0 -2.64,0 -4,0 0,1.32 0,2.64 0,4 -1.32,0 -2.64,0 -4,0 0,2.64 0,5.28 0,8 -1.32,0 -2.64,0 -4,0 0,1.32 0,2.64 0,4 -1.32,0 -2.64,0 -4,0 0,-6.6 0,-13.2 0,-20 1.32,0 2.64,0 4,0 0,-1.32 0,-2.64 0,-4 1.32,0 2.64,0 4,0 0,-1.32 0,-2.64 0,-4 z"
       fill="#a32430"
       class="hair"
       style="fill:#bd9a7e;fill-opacity:1" /><path
       d="m 37.476781,48 c 1.32,0 2.64,0 4,0 0,1.32 0,2.64 0,4 2.64,0 5.28,0 8,0 0,1.32 0,2.64 0,4 1.32,0 2.64,0 4,0 0,3.96 0,7.92 0,12 -1.32,0 -2.64,0 -4,0 0,1.32 0,2.64 0,4 -5.28,0 -10.56,0 -16,0 0,-1.32 0,-2.64 0,-4 -1.32,0 -2.64,0 -4,0 0,-3.96 0,-7.92 0,-12 1.32,0 2.64,0 4,0 0,-1.32 0,-2.64 0,-4 1.32,0 2.64,0 4,0 0,-1.32 0,-2.64 0,-4 z"
       fill="#e59c71"
       class="skin" /><path
       d="m 37.476781,148 c 2.64,0 5.28,0 8,0 0,2.64 0,5.28 0,8 1.32,0 2.64,0 4,0 0,2.64 0,5.28 0,8 -1.32,0 -2.64,0 -4,0 0,1.32 0,2.64 0,4 -2.64,0 -5.28,0 -8,0 0,-1.32 0,-2.64 0,-4 -1.32,0 -2.64,0 -4,0 0,-2.64 0,-5.28 0,-8 1.32,0 2.64,0 4,0 0,-2.64 0,-5.28 0,-8 z"
       fill="#eaaa7a"
       class="skin" /><path
       d="m 49.476781,140 c 1.32,0 2.64,0 4,0 0,3.96 0,7.92 0,12 1.32,0 2.64,0 4,0 0,2.64 0,5.28 0,8 -2.64,0 -5.28,0 -8,0 0,-1.32 0,-2.64 0,-4 -1.32,0 -2.64,0 -4,0 0,-3.96 0,-7.92 0,-12 1.32,0 2.64,0 4,0 0,-1.32 0,-2.64 0,-4 z"
       fill="#c67f5e"
       class="skin" /><path
       d="m 33.476781,140 c 1.32,0 2.64,0 4,0 0,5.28 0,10.56 0,16 -3.96,0 -7.92,0 -12,0 0,-1.32 0,-2.64 0,-4 1.32,0 2.64,0 4,0 0,-2.64 0,-5.28 0,-8 1.32,0 2.64,0 4,0 0,-1.32 0,-2.64 0,-4 z"
       fill="#dd8865"
       class="skin" /><path
       d="m 29.476781,84 h 16 v 8 h -12 L 29.464857,92.063431 29.476781,88 Z"
       fill="#141414"
       class="outline"
       sodipodi:nodetypes="ccccccc" /><path
       d="m 53.476781,176 c 2.64,0 5.28,0 8,0 0,1.32 0,2.64 0,4 -1.32,0 -2.64,0 -4,0 0,2.64 0,5.28 0,8 -3.96,0 -7.92,0 -12,0 0,-1.32 0,-2.64 0,-4 2.64,0 5.28,0 8,0 0,-2.64 0,-5.28 0,-8 z"
       fill="#141414"
       class="outline" /><path
       d="m 21.476781,176 c 2.64,0 5.28,0 8,0 0,2.64 0,5.28 0,8 2.64,0 5.28,0 8,0 0,1.32 0,2.64 0,4 -3.96,0 -7.92,0 -12,0 0,-2.64 0,-5.28 0,-8 -1.32,0 -2.64,0 -4,0 0,-1.32 0,-2.64 0,-4 z"
       fill="#141414"
       class="outline" /><path
       d="m 25.476781,156 c 2.64,0 5.28,0 8,0 0,3.96 0,7.92 0,12 -3.96,0 -7.92,0 -12,0 0,-1.32 0,-2.64 0,-4 2.64,0 5.28,0 8,0 0,-1.32 0,-2.64 0,-4 -1.32,0 -2.64,0 -4,0 0,-1.32 0,-2.64 0,-4 z"
       fill="#1a3b2e"
       class="skin" /><path
       d="m 25.461156,128 c 10.570312,0 21.140626,0 32.03125,0 0,1.32 0,2.64 0,4 -10.570312,0 -21.140624,0 -32.03125,0 0,-1.32 0,-2.64 0,-4 z"
       fill="#141414"
       class="outline"
       style="stroke-width:1.15526" /><path
       d="m 45.476781,80 c 2.64,0 5.28,0 8,0 0,3.96 0,7.92 0,12 -2.64,0 -5.28,0 -8,0 0,-3.96 0,-7.92 0,-12 z"
       fill="#f0eeec"
       class="shoes" /><path
       d="m 25.455111,36 c 10.56701,0 21.13402,0 32.021243,0 0,1.32 0,2.64 0,4 -10.56701,0 -21.13402,0 -32.021243,0 0,-1.32 0,-2.64 0,-4 z"
       fill="#141414"
       class="outline"
       style="stroke-width:1.15508" /><path
       d="m 57.476781,131.98438 c 1.32,0 2.64,0 4,0 0,9.24515 0,18.49031 0,28.01562 -1.32,0 -2.64,0 -4,0 0,-9.24516 0,-18.49031 0,-28.01562 z"
       fill="#141414"
       class="outline"
       style="stroke-width:1.18355" /><path
       d="m 21.476781,131.96875 c 1.32,0 2.64,0 4,0 0,7.93031 0,15.86063 0,24.03125 -1.32,0 -2.64,0 -4,0 0,-7.93031 0,-15.86062 0,-24.03125 z"
       fill="#141414"
       class="outline"
       style="stroke-width:1.09616" /><path
       d="m 53.476781,80 c 3.96,0 7.92,0 12,0 0,1.32 0,2.64 0,4 -2.64,0 -5.28,0 -8,0 0,2.64 0,5.28 0,8 -1.32,0 -2.64,0 -4,0 0,-3.96 0,-7.92 0,-12 z"
       fill="#141414"
       class="outline" /><path
       d="m 53.476781,168 c 2.64,0 5.28,0 8,0 0,2.64 0,5.28 0,8 -2.64,0 -5.28,0 -8,0 0,-2.64 0,-5.28 0,-8 z"
       fill="#efb681"
       class="skin" /><path
       d="m 21.476781,168 c 2.64,0 5.28,0 8,0 0,2.64 0,5.28 0,8 -2.64,0 -5.28,0 -8,0 0,-2.64 0,-5.28 0,-8 z"
       fill="#efb681"
       class="skin" /><path
       d="m 49.476781,160 c 1.32,0 2.64,0 4,0 0,1.32 0,2.64 0,4 2.64,0 5.28,0 8,0 0,1.32 0,2.64 0,4 -3.96,0 -7.92,0 -12,0 0,-2.64 0,-5.28 0,-8 z"
       fill="#141414"
       class="outline" /><path
       d="m 25.476781,72 c 2.64,0 5.28,0 8,0 0,2.64 0,5.28 0,8 -2.64,0 -5.28,0 -8,0 0,-2.64 0,-5.28 0,-8 z"
       fill="#efb681"
       class="shirtShade"
       style="fill:#2485cd;fill-opacity:1" /><path
       d="m 61.476781,52 c 1.32,0 2.64,0 4,0 0,5.28 0,10.56 0,16 -1.32,0 -2.64,0 -4,0 0,-5.28 0,-10.56 0,-16 z"
       fill="#141414"
       class="outline" /><path
       d="m 17.476781,52 c 1.32,0 2.64,0 4,0 0,5.28 0,10.56 0,16 -1.32,0 -2.64,0 -4,0 0,-5.28 0,-10.56 0,-16 z"
       fill="#141414"
       class="outline" /><path
       d="m 29.476781,148 c 1.32,0 2.64,0 4,0 0,2.64 0,5.28 0,8 -2.64,0 -5.28,0 -8,0 0,-1.32 0,-2.64 0,-4 1.32,0 2.64,0 4,0 0,-1.32 0,-2.64 0,-4 z"
       fill="#e69f73"
       class="skin" /><path
       d="m 29.476781,84 c 3.96,0 7.92,0 12,0 0,1.32 0,2.64 0,4 -3.96,0 -7.92,0 -12,0 0,-1.32 0,-2.64 0,-4 z"
       fill="#3b4c52"
       class="trousers"
       style="fill:#646f75;fill-opacity:1" /><path
       d="m 17.476781,80 c 3.96,0 7.92,0 12,0 0,1.32 0,2.64 0,4 -3.96,0 -7.92,0 -12,0 0,-1.32 0,-2.64 0,-4 z"
       fill="#141414"
       id="outline" /><path
       d="m 65.476781,68 c 1.32,0 2.64,0 4,0 0,3.96 0,7.92 0,12 -1.32,0 -2.64,0 -4,0 0,-3.96 0,-7.92 0,-12 z"
       fill="#141414"
       class="outline" /><path
       d="m 13.476781,68 c 1.32,0 2.64,0 4,0 0,3.96 0,7.92 0,12 -1.32,0 -2.64,0 -4,0 0,-3.96 0,-7.92 0,-12 z"
       fill="#141414"
       id="outline" /><path
       d="m 53.476781,64 c 1.32,0 2.64,0 4,0 0,2.64 0,5.28 0,8 -2.64,0 -5.28,0 -8,0 0,-1.32 0,-2.64 0,-4 1.32,0 2.64,0 4,0 0,-1.32 0,-2.64 0,-4 z"
       fill="#431c58"
       class="hairShade"
       style="fill:#bb7c63;fill-opacity:1" /><path
       d="m 25.476781,64 c 1.32,0 2.64,0 4,0 0,1.32 0,2.64 0,4 1.32,0 2.64,0 4,0 0,1.32 0,2.64 0,4 -2.64,0 -5.28,0 -8,0 0,-2.64 0,-5.28 0,-8 z"
       fill="#431c58"
       class="hairShade"
       style="fill:#bb7c63;fill-opacity:1" /><path
       d="m 45.476781,180 c 2.64,0 5.28,0 8,0 0,1.32 0,2.64 0,4 -2.64,0 -5.28,0 -8,0 0,-1.32 0,-2.64 0,-4 z"
       fill="#f0eeec"
       class="shoes" /><path
       d="m 37.476781,180 c 2.64,0 5.28,0 8,0 0,1.32 0,2.64 0,4 -2.64,0 -5.28,0 -8,0 0,-1.32 0,-2.64 0,-4 z"
       fill="#141414"
       id="outline" /><path
       d="m 29.476781,180 c 2.64,0 5.28,0 8,0 0,1.32 0,2.64 0,4 -2.64,0 -5.28,0 -8,0 0,-1.32 0,-2.64 0,-4 z"
       fill="#f0eeec"
       class="shoes" /><path
       d="m 61.476781,168 c 1.32,0 2.64,0 4,0 0,2.64 0,5.28 0,8 -1.32,0 -2.64,0 -4,0 0,-2.64 0,-5.28 0,-8 z"
       fill="#141414"
       class="outline" /><path
       d="m 17.476781,168 c 1.32,0 2.64,0 4,0 0,2.64 0,5.28 0,8 -1.32,0 -2.64,0 -4,0 0,-2.64 0,-5.28 0,-8 z"
       fill="#141414"
       class="outline" /><path
       d="m 49.476781,160 c 1.32,0 2.64,0 4,0 0,2.64 0,5.28 0,8 -1.32,0 -2.64,0 -4,0 0,-2.64 0,-5.28 0,-8 z"
       fill="#1a3b2e"
       class="outline" /><path
       d="m 37.476781,164 c 2.64,0 5.28,0 8,0 0,1.32 0,2.64 0,4 -2.64,0 -5.28,0 -8,0 0,-1.32 0,-2.64 0,-4 z"
       fill="#f0eeec"
       class="shoes" /><path
       d="m 21.476781,164 c 2.64,0 5.28,0 8,0 0,1.32 0,2.64 0,4 -2.64,0 -5.28,0 -8,0 0,-1.32 0,-2.64 0,-4 z"
       fill="#141414"
       class="outline"
       style="fill:#141414;fill-opacity:1" /><path
       d="m 25.476781,156 c 2.64,0 5.28,0 8,0 0,1.32 0,2.64 0,4 -2.64,0 -5.28,0 -8,0 0,-1.32 0,-2.64 0,-4 z"
       fill="#744236"
       class="skin" /><path
       d="m 45.476781,148 c 1.32,0 2.64,0 4,0 0,2.64 0,5.28 0,8 -1.32,0 -2.64,0 -4,0 0,-2.64 0,-5.28 0,-8 z"
       fill="#141414"
       class="outline" /><path
       d="m 33.476781,148 c 1.32,0 2.64,0 4,0 0,2.64 0,5.28 0,8 -1.32,0 -2.64,0 -4,0 0,-2.64 0,-5.28 0,-8 z"
       fill="#141414"
       class="outline" /><path
       d="m 45.476781,92 c 2.64,0 5.28,0 8,0 0,1.32 0,2.64 0,4 -2.64,0 -5.28,0 -8,0 0,-1.32 0,-2.64 0,-4 z"
       fill="#141414"
       class="outline" /><path
       d="m 45.476781,88 c 2.64,0 5.28,0 8,0 0,1.32 0,2.64 0,4 -2.64,0 -5.28,0 -8,0 0,-1.32 0,-2.64 0,-4 z"
       fill="#88a7a0"
       class="trousers"
       style="fill:#646f75;fill-opacity:1" /><path
       d="m 53.476781,72 c 1.32,0 2.64,0 4,0 0,2.64 0,5.28 0,8 -1.32,0 -2.64,0 -4,0 0,-2.64 0,-5.28 0,-8 z"
       fill="#d47158"
       class="shirt" /><path
       d="m 49.476781,72 c 1.32,0 2.64,0 4,0 0,2.64 0,5.28 0,8 -1.32,0 -2.64,0 -4,0 0,-2.64 0,-5.28 0,-8 z"
       fill="#264fa4"
       class="shirt" /><path
       d="m 49.476781,56 c 1.32,0 2.64,0 4,0 0,2.64 0,5.28 0,8 -1.32,0 -2.64,0 -4,0 0,-2.64 0,-5.28 0,-8 z"
       fill="#efb681"
       class="skin" /><path
       d="m 45.476781,56 c 1.32,0 2.64,0 4,0 0,2.64 0,5.28 0,8 -1.32,0 -2.64,0 -4,0 0,-2.64 0,-5.28 0,-8 z"
       fill="#141414"
       class="outline" /><path
       d="m 33.476781,56 c 1.32,0 2.64,0 4,0 0,2.64 0,5.28 0,8 -1.32,0 -2.64,0 -4,0 0,-2.64 0,-5.28 0,-8 z"
       fill="#141414"
       class="outline" /><path
       d="m 29.476781,56 c 1.32,0 2.64,0 4,0 0,2.64 0,5.28 0,8 -1.32,0 -2.64,0 -4,0 0,-2.64 0,-5.28 0,-8 z"
       fill="#efb681"
       class="skin" /><path
       d="m 57.476781,40.000427 c 1.32,0 2.64,0 4,0 0,3.959859 0,7.919718 0,11.999573 -1.32,0 -2.64,0 -4,0 0,-3.959859 0,-7.919718 0,-11.999573 z"
       fill="#141414"
       class="outline"
       style="stroke-width:1.22472" /><path
       d="m 21.476781,39.966494 c 1.32,0 2.64,0 4,0 0,3.96 0,7.919999 0,12 -1.32,0 -2.64,0 -4,0 0,-3.96 0,-7.92 0,-12 z"
       fill="#141414"
       class="outline"
       style="stroke-width:1.22474" /><path
       style="fill:#2485cd;fill-opacity:1;stroke-width:0.101925"
       d="m 249.56411,77.718043 1.42695,-3.873162 h 1.98754 1.98754 v 3.975087 3.975087 h -1.98754 -1.98754 z"
       class="shirt"
       transform="translate(-201.50508,-1.8290006)"
       sodipodi:nodetypes="ccccccccc" /><path
       style="fill:#2485cd;fill-opacity:1;stroke-width:0.101925"
       d="m 254.04882,77.819968 1.01925,-3.975087 h 1.93658 1.93658 v 3.975087 3.975087 h -1.93658 -1.93658 z"
       class="shirt"
       transform="translate(-201.50508,-1.8290006)"
       sodipodi:nodetypes="ccccccccc" /><path
       style="fill:#8da4c9;fill-opacity:1;stroke-width:0.125"
       d="m 235.0625,175.8125 v -2 h -2 -2 v -1.9375 -1.9375 h 2 2 v -2 -2 H 237 h 1.9375 v 2 2 H 243 h 4.0625 v -2 -2 H 249 h 1.9375 v 2 2 h 2 2 v 1.9375 1.9375 h -2 -2 v 2 2 H 243 235.0625 Z"
       class="shirt"
       transform="translate(-201.50508,-1.8290006)" /><path
       style="fill:#000000;fill-opacity:0;stroke-width:0.125"
       d="m 231.0625,177.875 v -3.9375 H 233 h 1.9375 v 2.00092 2.00092 l 8.03125,-0.0322 8.03125,-0.0322 0.0344,-1.96875 0.0344,-1.96875 h 1.93432 1.93433 v 3.9375 3.9375 H 243 231.0625 Z"
       class="trousers"
       transform="translate(-201.50508,-1.8290006)" /><path
       style="fill:#141414;fill-opacity:1;stroke-width:0.0625"
       d="m 231.03125,165.8125 v -3.96875 H 233 h 1.96875 v 3.96875 3.96875 H 233 231.03125 Z"
       class="outline"
       transform="translate(-201.50508,-1.8290006)" /><path
       style="fill:#141414;fill-opacity:1;stroke-width:0.0625"
       d="m 250.98973,166.82812 c 0.0228,-1.62421 0.0414,-3.41015 0.0414,-3.96875 l 7e-5,-1.01562 H 253 h 1.96875 v 3.96875 3.96875 h -2.0102 -2.0102 z"
       class="outline"
       transform="translate(-201.50508,-1.8290006)" /><path
       style="fill:#c67f5e;fill-opacity:1;stroke-width:0.0441942"
       d="m 227.00337,159.82823 v -1.98874 h 3.97748 3.97747 v 1.98874 1.98874 h -3.97747 -3.97748 z"
       class="skin"
       transform="translate(-201.50508,-1.8290006)" /><path
       d="m 53.39492,159.9989 c 1.32,0 2.64,0 4,0 0,1.32729 0,2.65459 0,4.0221 -1.32,0 -2.64,0 -4,0 0,-1.32729 0,-2.65458 0,-4.0221 z"
       fill="#141414"
       class="outline"
       style="stroke-width:0.709057" /></g><path
     style="fill:#c1a084;fill-opacity:1;stroke-width:0.101925"
     d="m 218.98651,75.832425 v -5.962631 h 2.03851 2.0385 v -8.001136 -8.001136 h 1.98755 1.98754 v -6.013593 -6.013593 h 15.95131 15.95131 v 6.013593 6.013593 h 1.98754 1.98755 v 8.001136 8.001136 h 1.98754 1.98754 v 5.962631 5.96263 h -3.92412 -3.92413 v -8.001136 -8.001137 h -1.98754 -1.98754 v -4.026049 -4.026049 h -2.03851 -2.0385 V 55.75314 53.765597 h -3.97509 -3.97509 V 51.778053 49.79051 h -2.0385 -2.03851 v 1.985389 1.985388 l -2.01302,0.02764 -2.01303,0.02764 -0.0277,1.962062 -0.0277,1.962063 h -1.98535 -1.98534 v 4.026049 4.026049 h -1.98754 -1.98755 v 8.001137 8.001136 h -3.97508 -3.97509 z"
     class="hair" /><path
     style="fill:#2485cd;fill-opacity:1;stroke-width:0.112616"
     d="m 246.97993,84.954739 -0.21621,-4.790489 h 4.22734 3.97508 v 4.790489 l 0.036,4.934633 -4.11923,-0.03604 -3.93905,0.144144 z"
     class="shirt"
     sodipodi:nodetypes="ccccccccc" /><path
     style="fill:#af598a;fill-opacity:1;stroke-width:0.101925"
     d="m 246.99432,86.779286 c -0.0119,-1.760296 -0.0364,-2.707475 -0.0544,-2.104841 l -0.0328,1.095697 h -7.94673 -7.94672 v -1.987544 -1.987543 h -1.98755 -1.98754 V 77.81956 73.844066 l 13.95683,0.0015 13.95682,0.0015 0.044,0.228197 0.044,0.228197 0.0139,-0.229332 c 0.0139,-0.229292 0.0142,-0.229332 1.95046,-0.229332 h 1.93658 v 3.975087 3.975087 h -1.92949 c -1.91992,0 -1.92971,-0.0011 -1.97367,-0.229332 -0.0243,-0.126133 -0.0504,1.68559 -0.0581,4.026049 l -0.0139,4.255382 -2.98131,5.27e-4 c -1.63973,2.9e-4 -3.42851,0.03014 -3.97509,0.06634 l -0.99377,0.06581 z"
     class="shirt" /><path
     d="m 227,85.8 c 1.32,0 2.64,0 4,0 0,1.33663 0,2.67326 0,4.050395 -1.32,0 -2.64,0 -4,0 0,-1.33663 0,-2.673261 0,-4.050395 z"
     fill="#141414"
     class="outline"
     style="stroke-width:0.711547" /><path
     style="fill:#656e76;fill-opacity:1;stroke-width:0.0883883"
     d="m 231.00295,177.83736 v -3.93329 h 1.98873 1.98874 v 1.98874 1.98874 h 7.99915 7.99914 v -1.98874 -1.98874 h 1.98874 1.98874 v 3.93329 3.93328 h -11.97662 -11.97662 z"
     class="trousers" /><path
     style="fill:#656e76;fill-opacity:1;stroke-width:0.125"
     d="m 100.0625,178 v -1.9375 H 112 123.9375 V 178 179.9375 H 112 100.0625 Z"
     class="trousers" /><path
     style="fill:#656e76;fill-opacity:1;stroke-width:0.125"
     d="m 49.0625,181.9375 v -2 h -8 -8 V 176 172.0625 H 35 36.9375 v 2 2 H 45 53.0625 v -2 -2 H 57 60.9375 V 178 183.9375 H 55 49.0625 Z"
     class="trousers" /><path
     style="fill:#af5987;fill-opacity:1;stroke-width:0.125"
     d="m 100.0625,170 v -5.9375 H 110 h 9.9375 v 2 2 h 2 2 V 172 175.9375 H 120 116.0625 v -4 -4 H 112 107.9375 v 4 4 H 104 100.0625 Z"
     class="shirt" /><path
     style="fill:#af5987;fill-opacity:1;stroke-width:0.125"
     d="m 168.0625,173.9375 v -2 h -2 -2 V 168 164.0625 H 176 187.9375 V 168 v 3.9375 h -2 -2 v 2 2 H 176 168.0625 Z"
     class="shirt" /><path
     style="fill:#af5987;fill-opacity:1;stroke-width:0.125"
     d="m 235.0625,175.8125 v -2 h -2 -2 v -1.9375 -1.9375 h 2 2 v -2 -2 H 237 h 1.9375 v 2 2 H 243 h 4.0625 v -2 -2 H 249 h 1.9375 v 2 2 h 2 2 v 1.9375 1.9375 h -2 -2 v 2 2 H 243 235.0625 Z"
     class="shirt" /><path
     style="fill:#e69f73;fill-opacity:1;stroke-width:0.125"
     d="m 235.0625,71.8125 v -2 h -2 -2 V 67.875 65.9375 h 4 4 V 61.875 57.8125 h -2 -2 V 55.875 53.9375 h 2 2 v -2 -2 H 241 h 1.9375 v 2 2 h 4 4 v 1.9375 1.9375 h -2 -2 v 4.0625 4.0625 h 4 4 v 1.9375 1.9375 h -2 -2 v 2 2 H 243 235.0625 Z"
     class="skin" /><path
     style="fill:#e69f73;fill-opacity:1;stroke-width:0.125"
     d="M 120.0625,62 V 56.0625 H 122 123.9375 V 62 67.9375 H 122 120.0625 Z"
     class="skin" /><path
     style="fill:#e69f73;fill-opacity:1;stroke-width:0.125"
     d="M 120.0625,54 V 52.0625 H 124 127.9375 V 54 55.9375 H 124 120.0625 Z"
     class="skin" /><path
     style="fill:#e69f73;fill-opacity:1;stroke-width:0.125"
     d="M 53.0625,62 V 56.0625 H 55 56.9375 V 62 67.9375 H 55 53.0625 Z"
     class="skin" /><path
     style="fill:#e69f73;fill-opacity:1;stroke-width:0.125"
     d="M 53.0625,54 V 52.0625 H 57 60.9375 V 54 55.9375 H 57 53.0625 Z"
     class="skin" /><path
     style="fill:#e69f73;fill-opacity:1;stroke-width:0.125"
     d="m 53.0625,152 v -3.9375 H 55 56.9375 V 152 155.9375 H 55 53.0625 Z"
     class="skin" /><path
     style="fill:#e69f73;fill-opacity:1;stroke-width:0.125"
     d="m 120.0625,152 v -3.9375 H 122 123.9375 V 152 155.9375 H 122 120.0625 Z"
     class="skin" /><path
     style="fill:#e69f73;fill-opacity:1;stroke-width:0.125"
     d="m 184.0625,152 v -3.9375 H 186 187.9375 V 152 155.9375 H 186 184.0625 Z"
     class="skin" /><path
     style="fill:#e69f73;fill-opacity:1;stroke-width:0.125"
     d="m 231.0625,147.875 v -1.9375 h 2 2 v -2 -2 H 237 h 1.9375 v 3.9375 3.9375 H 235 231.0625 Z"
     class="skin" /><path
     style="fill:#e69f73;fill-opacity:1;stroke-width:0.125"
     d="m 251.0625,155.8125 v -6 h -2 -2 v -1.9375 -1.9375 h 2 2 v -2 -2 H 253 h 1.9375 v 6 6 h 2 2 v 3.9375 3.9375 H 255 251.0625 Z"
     class="skin" /><path
     style="fill:#e69f73;fill-opacity:1;stroke-width:0.125"
     d="m 227.0625,159.875 v -1.9375 H 231 h 3.9375 v 1.9375 1.9375 H 231 227.0625 Z"
     class="skin" /><path
     style="fill:#7c4066;fill-opacity:1;stroke-width:0.125"
     d="M 33.0625,82 V 80.0625 H 37 40.9375 V 82 83.9375 H 37 33.0625 Z"
     class="shirtShade" /><path
     style="fill:#f0eeec;fill-opacity:1;stroke-width:0.125"
     d="m 247.0625,183.875 v -1.9375 H 251 h 3.9375 v 1.9375 1.9375 H 251 247.0625 Z"
     class="shoes" /><path
     style="fill:#f0eeec;fill-opacity:1;stroke-width:0.125"
     d="m 231.0625,183.875 v -1.9375 H 235 h 3.9375 v 1.9375 1.9375 H 235 231.0625 Z"
     class="shoes" /><path
     style="fill:#f0eeec;fill-opacity:1;stroke-width:0.125"
     d="m 164.0625,182 v -1.9375 H 168 171.9375 V 182 183.9375 H 168 164.0625 Z"
     class="shoes" /><path
     style="fill:#f0eeec;fill-opacity:1;stroke-width:0.125"
     d="m 239.0625,167.875 v -1.9375 H 243 h 3.9375 v 1.9375 1.9375 H 243 239.0625 Z"
     class="shoes" /><path
     style="fill:#f0eeec;fill-opacity:1;stroke-width:0.125"
     d="m 108.0625,182 v -1.9375 H 112 115.9375 V 182 183.9375 H 112 108.0625 Z"
     class="shoes" /><path
     style="fill:#f0eeec;fill-opacity:1;stroke-width:0.125"
     d="m 33.0625,182 v -1.9375 H 37 40.9375 V 182 183.9375 H 37 33.0625 Z"
     class="shoes" /><path
     style="fill:#f0eeec;fill-opacity:1;stroke-width:0.125"
     d="M 33.0625,90 V 88.0625 H 37 40.9375 V 90 91.9375 H 37 33.0625 Z"
     class="shoes" /><path
     style="fill:#f0eeec;fill-opacity:1;stroke-width:0.125"
     d="M 164.0625,90 V 88.0625 H 168 171.9375 V 90 91.9375 H 168 164.0625 Z"
     class="shoes" /><path
     style="fill:#e69f73;fill-opacity:1;stroke-width:0.125"
     d="m 100.0625,162 v -1.9375 H 104 107.9375 V 162 163.9375 H 104 100.0625 Z"
     class="skin" /><path
     style="fill:#e69f73;fill-opacity:1;stroke-width:0.125"
     d="m 164.0625,162 v -1.9375 H 168 171.9375 V 162 163.9375 H 168 164.0625 Z"
     class="skin" /></svg>
