<?xml version="1.0" encoding="UTF-8"?>
<svg version="1.1" xmlns="http://www.w3.org/2000/svg" width="1596" height="651">
<path d="M0 0 C526.68 0 1053.36 0 1596 0 C1596 214.83 1596 429.66 1596 651 C1069.32 651 542.64 651 0 651 C0 436.17 0 221.34 0 0 Z " fill="#765841" transform="translate(0,0)"/>
<path d="M0 0 C526.68 0 1053.36 0 1596 0 C1596 214.5 1596 429 1596 650 C1584.12 650 1572.24 650 1560 650 C1560.33 649.01 1560.66 648.02 1561 647 C1561.61540664 640.76413422 1560.59337351 636.01214572 1558.1875 630.3125 C1555.18859216 622.61111625 1553.99592324 615.14639992 1553.04370117 606.96655273 C1552.12714718 599.30125638 1550.32851942 592.36743545 1548 585 C1546.26267534 578.75997609 1544.89378474 572.60516744 1544 566.1875 C1543.30683166 561.31221599 1541.97248234 557.52027204 1540 553 C1538.76340453 547.3480759 1537.86202371 541.79500425 1538 536 C1537.34 536 1536.68 536 1536 536 C1535.83564453 534.80503906 1535.83564453 534.80503906 1535.66796875 533.5859375 C1535.50941406 532.52632812 1535.35085938 531.46671875 1535.1875 530.375 C1534.96126953 528.80878906 1534.96126953 528.80878906 1534.73046875 527.2109375 C1534.1227312 523.95147643 1534.1227312 523.95147643 1532.515625 521.03125 C1530.84630807 517.69261614 1530.20894996 514.79490847 1529.5625 511.125 C1528.29301176 504.21314882 1526.64920703 497.45278959 1524.8671875 490.65625 C1524 487 1524 487 1523.5078125 483.34375 C1523.14482891 480.07509814 1523.14482891 480.07509814 1521.9765625 477.48828125 C1520.74729396 474.35610502 1520.57810593 471.53874781 1520.375 468.1875 C1520.30023437 467.02605469 1520.22546875 465.86460937 1520.1484375 464.66796875 C1520.09945313 463.78753906 1520.05046875 462.90710938 1520 462 C1519.34 462 1518.68 462 1518 462 C1517.73445313 460.85402344 1517.46890625 459.70804687 1517.1953125 458.52734375 C1516.83863258 456.99737464 1516.48185663 455.46742791 1516.125 453.9375 C1515.86396484 452.80924805 1515.86396484 452.80924805 1515.59765625 451.65820312 C1514.77331687 448.13186246 1513.9006107 444.66318071 1512.875 441.1875 C1511.91024794 437.67304607 1511.85194205 434.62741975 1512 431 C1511.34 431 1510.68 431 1510 431 C1504.6795499 408.37035225 1504.6795499 408.37035225 1505 401 C1504.34 401 1503.68 401 1503 401 C1500.74190046 392.9901375 1499.42741229 385.3124321 1499 377 C1498.34 377 1497.68 377 1497 377 C1496.87882812 376.28714844 1496.75765625 375.57429688 1496.6328125 374.83984375 C1495.88397177 370.55993098 1495.12502405 366.41674685 1493.875 362.25 C1492.92220066 358.71103103 1492.85108837 355.64833482 1493 352 C1492.34 352 1491.68 352 1491 352 C1490.73445313 350.7934375 1490.46890625 349.586875 1490.1953125 348.34375 C1489.83859941 346.72915391 1489.48182532 345.11457129 1489.125 343.5 C1488.86396484 342.31277344 1488.86396484 342.31277344 1488.59765625 341.1015625 C1486.38886713 331.10683552 1486.38886713 331.10683552 1483.4375 321.3125 C1481.58248923 315.30713685 1481.28403273 309.24872006 1481 303 C1480.34 303 1479.68 303 1479 303 C1477.01958205 295.6724536 1475.50704381 288.43985103 1474.52734375 280.91015625 C1474.00784055 278.04326822 1473.0828153 275.69144215 1472 273 C1471.92353835 270.6679198 1471.90856701 268.33154122 1472 266 C1471.01 265.67 1470.02 265.34 1469 265 C1465.19982988 258.19542188 1464.86900109 250.59793668 1465 243 C1464.34 243 1463.68 243 1463 243 C1460.67287381 233.66890177 1458.66875152 224.48827922 1457.4296875 214.9453125 C1456.92877315 211.51177231 1456.01957438 208.31361673 1455 205 C1454.56050175 202.44691469 1454.13718072 199.89478465 1453.7578125 197.33203125 C1452.75587402 194.24874633 1451.53501983 193.02167158 1449 191 C1445.92295422 190.4035332 1445.92295422 190.4035332 1442.42017651 190.50501537 C1441.42301995 190.49764305 1441.42301995 190.49764305 1440.40571881 190.49012178 C1438.16024296 190.47846814 1435.91588707 190.49551984 1433.67045593 190.51225281 C1432.03960987 190.50978922 1430.40876567 190.50557047 1428.77792811 190.49975377 C1424.2535932 190.48879105 1419.72962306 190.50303633 1415.2053235 190.52107215 C1410.26750546 190.53635483 1405.32971644 190.52843438 1400.3918848 190.52346039 C1391.6539703 190.51792612 1382.91616989 190.52754154 1374.17827606 190.54665184 C1360.94874175 190.57550819 1347.7192647 190.58117262 1334.4897026 190.58256773 C1311.70533345 190.58568676 1288.92102889 190.60823979 1266.13668823 190.64111328 C1243.16055449 190.67421242 1220.18443608 190.69892355 1197.20828247 190.71289062 C1195.75299799 190.71378482 1194.2977135 190.71467946 1192.84242902 190.71557455 C1186.95972699 190.71917844 1181.07702492 190.7227259 1175.19432281 190.72620972 C1110.72036602 190.76450308 1046.24646306 190.83555435 981.77254581 190.91510582 C975.22800671 190.92317853 968.6834676 190.93124579 962.13892849 190.93930445 C960.23844485 190.94164523 958.33796121 190.94398752 956.43747758 190.94633129 C909.67797532 191.00398568 862.91846575 191.05446438 816.15895493 191.10461199 C794.072375 191.12830736 771.98579532 191.15224382 749.8992157 191.17622375 C748.73322201 191.17748959 747.56722832 191.17875542 746.36590149 191.18005961 C629.60914125 191.30685164 512.85238647 191.43951034 89 192 C88.34 193.32 87.68 194.64 87 196 C86.34 196 85.68 196 85 196 C85.03480469 196.70640625 85.06960937 197.4128125 85.10546875 198.140625 C85.31286265 206.00184135 84.46578795 213.31728415 83.20996094 221.05834961 C82.21305833 227.29716224 81.49473122 233.51973884 80.9375 239.8125 C80.28406615 247.17700421 79.46461442 254.47718891 78.44140625 261.80078125 C77.88128635 265.86041131 77.42898228 269.92466835 77 274 C76.34 274 75.68 274 75 274 C75.01160156 274.83402344 75.02320312 275.66804688 75.03515625 276.52734375 C75.08794359 283.11067897 74.97738544 289.48409706 74 296 C73.67 296.33 73.34 296.66 73 297 C72.78519868 298.52262808 72.62929968 300.05367856 72.5 301.5859375 C72.4175 302.51664062 72.335 303.44734375 72.25 304.40625 C72.1675 305.3859375 72.085 306.365625 72 307.375 C71.83662503 309.2997614 71.6700932 311.22425816 71.5 313.1484375 C71.39171875 314.43500244 71.39171875 314.43500244 71.28125 315.74755859 C71 318 71 318 70 321 C69.8018921 322.35906836 69.63835849 323.72339929 69.5 325.08984375 C69.4175 325.87423828 69.335 326.65863281 69.25 327.46679688 C69.1675 328.28212891 69.085 329.09746094 69 329.9375 C68.83595363 331.5510498 68.66937157 333.16434423 68.5 334.77734375 C68.4278125 335.49140381 68.355625 336.20546387 68.28125 336.94116211 C68 339 68 339 67.49780273 340.99023438 C66.96690755 343.13360325 66.72893194 345.18001464 66.53515625 347.37890625 C66.45845703 348.21180176 66.38175781 349.04469727 66.30273438 349.90283203 C66.22345703 350.78052246 66.14417969 351.65821289 66.0625 352.5625 C65.47089267 358.81552254 64.74759975 364.93372622 63.5 371.09375 C62.6864945 375.82225069 62.24217502 380.59482147 61.78515625 385.36962891 C61.4163072 389.01524884 60.91897229 392.52458138 60.05249023 396.0871582 C58.85658029 401.36582048 58.21204285 406.66220743 57.59765625 412.03515625 C57.34441811 414.16601765 57.09116233 416.29687696 56.83789062 418.42773438 C56.4503649 421.73574383 56.06465617 425.04395857 55.67993164 428.35229492 C54.33351963 439.88003136 52.90142513 451.30103076 50.6315918 462.68579102 C49.79302437 467.08608202 49.28206962 471.47968859 48.875 475.9375 C48.12534309 483.87465691 48.12534309 483.87465691 47 485 C46.79647185 486.50202653 46.65267412 488.01224693 46.53515625 489.5234375 C46.45837646 490.45663818 46.38159668 491.38983887 46.30249023 492.35131836 C46.22329346 493.3491333 46.14409668 494.34694824 46.0625 495.375 C45.49351726 502.14508565 44.80169552 508.74282791 43.4296875 515.40234375 C42.90035524 518.60239784 42.73422977 521.7611765 42.5625 525 C42.21272819 531.17506234 41.46895709 537.20443455 40.5 543.3125 C40.30386108 544.55870117 40.30386108 544.55870117 40.10375977 545.83007812 C39.13556818 551.72886364 39.13556818 551.72886364 38 554 C37.73983091 556.39493277 37.52855066 558.77449995 37.3515625 561.17578125 C37.23208497 562.65953054 37.112282 564.14325365 36.9921875 565.62695312 C36.80850046 567.95195484 36.62765843 570.27707571 36.453125 572.6027832 C35.80044283 581.2091022 34.83548227 589.34009384 32.71777344 597.73266602 C31.3379677 604.01359807 30.88224938 610.41657872 30.3125 616.8125 C30.18244252 618.19864318 30.05158698 619.58471172 29.91992188 620.97070312 C29.60547489 624.31315813 29.29897737 627.65613198 29 631 C28.34 631 27.68 631 27 631 C27.14086602 633.60452271 27.28748464 636.20850197 27.4375 638.8125 C27.47681641 639.55048828 27.51613281 640.28847656 27.55664062 641.04882812 C27.74381035 644.23071342 27.98720793 646.96162378 29 650 C19.43 650 9.86 650 0 650 C0 435.5 0 221 0 0 Z " fill="#7C808E" transform="translate(0,0)"/>
<path d="M0 0 C2.25 0.3125 2.25 0.3125 5 1 C11.35071862 2.1823117 17.61756945 2.36100523 24.0625 2.5625 C25.3812915 2.6042334 26.70008301 2.6459668 28.05883789 2.68896484 C40.68316807 3.05518144 53.30857672 3.10957229 65.9375 3.125 C66.92525421 3.1275882 67.91300842 3.13017639 68.93069458 3.13284302 C71.7754472 3.13872971 74.62009012 3.13710426 77.46484375 3.1328125 C78.7319368 3.13578087 78.7319368 3.13578087 80.02462769 3.1388092 C84.39043597 3.12188236 88.58077534 2.85489598 92.914505 2.25146484 C97.04302416 1.7536562 101.19906723 1.63881982 105.3515625 1.46484375 C106.32805756 1.42186661 107.30455261 1.37888947 108.31063843 1.33460999 C110.36962112 1.24483682 112.42867507 1.15668487 114.48779297 1.07006836 C117.59494989 0.93876982 120.70175995 0.80082051 123.80859375 0.66210938 C134.21443522 0.20837023 144.58282429 -0.14286518 155 0 C156.1125415 0.00036255 156.1125415 0.00036255 157.24755859 0.00073242 C164.12919787 0.02636401 170.12935262 0.26192347 175.4453125 4.99609375 C179.24363028 9.89191541 180.70577028 15.56209657 181.4375 21.625 C180.98320697 25.12954625 180.10902095 28.10872298 178.8515625 31.3984375 C177.60634855 35.20262325 176.82814315 39.0869635 176 43 C175.76772705 44.05405029 175.76772705 44.05405029 175.53076172 45.12939453 C170.30864075 69.09134305 168.20925558 93.68499278 166.71606445 118.12426758 C166.24465625 125.47093564 165.44649618 132.63705479 164.17773438 139.88574219 C163.00214228 146.64687362 162.19965406 153.4308033 161.4375 160.25 C160.53239188 168.3431073 159.58064944 176.41563077 158.44921875 184.48046875 C158.12894113 186.98977431 157.85920181 189.47056241 157.64453125 191.98828125 C156.81046002 201.41479873 155.21880877 210.56722738 153.1875 219.8125 C152.9512793 220.94018799 152.71505859 222.06787598 152.47167969 223.22973633 C150.11301772 233.4995494 150.11301772 233.4995494 145 237 C141.70734173 237 139.18779252 236.67253007 136 236 C122.19739271 233.13237446 108.39211254 231.70034028 94.36621094 230.34082031 C90.7946081 229.97920459 87.23423186 229.56268591 83.67431641 229.10107422 C77.52914068 228.36959409 71.59246048 227.90822205 65.3984375 227.96484375 C63.90104693 227.97267812 62.40365008 227.9793723 60.90625 227.98510742 C60.1136377 227.98852142 59.32102539 227.99193542 58.50439453 227.99545288 C-6.8790608 228.11416675 -6.8790608 228.11416675 -18 220 C-22.0134487 215.89321529 -23.80012742 212.59940537 -25 207 C-25.32097656 205.61361328 -25.32097656 205.61361328 -25.6484375 204.19921875 C-26.0624432 200.43176685 -25.42389004 197.95158798 -24.375 194.3125 C-22.36662255 186.91858392 -20.87522569 179.47324141 -19.5 171.9375 C-19.31099121 170.9060083 -19.12198242 169.8745166 -18.92724609 168.81176758 C-18.5208356 166.56766748 -18.12252102 164.32209247 -17.73046875 162.07543945 C-17.18961128 158.99776063 -16.59477384 155.93330934 -15.98828125 152.86791992 C-13.46091227 139.75672844 -12.36174892 127.00994618 -12.0730896 113.6713562 C-11.94510268 108.0085631 -11.74978176 102.34818239 -11.55078125 96.6875 C-11.51052322 95.54022934 -11.4702652 94.39295868 -11.42878723 93.21092224 C-10.46968546 67.63076793 -7.93148345 42.09472926 -4.375 16.75 C-4.21878677 15.62233719 -4.21878677 15.62233719 -4.05941772 14.47189331 C-3.76674079 12.39092124 -3.4608769 10.31246147 -3.1484375 8.234375 C-2.97489746 7.07131836 -2.80135742 5.90826172 -2.62255859 4.70996094 C-2 2 -2 2 0 0 Z " fill="#FEFDFD" transform="translate(163,297)"/>
<path d="M0 0 C2.86724686 0.57344937 3.8614515 0.8614515 6 3 C9.49532076 10.692257 11.38159435 17.17589886 8.625 25.375 C8.36976563 26.04273438 8.11453125 26.71046875 7.8515625 27.3984375 C6.60634855 31.20262325 5.82814315 35.0869635 5 39 C4.76772705 40.05405029 4.76772705 40.05405029 4.53076172 41.12939453 C-0.69135925 65.09134305 -2.79074442 89.68499278 -4.28393555 114.12426758 C-4.75534375 121.47093564 -5.55350382 128.63705479 -6.82226562 135.88574219 C-7.99785772 142.64687362 -8.80034594 149.4308033 -9.5625 156.25 C-10.46760812 164.3431073 -11.41935056 172.41563077 -12.55078125 180.48046875 C-12.87105887 182.98977431 -13.14079819 185.47056241 -13.35546875 187.98828125 C-14.18953998 197.41479873 -15.78119123 206.56722738 -17.8125 215.8125 C-18.0487207 216.94018799 -18.28494141 218.06787598 -18.52832031 219.22973633 C-20.88698228 229.4995494 -20.88698228 229.4995494 -26 233 C-29.29265827 233 -31.81220748 232.67253007 -35 232 C-48.80260729 229.13237446 -62.60788746 227.70034028 -76.63378906 226.34082031 C-80.2053919 225.97920459 -83.76576814 225.56268591 -87.32568359 225.10107422 C-93.47085932 224.36959409 -99.40753952 223.90822205 -105.6015625 223.96484375 C-107.09895307 223.97267812 -108.59634992 223.9793723 -110.09375 223.98510742 C-110.8863623 223.98852142 -111.67897461 223.99193542 -112.49560547 223.99545288 C-180.03763309 224.11808597 -180.03763309 224.11808597 -190.6171875 214.53515625 C-191.875 213.0625 -191.875 213.0625 -194 210 C-193.8125 207.625 -193.8125 207.625 -193 206 C-192.34 206.66 -191.68 207.32 -191 208 C-184.8622445 209.05751868 -178.71492792 209.22414929 -172.5 209.4375 C-164.52143726 209.75082737 -156.75630545 210.42879435 -148.84765625 211.5390625 C-145.50224099 211.93983306 -142.23583327 212.15978584 -138.87463379 212.2857666 C-132.47944678 212.53943645 -126.80143257 213.2174299 -120.58984375 214.9296875 C-106.79731856 218.29984486 -92.35667101 218.15844356 -78.22998047 218.66534424 C-74.39562755 218.80693762 -70.5621547 218.96934668 -66.72851562 219.12890625 C-58.81987337 219.45211279 -50.91157681 219.75663267 -43 220 C-42.05859161 220.04515747 -41.11718323 220.09031494 -40.14724731 220.13684082 C-37.48571799 220.264845 -37.48571799 220.264845 -34 220 C-31.89569999 216.84354999 -31.6723123 215.63234235 -31.359375 211.96875 C-31.21230103 210.43118042 -31.21230103 210.43118042 -31.06225586 208.86254883 C-30.95921143 207.75290771 -30.85616699 206.6432666 -30.75 205.5 C-29.62834743 194.5663791 -27.63679914 184.05696155 -25.12866211 173.36425781 C-23.48882358 166.33917514 -22.23253336 159.48362983 -21.42578125 152.3125 C-20.96628101 148.73767244 -20.25764254 145.27322441 -19.5 141.75 C-16.66386279 127.84146855 -15.89613397 113.98519618 -15.5 99.8125 C-14.8868507 78.59101125 -11.17271713 58.84241895 -6.44628906 38.18270874 C-5.70671049 34.94807512 -4.97321692 31.71206741 -4.23907471 28.47619629 C-3.69765051 26.10691872 -3.14479942 23.74050644 -2.59130859 21.37402344 C-0.93819227 14.18438248 0.49859046 7.42815285 0 0 Z " fill="#CACACA" transform="translate(334,301)"/>
<path d="M0 0 C1.485 0.99 1.485 0.99 3 2 C9.14305653 3.03969873 15.28219452 3.22405051 21.5 3.4375 C29.47856274 3.75082737 37.24369455 4.42879435 45.15234375 5.5390625 C48.49776931 5.93983429 51.76418676 6.15978738 55.12539673 6.2857666 C61.52271177 6.53952431 67.20393758 7.21828479 73.41796875 8.9296875 C87.17328489 12.2888852 101.56543513 12.15833931 115.65344238 12.66534424 C118.71004973 12.7786336 121.76600378 12.90586104 124.82202816 13.0337944 C143.40398768 13.83599989 143.40398768 13.83599989 162 14 C162 14.99 162 15.98 162 17 C163.11375 17.226875 164.2275 17.45375 165.375 17.6875 C169 19 169 19 170.4375 21.625 C170.623125 22.40875 170.80875 23.1925 171 24 C169.73046875 25.5078125 169.73046875 25.5078125 168 27 C163.82112502 26.85834322 159.96263914 26.19709466 155.87109375 25.359375 C143.12816071 22.7750477 130.29930533 21.59441531 117.36621094 20.34082031 C113.7946081 19.97920459 110.23423186 19.56268591 106.67431641 19.10107422 C100.52914068 18.36959409 94.59246048 17.90822205 88.3984375 17.96484375 C86.90104693 17.97267812 85.40365008 17.9793723 83.90625 17.98510742 C83.1136377 17.98852142 82.32102539 17.99193542 81.50439453 17.99545288 C13.76791416 18.11843903 13.76791416 18.11843903 3.41796875 8.53515625 C0.73299721 5.32171412 0 4.32867454 0 0 Z " fill="#B5B4B4" transform="translate(140,507)"/>
<path d="M0 0 C2.60278932 1.73519288 4.09741488 3.03429312 5.625 5.75 C5.625 6.74 5.625 7.73 5.625 8.75 C6.759375 8.585 7.89375 8.42 9.0625 8.25 C13.52952672 7.7005796 18.14064938 7.20108571 22.625 7.75 C23.285 8.41 23.945 9.07 24.625 9.75 C24.4375 12.25 24.4375 12.25 23.625 14.75 C22.635 15.41 21.645 16.07 20.625 16.75 C20.1498447 18.88855275 20.1498447 18.88855275 20.18359375 21.36328125 C20.15716797 22.28173828 20.13074219 23.20019531 20.10351562 24.14648438 C20.08321289 25.58991211 20.08321289 25.58991211 20.0625 27.0625 C19.84145702 39.13799596 19.84145702 39.13799596 17.625 42.75 C14.625 43.6875 14.625 43.6875 11.625 43.75 C9.625 41.75 9.625 41.75 9.48974609 39.31982422 C9.54211426 38.3248291 9.59448242 37.32983398 9.6484375 36.3046875 C9.72578125 34.69013672 9.72578125 34.69013672 9.8046875 33.04296875 C9.86914062 31.91503906 9.93359375 30.78710938 10 29.625 C10.05671875 28.48933594 10.1134375 27.35367187 10.171875 26.18359375 C10.31364694 23.3717837 10.46508561 20.56082719 10.625 17.75 C9.861875 17.79125 9.09875 17.8325 8.3125 17.875 C5.625 17.75 5.625 17.75 2.625 15.75 C0.15 17.235 0.15 17.235 -2.375 18.75 C-1.19570468 21.53742531 0.1330894 23.34700505 2.125 25.6875 C5.08520144 29.31374676 6.81597957 31.69696966 6.375 36.4375 C5.625 38.75 5.625 38.75 3.625 40.75 C2.305 40.75 0.985 40.75 -0.375 40.75 C-0.86419922 39.82767578 -0.86419922 39.82767578 -1.36328125 38.88671875 C-1.80027344 38.07847656 -2.23726563 37.27023437 -2.6875 36.4375 C-3.11675781 35.63699219 -3.54601562 34.83648437 -3.98828125 34.01171875 C-5.26783846 31.72749619 -5.26783846 31.72749619 -7.04296875 30.08203125 C-7.48253906 29.64246094 -7.92210937 29.20289063 -8.375 28.75 C-8.375 28.09 -8.375 27.43 -8.375 26.75 C-9.365 26.42 -10.355 26.09 -11.375 25.75 C-11.41238281 26.42546875 -11.44976562 27.1009375 -11.48828125 27.796875 C-11.55402344 28.68890625 -11.61976563 29.5809375 -11.6875 30.5 C-11.74550781 31.38171875 -11.80351562 32.2634375 -11.86328125 33.171875 C-12.4391181 36.07303774 -13.45096148 37.54225607 -15.375 39.75 C-20.25 38.875 -20.25 38.875 -21.375 37.75 C-21.71540719 33.23723485 -21.70031123 28.71143623 -21.75 24.1875 C-21.78738281 22.92357422 -21.82476562 21.65964844 -21.86328125 20.35742188 C-21.94840891 11.31024366 -20.49988096 6.46414967 -14.625 -0.25 C-9.77230613 -2.40675283 -4.86982895 -1.80364035 0 0 Z " fill="#A83C3C" transform="translate(294.375,320.25)"/>
<path d="M0 0 C6.73354742 2.12493095 13.64149485 2.40411136 20.64453125 2.75390625 C24 3 24 3 25.953125 3.515625 C29.24539959 4.29471288 32.57238479 4.19048425 35.9375 4.1875 C36.69458252 4.18814453 37.45166504 4.18878906 38.23168945 4.18945312 C43.88990923 4.13694618 49.24997123 3.42800941 54.82421875 2.44921875 C63.87132887 1.16949223 73.10002582 1.95864043 82.16015625 2.78125 C84.98216334 3.05136797 84.98216334 3.05136797 87.74609375 2.90625 C90 3 90 3 92 5 C92.25 7.5 92.25 7.5 92 10 C88.72226056 13.27773944 84.4833478 12.8576715 80 13 C77.78058412 12.8373203 75.60005684 12.55918007 73.39453125 12.265625 C66.29249331 11.47779697 59.41118115 11.8530618 52.375 13 C46.66604303 13.89839613 41.13965464 14.19214423 35.375 14.1875 C34.21943604 14.1884668 34.21943604 14.1884668 33.04052734 14.18945312 C29.51646958 14.15511015 26.39671045 13.86877809 23 13 C20.73032225 12.8731236 18.45914374 12.77217256 16.1875 12.6875 C6.57827526 12.18349486 -2.44527064 9.85623686 -11.375 6.25 C-16.49604644 4.40484454 -21.87201535 4.82427684 -27.23779297 5.02246094 C-29.15761323 5.08222525 -31.07984838 5.04795167 -33 5 C-33.66 4.34 -34.32 3.68 -35 3 C-34.67028521 -0.29714793 -34.3773161 -1.6226839 -32 -4 C-21.39116694 -7.67679203 -9.80148192 -4.20063511 0 0 Z " fill="#A83C3C" transform="translate(200,451)"/>
<path d="M0 0 C2.7345315 0.02148341 5.45420255 -0.00945227 8.1875 -0.0625 C36.91078569 -0.32879478 66.40421383 1.23164763 94.8125 5.5 C95.61469971 5.61851318 96.41689941 5.73702637 97.2434082 5.85913086 C102.75443761 6.75443761 102.75443761 6.75443761 105 9 C104.67028521 12.29714793 104.3773161 13.6226839 102 16 C99.375 16.046875 99.375 16.046875 96 15.75 C94.08767578 15.58564453 94.08767578 15.58564453 92.13671875 15.41796875 C88.02282584 15.01544855 83.91829484 14.53944995 79.8125 14.0625 C55.2225169 11.21339802 30.33960272 9.72563313 5.58496094 10.03662109 C0.90395279 10.08081301 -3.37767042 9.84042356 -8 9 C-8.33 9.33 -8.66 9.66 -9 10 C-11.4375 10.1875 -11.4375 10.1875 -14 10 C-14.66 9.34 -15.32 8.68 -16 8 C-15.9375 5.0625 -15.9375 5.0625 -15 2 C-10.52058154 -1.95242805 -5.48310591 -1.82770197 0 0 Z " fill="#A83B3B" transform="translate(192,379)"/>
<path d="M0 0 C4.57151955 1.64521916 8.67443207 1.93879548 13.5 2.0078125 C20.16914774 2.21872339 26.5621671 2.86643419 33.125 4.0703125 C41.42202153 5.56345699 48.66041513 6.13590561 57 4.5078125 C68.29727694 2.32735905 77.7715955 4.00006417 88.5625 7.5078125 C89.5625 8.5078125 89.5625 8.5078125 89.75 10.9453125 C89.5625 13.5078125 89.5625 13.5078125 87.5625 15.5078125 C83.48120082 15.77989911 80.54883829 15.85088669 76.6875 14.5078125 C70.35542011 12.48154694 64.07342588 13.33689211 57.625 14.5078125 C47.87355972 16.22574685 39.33728772 15.4114121 29.68920898 13.64794922 C24.1194351 12.66583233 18.64826369 12.17610685 13 11.9453125 C-0.68313293 11.38499603 -0.68313293 11.38499603 -6.4375 8.5078125 C-12.52379526 8.21092005 -18.58575221 8.30659619 -24.625 9.1328125 C-25.883125 9.2565625 -27.14125 9.3803125 -28.4375 9.5078125 C-30.4375 7.5078125 -30.4375 7.5078125 -30.5625 4.3828125 C-30.52125 3.4340625 -30.48 2.4853125 -30.4375 1.5078125 C-20.98908372 -2.30789407 -9.70386053 -3.51337606 0 0 Z " fill="#A73B3B" transform="translate(195.4375,485.4921875)"/>
<path d="M0 0 C0.69950775 0.00005539 1.3990155 0.00011078 2.11972046 0.00016785 C4.37873921 0.00725024 6.63589281 0.04494637 8.89453125 0.0859375 C10.44457525 0.10163936 11.99462424 0.11685648 13.54467773 0.1315918 C39.31319181 0.45934988 39.31319181 0.45934988 48.8828125 3.9296875 C54.58152006 5.9108717 60.35627788 6.51046602 66.33203125 7.1484375 C68.04821655 7.34276367 68.04821655 7.34276367 69.79907227 7.54101562 C77.27593956 8.34080504 84.54191699 8.68702876 92.046875 8.2734375 C94.70703125 8.4609375 94.70703125 8.4609375 96.59765625 9.83203125 C97.70703125 11.4609375 97.70703125 11.4609375 97.51953125 13.5234375 C96.70703125 15.4609375 96.70703125 15.4609375 94.70703125 17.4609375 C85.09143318 19.2346886 75.46632472 18.34744353 65.83203125 17.2109375 C64.78716553 17.08952393 63.7422998 16.96811035 62.66577148 16.84301758 C56.89180017 16.09646632 51.54829473 14.9165075 46.0078125 13.14306641 C32.7477173 9.2117521 17.69941648 10.0026828 4.0390625 10.76171875 C3.0809668 10.81416748 2.12287109 10.86661621 1.13574219 10.9206543 C-0.74840717 11.02930584 -2.63196112 11.14894078 -4.51464844 11.28051758 C-5.36833008 11.33232178 -6.22201172 11.38412598 -7.1015625 11.4375 C-7.86267334 11.48986816 -8.62378418 11.54223633 -9.40795898 11.59619141 C-11.29296875 11.4609375 -11.29296875 11.4609375 -13.29296875 9.4609375 C-13.20365661 6.06707613 -12.58495658 4.75743414 -10.19018555 2.32568359 C-6.53994742 -0.02373234 -4.31983895 -0.02765478 0 0 Z " fill="#A83C3C" transform="translate(185.29296875,412.5390625)"/>
<path d="M0 0 C1.83190201 3.12500932 1.7932904 6.36734526 1.0625 9.8125 C-2.31360591 13.70013711 -6.09288166 14.6725898 -10.9375 15.8125 C-10.4321875 16.40417969 -9.926875 16.99585938 -9.40625 17.60546875 C-8.7565625 18.39566406 -8.106875 19.18585938 -7.4375 20 C-6.46296875 21.16595703 -6.46296875 21.16595703 -5.46875 22.35546875 C-3.72241849 25.15761804 -3.45822906 26.57197492 -3.9375 29.8125 C-5.9375 31.8125 -5.9375 31.8125 -8.34375 32.17578125 C-11.70693224 31.70473314 -12.40581127 30.65940387 -14.4375 28 C-17.00900115 24.82079179 -19.19591508 22.62660178 -22.9375 20.8125 C-22.710625 21.885 -22.48375 22.9575 -22.25 24.0625 C-21.9375 27.8125 -21.9375 27.8125 -23.0625 30.25 C-24.9375 31.8125 -24.9375 31.8125 -27.5 32.1875 C-29.9375 31.8125 -29.9375 31.8125 -31.9375 29.8125 C-32.73611493 23.0242731 -31.87935353 16.01916831 -31.125 9.25 C-31.05506836 8.5595459 -30.98513672 7.8690918 -30.91308594 7.15771484 C-30.57229077 4.41302392 -30.24251575 2.2551448 -28.65625 -0.046875 C-19.58468157 -6.06709768 -8.96568675 -5.49509833 0 0 Z " fill="#A83B3B" transform="translate(197.9375,321.1875)"/>
<path d="M0 0 C2.91366558 1.53629639 3.63789405 2.30059107 5.5625 5.1875 C6.20925281 9.34519663 5.76846348 10.87249703 3.4375 14.4375 C-1.84706305 19.49229944 -6.5411516 19.25837717 -13.4375 19.1875 C-13.48648438 20.31929688 -13.53546875 21.45109375 -13.5859375 22.6171875 C-13.66096514 24.09898339 -13.73651297 25.580753 -13.8125 27.0625 C-13.8434375 27.80886719 -13.874375 28.55523437 -13.90625 29.32421875 C-14.2109375 34.9609375 -14.2109375 34.9609375 -16.4375 37.1875 C-18.9375 37.5 -18.9375 37.5 -21.4375 37.1875 C-23.7631523 33.69902156 -23.64113163 32.51243916 -23.484375 28.41796875 C-23.44183594 27.28166016 -23.39929688 26.14535156 -23.35546875 24.97460938 C-23.27232422 23.19280273 -23.27232422 23.19280273 -23.1875 21.375 C-23.12755859 19.6105957 -23.12755859 19.6105957 -23.06640625 17.81054688 C-22.49331994 4.1106864 -22.49331994 4.1106864 -18.5 0.375 C-12.62976515 -3.00483219 -6.0325367 -2.88416901 0 0 Z " fill="#A83B3B" transform="translate(242.4375,319.8125)"/>
<path d="M0 0 C0.3403125 1.1446875 0.3403125 1.1446875 0.6875 2.3125 C2.28532265 5.58423209 3.86673322 6.27670327 7 8 C9.84283308 12.26424962 9.87169115 15.9972508 9 21 C6.9617952 24.73557268 4.25991258 27.16005828 0.75 29.5 C-3.62017846 30.2945779 -7.69555658 30.11675215 -12 29 C-14.77270108 26.79315629 -16.42745556 25.14508888 -18 22 C-18.56088092 16.00288865 -18.45741843 11.12651698 -15 6 C-9.93028726 0.42331599 -7.5478868 -1.42412959 0 0 Z " fill="#A83B3B" transform="translate(262,329)"/>
<path d="M0 0 C0.99 0.66 1.98 1.32 3 2 C3.375 4.5 3.375 4.5 3 7 C0 9 0 9 -3 9 C-3.33 11.31 -3.66 13.62 -4 16 C-2.88625 15.95875 -1.7725 15.9175 -0.625 15.875 C3 16 3 16 5 18 C4.67028521 21.29714793 4.3773161 22.6226839 2 25 C-0.68839385 25.26991906 -3.29141936 25.08737357 -6 25 C-6 25.66 -6 26.32 -6 27 C-5.34 26.67 -4.68 26.34 -4 26 C-1 25.8125 -1 25.8125 2 26 C4 28 4 28 4.3125 30.5 C4.209375 31.325 4.10625 32.15 4 33 C0.59642091 35.26905272 -1.40492779 35.53012324 -5.4375 35.9375 C-6.57058594 36.07027344 -7.70367187 36.20304687 -8.87109375 36.33984375 C-12 36 -12 36 -14.41015625 33.83984375 C-18.69075593 26.19366201 -14.24039942 15.19270488 -12.1328125 7.15234375 C-11.07057027 4.19638004 -10.49821915 2.8140335 -8 1 C-5.01413769 0.00471256 -3.10857 -0.23314275 0 0 Z " fill="#A83C3C" transform="translate(212,322)"/>
<path d="M0 0 C3.09902323 3.09902323 2.9898579 5.39147385 3.0625 9.75 C3.041875 10.8225 3.02125 11.895 3 13 C3.66 13 4.32 13 5 13 C5.48229332 15.49943204 5.96089426 17.99948243 6.4375 20.5 C6.57220703 21.19609375 6.70691406 21.8921875 6.84570312 22.609375 C7.75371019 27.39302198 8.43896713 32.1631341 9 37 C9.66 37 10.32 37 11 37 C11.19335938 38.134375 11.38671875 39.26875 11.5859375 40.4375 C11.84880225 41.95836032 12.11183192 43.47919214 12.375 45 C12.50132813 45.74378906 12.62765625 46.48757813 12.7578125 47.25390625 C13.40974087 51.00249437 14.14293402 54.68984988 15.09375 58.375 C15.86494415 61.45977661 16.19659837 63.85442607 16 67 C13.77491331 64.77491331 13.56466746 63.88935726 12.9296875 60.89453125 C12.75566406 60.07533203 12.58164063 59.25613281 12.40234375 58.41210938 C12.22832031 57.55423828 12.05429688 56.69636719 11.875 55.8125 C11.69324219 54.97396484 11.51148438 54.13542969 11.32421875 53.27148438 C10.31504323 48.41150751 9.79858906 43.96142289 10 39 C9.34 39 8.68 39 8 39 C7.62875 37.205625 7.62875 37.205625 7.25 35.375 C6.36489261 31.32247258 5.21706679 27.40204966 4 23.4375 C1.73385317 15.70046886 0.78908217 7.99464826 0 0 Z " fill="#796B65" transform="translate(1494,364)"/>
<path d="M0 0 C0.99 0.495 0.99 0.495 2 1 C3.17169312 4.98375661 3.08089427 8.87439224 3 13 C3.66 13 4.32 13 5 13 C5.18175781 14.14597656 5.36351562 15.29195312 5.55078125 16.47265625 C5.80422102 18.00268151 6.05815357 19.5326252 6.3125 21.0625 C6.43044922 21.81466797 6.54839844 22.56683594 6.66992188 23.34179688 C7.50464189 28.28590771 8.97961695 32.38428447 11 37 C11.73046875 40.3515625 11.73046875 40.3515625 12.1875 43.625 C12.34605469 44.71039062 12.50460937 45.79578125 12.66796875 46.9140625 C12.96165227 49.6435917 13.06624287 52.25856446 13 55 C10.66709759 52.66709759 10.47407628 51.48474675 9.78125 48.30859375 C9.57113281 47.36306641 9.36101562 46.41753906 9.14453125 45.44335938 C8.93183594 44.45142578 8.71914062 43.45949219 8.5 42.4375 C8.18095703 40.99020508 8.18095703 40.99020508 7.85546875 39.51367188 C7.2310641 36.67703603 6.61472981 33.83874617 6 31 C4.91025651 25.98932146 3.76466066 21.01676988 2.4375 16.0625 C1.07976882 10.72071924 0.35252156 5.49447395 0 0 Z " fill="#796A63" transform="translate(1533,523)"/>
<path d="M0 0 C0.33 0 0.66 0 1 0 C1.02685095 2.47923801 1.04676547 4.9581884 1.0625 7.4375 C1.07087891 8.14455078 1.07925781 8.85160156 1.08789062 9.58007812 C1.09653588 11.38693559 1.05220011 13.19387603 1 15 C0.67 15.33 0.34 15.66 0 16 C-0.20313655 17.42887034 -0.34715914 18.86625598 -0.46484375 20.3046875 C-0.54154297 21.19269043 -0.61824219 22.08069336 -0.69726562 22.99560547 C-0.77654297 23.94580566 -0.85582031 24.89600586 -0.9375 25.875 C-1.51934892 32.42080035 -2.18011526 38.84715353 -3.4921875 45.29296875 C-4.59116644 51.15137187 -5.25013678 57.08884419 -6 63 C-6.33 63 -6.66 63 -7 63 C-6.6466562 51.65644556 -5.81751471 40.56345233 -4.09106445 29.34204102 C-3.20328919 23.56246524 -2.55745688 17.82570167 -2.2109375 11.984375 C-2 10 -2 10 -1 9 C-0.76807135 7.48530552 -0.58784762 5.96245438 -0.4375 4.4375 C-0.35371094 3.61121094 -0.26992188 2.78492188 -0.18359375 1.93359375 C-0.12300781 1.29550781 -0.06242187 0.65742188 0 0 Z " fill="#796A62" transform="translate(48,475)"/>
<path d="M0 0 C0.66 0 1.32 0 2 0 C2.12117188 0.71285156 2.24234375 1.42570312 2.3671875 2.16015625 C3.31181934 7.55909056 4.48183121 12.73106127 6 18 C9.22150918 31.6636424 9.22150918 31.6636424 9 37 C9.66 37 10.32 37 11 37 C11.33808686 39.06172613 11.67027361 41.1244203 12 43.1875 C12.2784375 44.91033203 12.2784375 44.91033203 12.5625 46.66796875 C12.93489477 49.50415393 13.08596021 52.14719564 13 55 C10.98232505 51.97348757 10.33866468 49.93345548 9.5 46.4375 C9.24089844 45.35855469 8.98179688 44.27960938 8.71484375 43.16796875 C7.93845332 39.72724394 7.25832681 36.27685657 6.59765625 32.8125 C5.9903346 29.95451578 5.27291815 27.13456072 4.53588867 24.30761719 C2.4340778 16.23742949 0.98489554 8.29385715 0 0 Z " fill="#796A62" transform="translate(1470,266)"/>
<path d="M0 0 C2.1519437 3.22791555 2.20086443 4.28400809 2 8 C2.66 8 3.32 8 4 8 C4.20496094 9.21558594 4.40992188 10.43117188 4.62109375 11.68359375 C4.89301961 13.26826514 5.16516643 14.85289863 5.4375 16.4375 C5.57220703 17.23994141 5.70691406 18.04238281 5.84570312 18.86914062 C6.20267224 22.75471303 6.20267224 22.75471303 8 26 C9.9190191 33.59264077 11.32759792 41.20013592 12 49 C8.70450991 45.46583932 8.14827001 41.67619643 7.4375 37.0625 C6.70095972 32.47069743 5.7670474 28.31471815 4 24 C3.42385764 20.95524769 2.99580666 17.90780968 2.5625 14.83984375 C2.13984387 12.04640643 2.13984387 12.04640643 0.9453125 9.89453125 C-0.66338606 6.67048662 -0.11835951 3.55078517 0 0 Z " fill="#796B64" transform="translate(1516,454)"/>
<path d="M0 0 C5.9660254 5.9660254 7.85198355 21.74189199 8.08203125 29.9140625 C8.05496094 30.60242188 8.02789063 31.29078125 8 32 C8.66 32 9.32 32 10 32 C10.33 35.63 10.66 39.26 11 43 C7.01499541 39.01499541 6.21752462 31.92104485 5.80859375 26.4296875 C5.8118393 24.61867035 5.89569152 22.80801365 6 21 C5.34 21 4.68 21 4 21 C3.32781493 18.25124318 2.66207565 15.50119274 2 12.75 C1.80921875 11.97269531 1.6184375 11.19539062 1.421875 10.39453125 C1.24140625 9.64042969 1.0609375 8.88632813 0.875 8.109375 C0.70742187 7.41811523 0.53984375 6.72685547 0.3671875 6.01464844 C0 4 0 4 0 0 Z " fill="#7A6D68" transform="translate(1459,222)"/>
<path d="M0 0 C1.84765625 0.33984375 1.84765625 0.33984375 4.0625 0.9375 C5.16271484 1.22947266 5.16271484 1.22947266 6.28515625 1.52734375 C7.13400391 1.76130859 7.13400391 1.76130859 8 2 C7.25 6.75 7.25 6.75 5 9 C1.875 8.625 1.875 8.625 -1 8 C-1.04241723 5.66705225 -1.04092937 3.33297433 -1 1 C-0.67 0.67 -0.34 0.34 0 0 Z " fill="#FCF9F9" transform="translate(254,341)"/>
<path d="M0 0 C0.33 0 0.66 0 1 0 C1.33480349 6.807671 0.66286772 13.22401116 -0.375 19.9375 C-0.50108643 20.77837158 -0.62717285 21.61924316 -0.75708008 22.4855957 C-0.88622803 23.28312256 -1.01537598 24.08064941 -1.1484375 24.90234375 C-1.26364746 25.61898193 -1.37885742 26.33562012 -1.49755859 27.07397461 C-2 29 -2 29 -4 32 C-3.88496731 29.4783624 -3.75825223 26.9581881 -3.625 24.4375 C-3.5940625 23.73302734 -3.563125 23.02855469 -3.53125 22.30273438 C-3.27154935 17.60648099 -2.37841713 13.52293119 -1 9 C-0.74411484 7.36088654 -0.52748711 5.71444365 -0.375 4.0625 C-0.30023438 3.29035156 -0.22546875 2.51820313 -0.1484375 1.72265625 C-0.09945312 1.15417969 -0.05046875 0.58570313 0 0 Z " fill="#796960" transform="translate(40,538)"/>
<path d="M0 0 C2.9146658 4.3719987 4.29611205 7.72076872 5.125 12.9375 C5.29257813 13.95714844 5.46015625 14.97679687 5.6328125 16.02734375 C5.96614565 18.72592382 6.06998996 21.28538935 6 24 C3.80271677 21.80271677 3.57397224 20.95301977 2.9296875 18.0078125 C2.75566406 17.22019531 2.58164063 16.43257813 2.40234375 15.62109375 C2.22832031 14.79738281 2.05429688 13.97367187 1.875 13.125 C1.69324219 12.30902344 1.51148438 11.49304688 1.32421875 10.65234375 C0.52047457 6.94786868 0 3.82646491 0 0 Z " fill="#796A63" transform="translate(1483,321)"/>
<path d="M0 0 C0.66 0 1.32 0 2 0 C2.12117188 0.71285156 2.24234375 1.42570312 2.3671875 2.16015625 C3.48256732 8.60932598 3.48256732 8.60932598 5.125 14.9375 C6 18 6 18 6 22 C5.34 22 4.68 22 4 22 C3.33021327 18.70896017 2.66470178 15.4170703 2 12.125 C1.80921875 11.18785156 1.6184375 10.25070312 1.421875 9.28515625 C1.24140625 8.38925781 1.0609375 7.49335938 0.875 6.5703125 C0.70742187 5.74289551 0.53984375 4.91547852 0.3671875 4.06298828 C0 2 0 2 0 0 Z " fill="#7A6F6D" transform="translate(1470,266)"/>
<path d="M0 0 C0.99 0.495 0.99 0.495 2 1 C3.17169312 4.98375661 3.08089427 8.87439224 3 13 C3.66 13 4.32 13 5 13 C5.33 15.97 5.66 18.94 6 22 C5.34 22 4.68 22 4 22 C1.99763587 14.67059167 0.48701051 7.59064664 0 0 Z " fill="#7A706E" transform="translate(1533,523)"/>
<path d="M0 0 C2.51884651 2.51884651 2.8257588 4.43644242 3.6875 7.875 C3.95949219 8.92429687 4.23148438 9.97359375 4.51171875 11.0546875 C4.97540921 13.85166838 4.94575698 15.372192 4 18 C3.67 15.69 3.34 13.38 3 11 C2.34 11 1.68 11 1 11 C-0.17571451 7.32589215 -0.07366746 3.83070817 0 0 Z " fill="#796B65" transform="translate(1549,590)"/>
<path d="M0 0 C0 0.66 0 1.32 0 2 C-1.26839526 2.50615298 -2.53983102 3.00469099 -3.8125 3.5 C-4.87404297 3.91765625 -4.87404297 3.91765625 -5.95703125 4.34375 C-8 5 -8 5 -11 5 C-11 4.01 -11 3.02 -11 2 C-7.17010894 0.19769832 -4.21878192 -0.19622241 0 0 Z " fill="#F5E9E9" transform="translate(188,326)"/>
<path d="M0 0 C2 2 2 2 2.125 4.625 C2.08375 5.40875 2.0425 6.1925 2 7 C2.66 7 3.32 7 4 7 C4.33 10.63 4.66 14.26 5 18 C2.47580407 15.47580407 2.21042962 13.57642137 1.375 10.125 C1.11460938 9.07570313 0.85421875 8.02640625 0.5859375 6.9453125 C0 4 0 4 0 0 Z " fill="#796C67" transform="translate(1489,345)"/>
<path d="M0 0 C2.31 0 4.62 0 7 0 C7.33 0.66 7.66 1.32 8 2 C5.04335481 3.4783226 2.25770263 3.06032783 -1 3 C-0.67 2.01 -0.34 1.02 0 0 Z " fill="#FAF4F4" transform="translate(230,327)"/>
<path d="M0 0 C1.2065625 0.0309375 1.2065625 0.0309375 2.4375 0.0625 C2.4375 0.7225 2.4375 1.3825 2.4375 2.0625 C-1.5225 4.0425 -1.5225 4.0425 -5.5625 6.0625 C-3.26136364 0.07954545 -3.26136364 0.07954545 0 0 Z " fill="#F5EAEA" transform="translate(287.5625,327.9375)"/>
</svg>
