<?xml version="1.0" encoding="UTF-8"?>
<svg version="1.1" xmlns="http://www.w3.org/2000/svg" width="1505" height="624">
<path d="M0 0 C496.65 0 993.3 0 1505 0 C1505 205.92 1505 411.84 1505 624 C1008.35 624 511.7 624 0 624 C0 418.08 0 212.16 0 0 Z " fill="#5B6D59" transform="translate(0,0)"/>
<path d="M0 0 C496.65 0 993.3 0 1505 0 C1505 27.06 1505 54.12 1505 82 C1008.35 82 511.7 82 0 82 C0 54.94 0 27.88 0 0 Z " fill="#634A37" transform="translate(0,542)"/>
<path d="M0 0 C0 19.14 0 38.28 0 58 C-496.65 58 -993.3 58 -1505 58 C-1505 38.86 -1505 19.72 -1505 0 C-1471.04305039 -0.03613757 -1437.08610053 -0.07203511 -1403.12915039 -0.10766602 C-1402.1306197 -0.10871381 -1402.1306197 -0.10871381 -1401.11191667 -0.10978277 C-1329.14431076 -0.1852926 -1257.17670308 -0.25875856 -1185.20909119 -0.32835388 C-1183.59288087 -0.32991731 -1181.97667055 -0.33148074 -1180.36046023 -0.33304417 C-1146.36410026 -0.3659244 -1112.36774003 -0.39853055 -1078.3713795 -0.43082409 C-1061.26953378 -0.44706962 -1044.16768812 -0.46336729 -1027.0658425 -0.47971445 C-1024.48763532 -0.48217859 -1021.90942814 -0.48464122 -1019.33122096 -0.4871038 C-969.20508322 -0.53499843 -919.07894982 -0.58617923 -868.95281824 -0.64012025 C-788.57680711 -0.72659925 -708.20079203 -0.80712632 -627.82476445 -0.87681012 C-625.40915703 -0.87890712 -622.99354961 -0.88101194 -620.5779422 -0.88311923 C-544.56914287 -0.94940227 -468.5603195 -1.00943486 0 0 Z " fill="#6FB64E" transform="translate(1505,484)"/>
<path d="M0 0 C0.928125 0.845625 1.85625 1.69125 2.8125 2.5625 C5.49303926 4.97937966 7.94113705 5.62771567 11.4375 6.4375 C17.06312286 7.75936767 19.9421535 9.9421535 24 14 C26.54059958 12.80251995 28.37016523 11.69303371 30.5625 9.875 C35.43046169 7.21974817 39.56692058 7.11264892 45 8 C47.99982095 9.26014783 50.39758815 11.0676121 53 13 C54.82726931 14.15547912 56.66101258 15.30076327 58.5 16.4375 C61.86609902 18.57913977 65.1318167 20.77918148 68.3125 23.1875 C68.94929687 23.66960937 69.58609375 24.15171875 70.2421875 24.6484375 C71.81601215 25.85853379 73.37760606 27.08449839 74.9375 28.3125 C78.42114671 30.23206043 80.9279921 30.45699611 84.828125 30.71875 C87.90290991 31.11692359 90.27508372 32.57561194 93 34 C96.01079551 34.34158134 97.53513636 34.27389263 100.16796875 32.72265625 C100.83441406 32.17480469 101.50085938 31.62695312 102.1875 31.0625 C106.32533334 27.71583938 108.40873465 26.82995707 113.8125 26.75 C114.85019531 26.72421875 115.88789062 26.6984375 116.95703125 26.671875 C120 27 120 27 122.42578125 28.515625 C125.90255459 30.52044119 128.39917252 30.19354941 132.375 30 C138.02575301 29.82132006 141.78665064 30.63923803 147 33 C150.03085074 33.10159276 153.02804718 32.99716686 156.05859375 32.90234375 C158.94561062 32.99819424 160.85593138 33.46039289 163.5 34.5625 C167.08470677 36.03479028 167.60653567 36.24381959 171 35 C172.423125 33.9790625 172.423125 33.9790625 173.875 32.9375 C179.27931474 29.67362502 185.92216479 30.51913366 192 31 C192.66 31.33 193.32 31.66 194 32 C195.70661589 32.12928908 197.41552364 32.22916898 199.125 32.3125 C202.9949861 32.61484266 205.75551733 33.13319944 209.125 35.0625 C213.32785165 37.42229785 217.26089104 37.90385068 222 37 C222.93457031 36.49726563 223.86914062 35.99453125 224.83203125 35.4765625 C228.55372496 33.74191364 230.98706535 33.75567974 235.0625 33.9375 C239.72135887 34.13478067 242.74936677 33.88119241 247 32 C248.299375 31.896875 249.59875 31.79375 250.9375 31.6875 C255.46984454 31.22068549 257.62149998 29.01908512 261 26 C270.67662607 20.87708032 281.8145904 20.0236819 292.5 21.6875 C295.87522832 22.11665274 297.97563417 21.82460541 301.125 20.5625 C310.16757391 17.13201304 319.97157645 18.40267716 328.96875 21.26171875 C332.93038169 22.2266007 336.81228283 22.51566227 340.875 22.75 C341.60122559 22.79439209 342.32745117 22.83878418 343.07568359 22.88452148 C346.90490026 23.06625154 350.27733864 22.88117885 354 22 C362.96573372 20.91230267 370.19640136 23.78340983 377.98046875 28.09765625 C380.60108982 29.26857205 383.10245004 29.63706375 385.9375 30.0625 C391.86578092 30.9693546 391.86578092 30.9693546 394.703125 31.6171875 C397.11920577 32.20395626 397.11920577 32.20395626 399.8125 31.0625 C406.75306468 28.74897844 410.869766 29.68050748 417.3125 32.8125 C420.73034945 34.58488032 423.35367465 36.22458561 426 39 C428.10332891 39.71447643 428.10332891 39.71447643 430 40 C431.66243514 36.12827605 432.72379145 32.26982963 433.75 28.1875 C436.50632157 18.52522987 440.5160003 13.47431415 448.94921875 8.12890625 C455.15367489 4.71350087 462.90874358 5.17462316 469.69140625 6.54296875 C475.09824657 8.39153535 478.06268969 11.02698939 481.9375 15.1875 C488.28508714 21.35501375 493.98984386 20.87160911 502.33203125 20.890625 C512.20784437 20.9466807 520.15086691 24.41002543 527.78125 30.51171875 C532.30856115 33.54852429 537.41431563 33.11361192 542.6875 33.02734375 C544.20702883 33.01468032 545.72656022 33.00232066 547.24609375 32.99023438 C549.61092365 32.96563625 551.97561508 32.9378485 554.34033203 32.90405273 C580.59947228 32.55308338 580.59947228 32.55308338 589 39 C595.45145836 42.03598041 600.34196423 42.32712567 607.375 41.5625 C608.3016748 41.46976807 609.22834961 41.37703613 610.18310547 41.28149414 C617.31066058 40.41646299 622.29239002 38.38948481 628 34 C631.63313422 32.78895526 634.96954476 32.85430408 638.75 32.875 C639.4409375 32.87113281 640.131875 32.86726563 640.84375 32.86328125 C644.28401751 32.86974792 647.42236929 33.06574008 650.83984375 33.59765625 C654.04944156 34.30812556 654.04944156 34.30812556 656.8125 32.5625 C662.95247272 29.55270945 669.02191015 30.52913644 675.375 32.5625 C676.56222656 32.99755859 676.56222656 32.99755859 677.7734375 33.44140625 C680.35311085 34.08858746 681.4650972 33.69259639 684 33 C687.53460964 32.97050981 691.0565357 33.06568277 694.58984375 33.16015625 C697.98138963 33.00087403 699.91067286 32.27717893 703 31 C708.30957781 30.33786441 713.65545267 30.19024096 719 30 C720.2075293 29.94900146 720.2075293 29.94900146 721.43945312 29.89697266 C738.64093324 29.23043222 738.64093324 29.23043222 745.89453125 33.02734375 C751.95148367 35.8254535 758.36171279 34.92160335 764.8125 34.375 C766.23272461 34.28798828 766.23272461 34.28798828 767.68164062 34.19921875 C773.68709308 33.69497567 777.94387001 32.3989439 783.03393555 29.14306641 C787.31098864 26.65639528 791.40451318 26.87142023 796.28515625 26.8671875 C796.98265488 26.86623077 797.6801535 26.86527405 798.39878845 26.86428833 C799.86880585 26.86360964 801.3388263 26.86544222 802.80883789 26.86962891 C805.05817382 26.87498969 807.30731081 26.8696693 809.55664062 26.86328125 C810.98697961 26.86394193 812.41731846 26.86522288 813.84765625 26.8671875 C815.7968396 26.86887939 815.7968396 26.86887939 817.78540039 26.87060547 C821 27 821 27 824 28 C825.83016552 28.19845168 827.66429914 28.36182897 829.5 28.5 C832.60593842 28.73378031 835.03220722 29.01073574 838 30 C841.36955149 30.3057599 844.74320493 30.32376068 848.125 30.375 C849.03765625 30.41238281 849.9503125 30.44976562 850.890625 30.48828125 C857.01007136 30.56673569 860.81927496 29.46098556 866.00488281 26.23120117 C870.62026241 23.38301721 875.04800577 22.7753218 880.375 22.5625 C884.30853561 22.32194403 887.56939078 22.01443559 891.1875 20.4375 C896.69482971 18.11680132 902.13375261 17.85103014 907.71875 20.08984375 C909.42488062 20.95545414 911.11252006 21.85911163 912.7734375 22.80859375 C914.9348507 23.96513941 916.56736822 24.71931172 919 25 C920.76757036 24.05308731 922.53747744 23.10063966 924.21875 22.0078125 C929.78065399 18.86094577 936.85053718 19.26739252 943 20 C946.38832692 21.36579216 948.50873755 23.36103425 951 26 C951.85851563 26.8971875 952.71703125 27.794375 953.6015625 28.71875 C958.49981084 34.09255643 961.75378979 38.83778863 963.3515625 46.0625 C963.87472856 48.32017732 963.87472856 48.32017732 966.6875 49.625 C967.8321875 49.810625 967.8321875 49.810625 969 50 C969.680625 49.38125 970.36125 48.7625 971.0625 48.125 C974 46 974 46 977.375 45.375 C982.2200602 43.53721854 983.66359241 40.72176792 986.32421875 36.41015625 C988 34 988 34 990.171875 32.4609375 C992.19234764 31.1622984 992.19234764 31.1622984 992.44140625 28.94140625 C992.48136719 28.15636719 992.52132813 27.37132812 992.5625 26.5625 C993.74492531 18.99944 999.52293167 13.93994127 1005 9 C1006.485 8.505 1006.485 8.505 1008 8 C1008 27.47 1008 46.94 1008 67 C511.35 67 14.7 67 -497 67 C-497 47.53 -497 28.06 -497 8 C-491.92778843 4.95667306 -490.60847644 4.40963406 -485 5 C-479.04524804 7.14371071 -475.45201773 10.99945581 -472.70703125 16.671875 C-471.21338996 19.2711757 -471.21338996 19.2711757 -468.3984375 19.4609375 C-467.40070313 19.43257813 -466.40296875 19.40421875 -465.375 19.375 C-458.4598668 19.66765981 -454.7679899 22.12319706 -450 27 C-449.12890299 28.1540805 -448.27242827 29.31948884 -447.4375 30.5 C-446.633125 31.325 -445.82875 32.15 -445 33 C-443.17488299 32.81490559 -441.3501337 32.60993669 -439.53881836 32.31933594 C-434.24679068 31.65369768 -428.88806267 31.85737541 -423.5625 31.875 C-422.36689453 31.87113281 -421.17128906 31.86726563 -419.93945312 31.86328125 C-418.23885742 31.86521484 -418.23885742 31.86521484 -416.50390625 31.8671875 C-414.95425171 31.86887939 -414.95425171 31.86887939 -413.37329102 31.87060547 C-411 32 -411 32 -410 33 C-408.16769887 33.10951208 -406.33155677 33.15588502 -404.49609375 33.17578125 C-403.36236328 33.19962891 -402.22863281 33.22347656 -401.06054688 33.24804688 C-398.6726994 33.2905261 -396.28462794 33.32203838 -393.89648438 33.34179688 C-387.65873757 33.49307895 -383.29413599 33.94017257 -377.91137695 37.1027832 C-374.23546986 38.82828564 -370.3604119 38.53555378 -366.375 38.4375 C-365.55515625 38.44458984 -364.7353125 38.45167969 -363.890625 38.45898438 C-358.74949035 38.40525869 -355.58273115 37.47260353 -351 35 C-348.1484375 34.63671875 -348.1484375 34.63671875 -345.375 34.6875 C-343.99441406 34.69330078 -343.99441406 34.69330078 -342.5859375 34.69921875 C-340 35 -340 35 -338.08984375 35.984375 C-335.13806805 37.41888282 -332.45109097 37.39631498 -329.1875 37.5625 C-325.47128498 37.77343068 -321.92369572 38.01271738 -318.25 38.625 C-308.19996076 39.78461991 -302.88246018 37.06660548 -295 31 C-290.06390078 27.87716172 -285.736177 26.95705873 -280 28 C-277.57992815 29.09450486 -275.38396443 30.36950016 -273.12109375 31.7578125 C-268.15048554 34.66877643 -261.76480962 36.1290629 -256 36 C-253.72416805 35.3568301 -251.55752791 34.53719797 -249.34375 33.70703125 C-244.458448 32.23329848 -239.38693333 32.69051684 -234.37890625 33.33984375 C-222.56906937 34.86535243 -211.52357953 31.26178976 -201 26 C-197.80316086 25.7360408 -194.61315987 25.55617816 -191.41015625 25.39453125 C-187.57873373 25.23644006 -187.57873373 25.23644006 -184 24 C-182.54420833 23.84823793 -181.08513139 23.72686963 -179.625 23.625 C-175.87081198 23.25741498 -173.83414765 22.60741584 -171 20 C-170.34 20 -169.68 20 -169 20 C-168.7421875 19.39542969 -168.484375 18.79085938 -168.21875 18.16796875 C-166.12492731 14.4433803 -162.85494171 12.6749498 -159 11 C-156.40649075 10.59857672 -153.86917196 10.44052366 -151.25 10.30078125 C-147.99033163 9.86502697 -146.37949208 8.18656029 -144 6 C-137.56780648 2.89876384 -132.33565053 1.8739946 -125.23828125 1.8671875 C-123.95501953 1.86589844 -122.67175781 1.86460937 -121.34960938 1.86328125 C-120.68727295 1.86537598 -120.02493652 1.8674707 -119.3425293 1.86962891 C-117.30835611 1.87501096 -115.27440101 1.86965411 -113.24023438 1.86328125 C-111.32114258 1.86521484 -111.32114258 1.86521484 -109.36328125 1.8671875 C-107.60431519 1.86887939 -107.60431519 1.86887939 -105.80981445 1.87060547 C-103 2 -103 2 -101 3 C-99.64321226 3.02514566 -98.2849846 2.99024928 -96.9296875 2.921875 C-96.115 2.89609375 -95.3003125 2.8703125 -94.4609375 2.84375 C-92.75974062 2.78207519 -91.05903594 2.7043871 -89.359375 2.609375 C-83.6229043 2.46551367 -80.40553536 3.50908532 -75.72851562 6.81982422 C-73.63986347 8.24588983 -71.80093967 8.79652519 -69.3125 9.1875 C-66.75819828 9.64518205 -64.83306621 10.07328801 -62.4375 11.125 C-58.42902034 12.56394142 -53.97833142 12.86551999 -50 11.125 C-49.34 10.75375 -48.68 10.3825 -48 10 C-46.14375 9.566875 -46.14375 9.566875 -44.25 9.125 C-40.45466632 8.23613003 -37.30266834 6.76123722 -33.875 4.93359375 C-32 4 -32 4 -28.875 3.0625 C-26.18986099 2.07016602 -24.96947608 1.27016657 -22.875 -0.5625 C-15.83402845 -6.53201936 -7.2453352 -4.72853455 0 0 Z " fill="#3C503A" transform="translate(497,417)"/>
<path d="M0 0 C3.48445291 1.26643438 6.40821116 3.45641281 9.43115234 5.55981445 C10.13941162 6.04973877 10.8476709 6.53966309 11.57739258 7.04443359 C17.55925737 11.25572521 23.0701705 15.88475092 28.56396484 20.7043457 C40.2323911 30.93478485 52.58976389 39.8153802 65.72412109 48.05200195 C76.88745559 55.06614587 86.52730578 63.03564703 95.99365234 72.18481445 C96.72817627 72.87639648 97.4627002 73.56797852 98.21948242 74.28051758 C107.10131389 83.0525955 108.58761279 92.39610466 110.11865234 104.43481445 C112.2749943 120.25457449 115.36749588 135.85745669 118.55615234 151.49731445 C122.36435465 170.20640327 126.02677887 188.89480354 129.05615234 207.74731445 C129.38846244 209.74748472 129.72115616 211.74759231 130.05615234 213.74731445 C129.21052734 213.73829102 128.36490234 213.72926758 127.49365234 213.7199707 C120.720791 213.69250952 120.720791 213.69250952 114.79833984 216.4777832 C114.18216797 217.14422852 113.56599609 217.81067383 112.93115234 218.49731445 C111.07568359 220.4152832 111.07568359 220.4152832 109.05615234 221.74731445 C105.10133638 221.54041078 101.73359091 220.13750164 98.05615234 218.74731445 C96.47946333 218.38384878 94.89601768 218.04795338 93.30615234 217.74731445 C90.47182627 217.14502016 87.95237403 216.3653487 85.30615234 215.18481445 C76.8156862 211.42941597 67.17546902 211.73792958 58.47412109 214.7121582 C50.62603026 218.07200323 46.03117333 222.26022673 42.05615234 229.74731445 C41.39615234 230.73731445 40.73615234 231.72731445 40.05615234 232.74731445 C39.49927734 232.10665039 38.94240234 231.46598633 38.36865234 230.8059082 C30.66953484 222.07937469 23.80090322 215.41894527 13.05615234 210.74731445 C12.24791016 210.35286133 11.43966797 209.9584082 10.60693359 209.55200195 C0.51413523 205.13157265 -12.0754053 204.7886517 -22.38134766 208.74731445 C-26.59015707 210.73336444 -29.78140194 213.24895698 -33.31884766 216.24731445 C-36.53556314 218.70229702 -38.03020799 219.78223779 -42.11181641 219.6262207 C-44.4408741 219.06606759 -46.75410662 218.43700003 -49.04931641 217.7512207 C-54.13272193 216.27411585 -59.29004378 216.28937657 -64.55151367 216.21630859 C-69.13076684 216.08364395 -72.5548854 215.24637848 -76.77441406 213.50463867 C-81.0226324 212.0216347 -85.49720784 211.62101106 -89.94384766 211.05981445 C-91.39210938 210.86548828 -91.39210938 210.86548828 -92.86962891 210.66723633 C-95.22672597 210.3521788 -97.58459725 210.04573916 -99.94384766 209.74731445 C-99.95843018 208.70728271 -99.9730127 207.66725098 -99.98803711 206.59570312 C-100.0477918 202.58614272 -100.12493386 198.57704607 -100.20629883 194.56787109 C-100.23874438 192.86091864 -100.26699921 191.15387935 -100.2902832 189.44677734 C-100.42095972 180.0964554 -100.85742211 170.91696927 -102.06523132 161.63842773 C-103.66730469 149.25649795 -104.19674093 137.16482296 -104.13134766 124.6965332 C-104.1270896 123.87237349 -104.12283154 123.04821377 -104.11844444 122.19907951 C-104.08180107 116.27739266 -104.0153565 110.35616707 -103.94384766 104.43481445 C-103.87250954 98.43360042 -103.81184622 92.43260921 -103.77603149 86.43107033 C-103.75677022 84.06102812 -103.71933293 81.69174231 -103.6809082 79.32194519 C-103.67001548 77.87349066 -103.65995968 76.42502952 -103.65087891 74.9765625 C-103.62731323 73.09350655 -103.62731323 73.09350655 -103.60327148 71.17240906 C-103.97686962 67.41522033 -105.05837828 64.98989693 -106.94384766 61.74731445 C-105.47625 61.60036133 -105.47625 61.60036133 -103.97900391 61.45043945 C-93.49948226 60.25513512 -84.54407197 58.52428817 -76.94384766 50.74731445 C-72.95170936 44.3368616 -71.84026578 39.33950121 -72.19384766 31.80981445 C-72.26773558 25.34797934 -72.26773558 25.34797934 -70.86962891 22.75512695 C-69.50634766 21.43481445 -69.50634766 21.43481445 -66.94384766 19.74731445 C-66.44884766 19.25231445 -66.44884766 19.25231445 -65.94384766 18.74731445 C-62.02394897 18.38609512 -59.87615483 19.05673993 -56.56884766 21.12231445 C-46.90529891 26.71449922 -35.79979851 27.32253508 -25.00634766 24.50512695 C-19.14680218 22.35218789 -14.31771318 19.04910313 -10.94384766 13.74731445 C-10.28183645 12.25438383 -9.63730526 10.75363221 -9.00634766 9.24731445 C-4.79717964 -0.6235972 -4.79717964 -0.6235972 0 0 Z " fill="#7BB8A4" transform="translate(372.94384765625,160.252685546875)"/>
<path d="M0 0 C2.14640406 1.99764338 3.87058899 3.85810497 5.6875 6.125 C6.20932861 6.75374023 6.73115723 7.38248047 7.26879883 8.03027344 C11.22429274 12.86175984 14.85374138 17.89608985 18.41845703 23.01904297 C22.1994477 28.40851299 26.48406324 33.21230775 31 38 C42.96765932 50.69818072 55.87750109 65.06057089 57.8125 83 C58.18397202 86.00347059 58.58594965 89.00212232 59 92 C59.09555176 92.70688965 59.19110352 93.4137793 59.28955078 94.14208984 C62.20852232 114.22331874 71.54105411 133.06133759 80.25268555 151.20849609 C82.63501243 156.17563184 84.9002768 161.18295 87.0625 166.25 C87.37421143 166.95415039 87.68592285 167.65830078 88.00708008 168.38378906 C89.65061263 172.30764547 90.38827267 174.90657888 89 179 C88.36384766 178.40251953 88.36384766 178.40251953 87.71484375 177.79296875 C81.90047 172.54086411 76.25235942 169.23135743 68.2109375 169.51953125 C64.1482774 170.40240615 61.60292221 172.86802856 59 176 C57.07086655 179.18310846 57.07086655 179.18310846 56 182 C51.09088614 180.12856985 46.5041492 177.74551957 41.83984375 175.33984375 C36.06733942 172.61636509 30.32468992 172.29522269 24 173 C21.60717024 174.08078504 20.05294929 175.31552879 18 177 C17.34 177 16.68 177 16 177 C16 177.66 16 178.32 16 179 C9.47572816 179.12546677 9.47572816 179.12546677 7.22265625 178.53125 C-2.44670234 176.22012035 -10.8015522 177.11894026 -19.25 182.125 C-19.86915283 182.52259521 -20.48830566 182.92019043 -21.1262207 183.32983398 C-22.890625 184.4453125 -22.890625 184.4453125 -26 186 C-29.108605 185.1670463 -30.53951505 183.54856904 -33.0625 181.4375 C-36.98475465 178.18286316 -39.7886436 177.72359876 -44.83203125 177.76953125 C-47.76222389 178.08102921 -50.13926007 179.12678911 -52.8359375 180.265625 C-56.76833722 181.60008556 -60.87717089 181.75499581 -65 182 C-68 177.25 -68 177.25 -68 175 C-75.90484883 171.79533155 -81.96363496 170.65151457 -90 174 C-94.19506595 173.52741891 -97.44911803 171.89423495 -101.1875 170 C-106.27018639 167.57994818 -110.46032934 166.29841749 -116.07421875 166.10546875 C-118 166 -118 166 -120 165 C-121.918125 164.8453125 -121.918125 164.8453125 -123.875 164.6875 C-128.92092312 164.19184572 -133.3536618 162.6038916 -138.11328125 160.921875 C-141.77751157 159.75170131 -145.17449013 159.29426999 -149 159 C-150.38125498 154.85623505 -151.32259367 150.76549453 -151.9375 146.4375 C-152.07027344 145.54933594 -152.20304688 144.66117188 -152.33984375 143.74609375 C-151.93284316 140.45734186 -150.60315549 139.16521052 -148.41479492 136.7746582 C-145.60021654 133.24417153 -144.01887391 128.97278125 -142.1875 124.875 C-138.40519678 116.69984775 -134.29415074 109.30781879 -129 102 C-128.05946262 100.63098804 -127.12220338 99.25972054 -126.1875 97.88671875 C-120.96977984 90.27480755 -115.64468643 83.23640189 -109.29296875 76.53125 C-107.00389996 74.00430523 -105.03231397 71.40591384 -103.0625 68.625 C-89.52564572 49.69519372 -89.52564572 49.69519372 -80.125 46.875 C-77.60412367 45.8369921 -76.98450514 44.94415582 -75.625 42.625 C-71.32734268 35.59795329 -62.13419593 33.12248896 -54.5625 31.1875 C-52.71259292 30.77221474 -50.85850469 30.37493781 -49 30 C-48.11441406 29.7628125 -47.22882813 29.525625 -46.31640625 29.28125 C-45.55199219 29.1884375 -44.78757812 29.095625 -44 29 C-41.375 31.3125 -41.375 31.3125 -39 34 C-34.74402016 36.83731989 -30.99683101 36.63822452 -26 36 C-22.04777321 33.98795727 -19.27237405 31.82715629 -17 28 C-15.95803636 24.59519293 -16.01610997 21.50820472 -16.06542969 17.95678711 C-16.05300307 8.33133845 -16.05300307 8.33133845 -12.88671875 4.328125 C-8.85674671 1.43848579 -5.0749924 -1.07461199 0 0 Z " fill="#7BB8A4" transform="translate(680,207)"/>
<path d="M0 0 C9.49769233 1.07259913 18.75239704 7.64937519 26.30078125 13.1640625 C29.63595003 15.43255646 33.08080305 17.39190654 36.625 19.3125 C37.53946899 19.81898071 37.53946899 19.81898071 38.47241211 20.33569336 C45.1591895 23.88801576 51.89905096 25.09759985 59.375 26.0625 C65.78612717 26.89306358 65.78612717 26.89306358 68 28 C67.99555878 28.57612534 67.99111755 29.15225067 67.98654175 29.74583435 C67.94173261 35.83093747 67.91189921 41.91599254 67.89013672 48.0012207 C67.88017956 50.26165679 67.86660897 52.52208034 67.84912109 54.7824707 C67.76522404 65.91857029 67.72196775 76.8764784 69.25643921 87.92062378 C70.49666596 97.06494264 70.4113501 106.27805467 70.53173828 115.49145508 C70.72034826 128.68219978 71.86336911 141.35062304 74.0625 154.375 C75.24417366 162.37899271 75.42438858 170.42002045 75.65844727 178.49951172 C75.86135581 185.36726542 76.28934213 192.16557003 77 199 C76.30382568 199.31227539 75.60765137 199.62455078 74.89038086 199.94628906 C68.76590273 202.7333015 64.41052009 205.93228321 60 211 C59.39671875 210.59007812 58.7934375 210.18015625 58.171875 209.7578125 C57.37265625 209.21898437 56.5734375 208.68015625 55.75 208.125 C54.96109375 207.59132813 54.1721875 207.05765625 53.359375 206.5078125 C47.78514175 202.94547138 43.60832169 202.18391208 37 203 C34.09092008 203.9935942 31.5925149 205.36028972 29 207 C28.39671875 207.3815625 27.7934375 207.763125 27.171875 208.15625 C25.76351319 209.07760819 24.37874174 210.03488078 23 211 C22.56171875 210.49210938 22.1234375 209.98421875 21.671875 209.4609375 C14.27074586 201.42800465 6.45628937 196.74200478 -4.625 196.25 C-11.88630641 196.52584018 -16.23563832 198.83813087 -22 203 C-25 204 -25 204 -28.375 202.5625 C-34.94228201 199.96697494 -42.28489335 199.67317619 -48.953125 202.0546875 C-52.49445795 203.80464442 -55.71510041 205.81006694 -59 208 C-58.99666908 206.92671196 -58.99666908 206.92671196 -58.99327087 205.83174133 C-58.9732086 199.07859181 -58.9579956 192.32545065 -58.94818783 185.57227802 C-58.94297601 182.10066262 -58.93590932 178.6290719 -58.92456055 175.1574707 C-58.91158652 171.16357185 -58.90675772 167.16969881 -58.90234375 163.17578125 C-58.89718246 161.93290848 -58.89202118 160.69003571 -58.88670349 159.40950012 C-58.88662796 158.24867416 -58.88655243 157.08784821 -58.88647461 155.8918457 C-58.884254 154.87258499 -58.88203339 153.85332428 -58.87974548 152.80317688 C-58.92440347 150.04429403 -58.92440347 150.04429403 -59.49624634 147.5642395 C-60.1241162 144.36821568 -60.14817438 141.33771521 -60.17358398 138.08032227 C-60.180271 137.40291992 -60.18695801 136.72551758 -60.19384766 136.02758789 C-60.20785641 134.55990424 -60.21976361 133.09219933 -60.22979546 131.62448311 C-60.24636339 129.27822065 -60.26961895 126.93210836 -60.29469299 124.58592224 C-60.36494209 117.91535141 -60.42470943 111.24471115 -60.47680664 104.57397461 C-60.65556148 71.05575684 -60.65556148 71.05575684 -65.0625 37.875 C-65.23587891 36.95847656 -65.40925781 36.04195312 -65.58789062 35.09765625 C-66.30013786 31.36995614 -67.05365984 27.67598725 -68 24 C-67.2265625 23.97421875 -66.453125 23.9484375 -65.65625 23.921875 C-58.47750483 23.60315215 -58.47750483 23.60315215 -52 20.8125 C-47.55914773 18.25786539 -44.0727141 19.3764857 -39.23828125 20.40234375 C-33.5296273 21.45593127 -25.76994035 22.87067152 -20.75 19.48046875 C-20.1725 18.99191406 -19.595 18.50335938 -19 18 C-18.34 18 -17.68 18 -17 18 C-16.71125 17.278125 -16.4225 16.55625 -16.125 15.8125 C-15.42804095 14.07010238 -14.70384778 12.33801269 -13.9375 10.625 C-12.80122035 7.44341697 -12.39377788 4.34711199 -12 1 C-11.21753906 1.01160156 -10.43507813 1.02320313 -9.62890625 1.03515625 C-8.61699219 1.04417969 -7.60507813 1.05320313 -6.5625 1.0625 C-5.04849609 1.07990234 -5.04849609 1.07990234 -3.50390625 1.09765625 C-1.05978933 1.28612676 -1.05978933 1.28612676 0 0 Z " fill="#7BB8A4" transform="translate(1179,177)"/>
<path d="M0 0 C0.66 0.33 1.32 0.66 2 1 C3.74993479 1.02573434 5.49995601 1.04576461 7.25 1.0625 C12.3917831 1.51106701 12.3917831 1.51106701 14.8125 3.45703125 C16.25 5.375 16.25 5.375 17.5065918 7.4934082 C19.03696829 10.06204895 20.67856145 12.53257508 22.33203125 15.0234375 C26.05055511 20.85265892 28.77964773 26.88228023 31.4375 33.25 C34.40195339 40.18393496 37.37958803 46.97948123 41.0625 53.5625 C49.5726369 69.04184366 56.15852795 85.75299636 60 103 C60.19899902 103.88655273 60.39799805 104.77310547 60.60302734 105.68652344 C64.71192833 124.46915723 67.08939963 143.49433666 69.44775391 162.55810547 C69.94335808 166.56290175 70.45969314 170.56479886 70.98046875 174.56640625 C71.25861084 176.75250274 71.53601786 178.93869295 71.8125 181.125 C71.93641113 182.06996338 72.06032227 183.01492676 72.18798828 183.98852539 C73.00747979 190.6790279 73.12540118 197.26353651 73 204 C72.21761963 204.1232666 71.43523926 204.2465332 70.62915039 204.37353516 C64.48650739 205.29769353 64.48650739 205.29769353 58.9375 207.9375 C56 209 56 209 53.6640625 208.1484375 C51.97042726 207.27873292 50.2997407 206.36228597 48.66015625 205.39453125 C42.53858048 202.18542325 36.69637605 201.65931453 29.9375 201.6875 C29.16083984 201.67138672 28.38417969 201.65527344 27.58398438 201.63867188 C22.57074903 201.63442697 19.45194732 202.50321055 15 205 C11.40259924 204.92658366 8.66261838 204.22591411 5.26171875 203.06640625 C-1.93093938 200.62108163 -8.36583166 199.49662832 -15.91162109 199.328125 C-20.20350165 199.21337431 -23.96733323 198.58899035 -28.10913086 197.46728516 C-35.03364463 195.7560496 -42.11445587 195.99889499 -48.4375 199.375 C-52.99086483 202.46001591 -55.42715863 206.19437267 -57.94140625 211.0234375 C-58.29074219 211.67570313 -58.64007813 212.32796875 -59 213 C-59.33 213 -59.66 213 -60 213 C-60.25706594 190.19092068 -60.45098803 167.38208049 -60.56993389 144.57184601 C-60.62663322 133.9803472 -60.70391892 123.38974889 -60.82983398 112.79882812 C-60.93954183 103.5667153 -61.01045579 94.33525463 -61.03497344 85.10250807 C-61.04930421 80.21429166 -61.08292813 75.32794071 -61.16303062 70.44032288 C-61.23786549 65.83669467 -61.26069703 61.23569419 -61.24418449 56.6315155 C-61.24720361 54.94477028 -61.26899484 53.25793462 -61.31126022 51.57171631 C-61.61533457 38.81131111 -61.61533457 38.81131111 -57.58802223 34.2953949 C-54.81127279 32.27892695 -51.9983388 30.6579236 -49 29 C-43.6179416 24.01350956 -40.30466416 17.91399247 -38 11 C-37.19175781 10.89042969 -36.38351563 10.78085938 -35.55078125 10.66796875 C-34.48214844 10.50941406 -33.41351563 10.35085937 -32.3125 10.1875 C-31.25675781 10.03667969 -30.20101563 9.88585937 -29.11328125 9.73046875 C-25.87189591 8.96994296 -23.80314389 7.74622078 -21 6 C-18.75390625 5.41015625 -18.75390625 5.41015625 -16.5625 5.0625 C-13.20463659 4.41205295 -11.77269689 3.8484646 -8.8125 1.875 C-5.54122122 -0.30585252 -3.85303968 -0.43784542 0 0 Z " fill="#7BB8A4" transform="translate(60,172)"/>
<path d="M0 0 C2.30493164 0.56079102 2.30493164 0.56079102 5 2 C6.29310522 4.39232994 7.22342341 6.49230039 8.12109375 9.02734375 C8.38833755 9.73089493 8.65558136 10.43444611 8.93092346 11.15931702 C9.78402229 13.41257395 10.61209545 15.67396728 11.4375 17.9375 C15.74018626 29.56272319 20.07049363 40.56722537 27.3125 50.75 C29.36603865 53.71680905 29.99112604 54.93566377 30.5 58.625 C31.21787034 63.47062482 33.31196998 65.86693069 37 69 C39.87467722 70.82586589 42.81373157 72.47948887 45.79296875 74.12890625 C51.20908889 77.28885941 56.05508512 81.15953311 61 85 C62.1082339 85.84004919 63.21763247 86.67856385 64.328125 87.515625 C69.94240044 91.76219513 75.35747304 96.12924013 80.5625 100.875 C83.59610038 103.51967725 86.75634145 105.97399794 89.9375 108.4375 C95.8696621 113.04544127 101.49290116 117.8874908 107 123 C108.55564218 124.43456865 110.11295256 125.867293 111.67138672 127.29882812 C113.16356156 128.67053973 114.65220391 130.04609118 116.140625 131.421875 C118.93122512 134.06379676 118.93122512 134.06379676 122.12841797 136.08374023 C124.77619473 138.29728202 125.45466475 139.81287781 125.77294922 143.23950195 C125.81367065 144.90529765 125.82253168 146.57208345 125.8046875 148.23828125 C125.82524704 149.55943184 125.82524704 149.55943184 125.84622192 150.90727234 C125.88349528 153.70953576 125.87980905 156.51002406 125.875 159.3125 C125.89312872 161.21682454 125.91393196 163.12112563 125.9375 165.02539062 C125.98932583 169.68389085 126.0044324 174.34122732 126 179 C121.70841231 178.41605698 117.70804909 177.68296976 113.5625 176.4375 C103.09066294 173.77361163 92.86745804 174.08266381 82.59375 177.31640625 C78.07446779 178.50748213 73.6187617 178.70657385 69 178 C66.97543152 176.70427617 64.97321053 175.3726682 63 174 C55.7678021 172.75080218 50.96919231 175.02053846 45 179 C41.01430347 178.60752055 37.51667504 177.08542743 33.8125 175.625 C22.3646516 171.46869827 10.31181315 169.9181891 -1.8125 169.2109375 C-4 169 -4 169 -6 168 C-13.35442821 167.49279805 -18.85160737 168.90107158 -25 173 C-27.84984751 172.84364191 -30.55679244 172.57732009 -33.375 172.1875 C-34.99456542 171.98386947 -36.61436092 171.78206101 -38.234375 171.58203125 C-39.03681641 171.48100098 -39.83925781 171.3799707 -40.66601562 171.27587891 C-45.76192915 170.67353766 -50.88104768 170.34367524 -56 170 C-54.59606194 164.81798472 -53.1834734 159.6389608 -51.72265625 154.47265625 C-51.50053467 153.68358887 -51.27841309 152.89452148 -51.04956055 152.08154297 C-50.60698608 150.51082808 -50.16191944 148.94081283 -49.71411133 147.37158203 C-43.71651112 126.03383144 -47.79460471 105.69530783 -54.125 84.9375 C-56.60803629 76.5973015 -57.57382132 68.04516494 -58.67529297 59.43701172 C-58.96056687 57.295956 -59.28020115 55.16662309 -59.62890625 53.03515625 C-62.91870221 32.58320793 -62.91870221 32.58320793 -58 23 C-57.59732474 20.17352944 -57.50208023 17.43688676 -57.40625 14.5859375 C-56.89888993 11.3563955 -56.51733225 10.13153421 -54 8 C-50.97312865 7.24838716 -47.98409905 7.10872219 -44.875 7 C-44.01205322 6.96076416 -43.14910645 6.92152832 -42.26000977 6.88110352 C-36.72664851 6.74215338 -32.82958984 7.29712493 -27.9609375 10.05859375 C-22.46809842 12.69559418 -16.27401512 11.35061468 -10.75 9.4375 C-5.89413467 7.31593108 -2.98175164 4.31505522 0 0 Z " fill="#7BB8A4" transform="translate(957,207)"/>
<path d="M0 0 C0.66 0 1.32 0 2 0 C2.06316406 0.845625 2.12632812 1.69125 2.19140625 2.5625 C2.94763536 9.56756966 4.00811357 14.2147916 8.85546875 19.4140625 C14.82357234 23.82763273 20.23569383 24.44237456 27.4375 24.5625 C33.61571252 24.69562988 39.04220696 25.29679625 45 27 C44.88008171 30.92877004 44.75576335 34.85737598 44.62768555 38.78588867 C44.56401523 40.76539182 44.50364702 42.74500031 44.44335938 44.72460938 C44.26176883 50.24216829 44.07218187 55.72153104 43.47265625 61.2109375 C42.71648508 68.8398487 42.85111518 76.50456817 42.86962891 84.1628418 C42.87502354 86.82411299 42.86963797 89.48521807 42.86328125 92.14648438 C42.86394152 93.85416704 42.86522161 95.56184959 42.8671875 97.26953125 C42.86415115 98.45093437 42.86415115 98.45093437 42.86105347 99.65620422 C42.87432356 102.79191006 42.94705384 105.70499953 43.50219727 108.7980957 C44.28567131 113.83745917 44.12140597 118.86950625 44.09765625 123.9609375 C44.0962413 125.10664215 44.09482635 126.2523468 44.09336853 127.43276978 C44.0877858 131.08020678 44.07523641 134.72758165 44.0625 138.375 C44.05748277 140.85286369 44.05292025 143.33072835 44.04882812 145.80859375 C44.03782201 151.87241691 44.02110103 157.93620402 44 164 C38.88314849 166.9234104 34.98169781 168.49212453 28.96484375 168.46875 C27.66699951 168.48035156 26.36915527 168.49195313 25.03198242 168.50390625 C24.36170013 168.50277832 23.69141785 168.50165039 23.00082397 168.50048828 C10.9866198 168.49764515 -1.00820715 168.50410357 -12 174 C-13.87379605 174.07033769 -15.75001102 174.0843022 -17.625 174.0625 C-18.62789062 174.05347656 -19.63078125 174.04445313 -20.6640625 174.03515625 C-21.82035156 174.01775391 -21.82035156 174.01775391 -23 174 C-23.07516846 173.19183838 -23.15033691 172.38367676 -23.2277832 171.55102539 C-24.54599449 157.45722442 -25.88478802 143.3689175 -27.5625 129.3125 C-27.67698486 128.34256104 -27.79146973 127.37262207 -27.90942383 126.37329102 C-28.50081892 121.52770726 -29.20291564 116.72372632 -30.0390625 111.9140625 C-30.93764048 106.63165573 -31.50880803 101.41011953 -31.8125 96.0625 C-31.87630859 95.25232422 -31.94011719 94.44214844 -32.00585938 93.60742188 C-32.29245775 88.67873714 -31.8947108 86.15358994 -29 82 C-28.25148801 79.33649715 -28.25148801 79.33649715 -27.75 76.4375 C-26.27285456 69.54415462 -24.00470293 63.06250208 -21.6159668 56.43725586 C-19.90318594 51.66011503 -18.36116754 46.91058664 -17.0625 42 C-13.05037535 27.44318875 -6.57290658 13.55661983 0 0 Z " fill="#7BB8A4" transform="translate(185,204)"/>
<path d="M0 0 C3.38817638 0.58188247 4.87404775 1.62548355 7.25 4.0625 C14.10396266 10.32271072 23.16105967 14.00779797 31.671875 17.51171875 C34.84544593 18.93088603 37.3958873 20.50762452 40.1875 22.5625 C43.49627297 25.0058306 43.49627297 25.0058306 47.09375 26.9609375 C50.51473341 28.82565387 51.97054363 31.31805461 53.5703125 34.80078125 C54.5577021 42.15234562 48.81627887 49.05422805 45 55 C44.46246094 55.84675293 43.92492187 56.69350586 43.37109375 57.56591797 C41.0534342 61.21246758 38.72771594 64.85340309 36.37890625 68.47998047 C30.53527027 77.5548958 25.42266138 86.96667111 20.34765625 96.48583984 C14.94168949 106.57110175 9.25112283 116.41301116 3 126 C1.81082165 127.87393599 0.62333276 129.74894512 -0.5625 131.625 C-2.6165861 134.87045604 -4.73096686 138.04468118 -6.9375 141.1875 C-11.34250454 147.7054742 -14.58328401 154.93242759 -18 162 C-24.9787402 153.41238856 -28.68687178 141.55945309 -32.75 131.375 C-33.12656738 130.44647217 -33.50313477 129.51794434 -33.89111328 128.5612793 C-39.29156176 114.79001508 -40.50889993 102.12404699 -40.44604492 87.46459961 C-40.43758391 84.46722509 -40.46630068 81.47179451 -40.49804688 78.47460938 C-40.54592527 65.50163532 -38.99884663 53.59899716 -36 41 C-35.70529287 39.67932232 -35.41351685 38.35798575 -35.12524414 37.03588867 C-34.37888587 33.64270368 -33.60195537 30.25838015 -32.8125 26.875 C-32.55275391 25.74191406 -32.29300781 24.60882813 -32.02539062 23.44140625 C-30.12899344 15.25798689 -30.12899344 15.25798689 -29 13 C-28.45859375 13.15726563 -27.9171875 13.31453125 -27.359375 13.4765625 C-21.14539646 14.85516039 -14.25078943 15.21543757 -8.5625 12.0625 C-4.29034792 8.97656134 -2.13770015 4.71732869 0 0 Z " fill="#7BB8A4" transform="translate(806,186)"/>
<path d="M0 0 C1.66666667 1.66666667 3.33333333 3.33333333 5 5 C5.598125 5.556875 6.19625 6.11375 6.8125 6.6875 C8 8 8 8 8 10 C8.55816406 10.27199219 9.11632813 10.54398438 9.69140625 10.82421875 C19.62945165 15.88572749 25.97896838 20.48559652 30.734375 30.71875 C31.93009973 33.24009969 31.93009973 33.24009969 34.75 35.0625 C37.61537718 37.52990813 37.59545564 39.37369481 37.91455078 43.02954102 C38.08202876 48.85155415 37.59913107 54.65525603 37.22012329 60.46218872 C36.02946211 79.16029506 35.7969558 97.83026269 35.8125 116.5625 C35.81154831 118.44217972 35.81154831 118.44217972 35.81057739 120.35983276 C35.81131804 133.27088129 35.82172782 146.1339186 37 159 C36.37077637 159.18949219 35.74155273 159.37898437 35.09326172 159.57421875 C31.16819286 160.76996942 28.15967691 161.88945445 24.75 164.25 C22 166 22 166 19.625 166 C16.61252099 164.85238895 13.80167442 163.46545632 10.96484375 161.9375 C5.77588993 159.46165722 0.54935279 159.95703149 -5.06835938 160.12695312 C-9.27336598 160.19394948 -12.17392123 159.64690461 -16 158 C-22.66425858 157.10222423 -28.37448167 157.00752485 -34.0625 160.875 C-34.73410156 161.40867187 -35.40570312 161.94234375 -36.09765625 162.4921875 C-37.98375702 163.98712568 -39.81890669 164.99932022 -42 166 C-43.08256082 162.75231754 -42.97924275 162.18120639 -41.98071289 159.08569336 C-41.6127787 157.91267418 -41.6127787 157.91267418 -41.2374115 156.71595764 C-40.96441727 155.86996506 -40.69142303 155.02397247 -40.41015625 154.15234375 C-37.33159606 144.26476056 -34.65804013 134.31206165 -32.12231445 124.27319336 C-31.43831207 121.56571442 -30.74801079 118.85990278 -30.05664062 116.15429688 C-27.52275071 106.20595857 -25.09010478 96.23742108 -22.72781372 86.24702454 C-21.18163434 79.72239242 -19.562362 73.22337485 -17.8125 66.75 C-17.52987305 65.69554687 -17.24724609 64.64109375 -16.95605469 63.5546875 C-15.22953457 57.21251817 -13.38352388 50.91687909 -11.43359375 44.640625 C-11.21266052 43.92900711 -10.99172729 43.21738922 -10.76409912 42.48420715 C-10.31599272 41.04168275 -9.86787259 39.59916261 -9.41973877 38.15664673 C-9.19872498 37.44495331 -8.97771118 36.73325989 -8.75 36 C-8.53059753 35.29418793 -8.31119507 34.58837585 -8.08514404 33.86117554 C-5.13413783 24.32059861 -2.65735143 14.90183345 -1.40234375 4.97265625 C-1 2 -1 2 0 0 Z " fill="#7BB8A4" transform="translate(1392,205)"/>
<path d="M0 0 C0 56.43 0 112.86 0 171 C-6.93 167.535 -6.93 167.535 -14 164 C-16.31 163.34 -18.62 162.68 -21 162 C-23.14404605 161.03536129 -25.21601067 159.98773511 -27.30078125 158.90234375 C-31.43553403 157.52010368 -35.66954244 157.32249756 -40 157 C-40.41306228 153.02092408 -40.8217269 149.04142009 -41.22680664 145.06152344 C-41.4309355 143.06423016 -41.63826622 141.06726492 -41.84570312 139.0703125 C-41.97783203 137.76835937 -42.10996094 136.46640625 -42.24609375 135.125 C-42.36654053 133.95195312 -42.4869873 132.77890625 -42.61108398 131.5703125 C-43.77708003 118.55708676 -44.14060286 105.64976284 -44.09765625 92.59375 C-44.09578495 90.89025922 -44.09436443 89.18676789 -44.09336853 87.48327637 C-44.0895993 83.05786584 -44.07981873 78.63248954 -44.06866455 74.20709229 C-44.05832823 69.66801415 -44.05384507 65.12893033 -44.04882812 60.58984375 C-44.03818984 51.72654701 -44.0211831 42.86327779 -44 34 C-43.19030762 33.88245361 -42.38061523 33.76490723 -41.54638672 33.64379883 C-40.47662598 33.47904053 -39.40686523 33.31428223 -38.3046875 33.14453125 C-36.71889893 32.90633667 -36.71889893 32.90633667 -35.10107422 32.66333008 C-30.13160974 31.60034512 -26.46426125 29.73393428 -23 26 C-21.23942112 22.73328488 -19.80895816 19.42885635 -18.40234375 15.99609375 C-16.52023974 11.97499689 -14.59753627 10.50263393 -11 8 C-10.34 7.13375 -9.68 6.2675 -9 5.375 C-6.82146986 2.78799546 -3.62542173 0 0 0 Z " fill="#7BB8A4" transform="translate(1505,212)"/>
<path d="M0 0 C2.28013611 2.10474103 2.29581901 3.40569874 2.625 6.5 C3.09484007 10.83380234 3.57553521 15.16422317 4.13818359 19.48706055 C5.99500316 34.39119612 6.07211209 49.31154642 6.25 64.3125 C6.28831395 66.9303496 6.32737264 69.54818842 6.3671875 72.16601562 C6.5822424 86.94460254 6.67694411 101.71997718 6.625 116.5 C5.37079745 115.564119 4.11726885 114.6273348 2.86401367 113.69018555 C2.16588058 113.16861374 1.4677475 112.64704193 0.74845886 112.10966492 C-2.58246762 109.58469229 -5.82485349 106.95538604 -9.0625 104.3125 C-9.75384033 103.75006592 -10.44518066 103.18763184 -11.1574707 102.6081543 C-15.50421627 99.06090211 -19.7979777 95.45789429 -24.0625 91.8125 C-28.23762653 88.2537749 -32.46918334 84.78935044 -36.8125 81.4375 C-37.60575684 80.82418823 -37.60575684 80.82418823 -38.41503906 80.19848633 C-41.24891718 78.03540686 -44.12376441 75.97645114 -47.09375 74.00390625 C-53.35965861 69.81300757 -58.56462686 66.14729429 -61.97729492 59.18676758 C-63.38507043 56.48064192 -64.98807628 54.05690705 -66.70703125 51.5390625 C-70.71830722 45.29295522 -73.1873785 38.79543166 -75.625 31.8125 C-76.25535156 30.05583008 -76.25535156 30.05583008 -76.8984375 28.26367188 C-77.70484744 26.01561397 -78.50655946 23.76586325 -79.30273438 21.51416016 C-80.6151785 17.82485342 -81.9847827 14.16060465 -83.375 10.5 C-81.9653653 9.79819469 -80.54692359 9.11406042 -79.125 8.4375 C-78.33609375 8.05464844 -77.5471875 7.67179688 -76.734375 7.27734375 C-74.01312761 6.38077383 -72.99837648 6.41824914 -70.375 7.5 C-68.3046875 8.875 -68.3046875 8.875 -66.25 10.5 C-59.98938181 15.41399466 -54.26690943 15.32412675 -46.375 14.5 C-43.02684857 12.92301479 -41.04938861 10.84877723 -39.375 7.5 C-36.73431095 7.07465411 -34.15794787 6.74961597 -31.5 6.5 C-25.63972185 6.01628876 -25.63972185 6.01628876 -20.375 3.5 C-17.921875 3.19140625 -17.921875 3.19140625 -15.125 3.0625 C-11.49954257 2.81345933 -8.69937 2.4257459 -5.4375 0.8125 C-2.375 -0.5 -2.375 -0.5 0 0 Z " fill="#7BB8A4" transform="translate(1074.375,189.5)"/>
<path d="M0 0 C8.94520373 6.1296642 19.82633779 8.94860714 30.0625 12.25 C28.62546265 21.32877567 25.77710507 29.93477802 22.875 38.625 C22.61805359 39.39935394 22.36110718 40.17370789 22.09637451 40.9715271 C16.72996688 57.05987354 10.32755422 72.65196075 3.62687683 88.22288513 C1.11459816 94.07694051 -1.2627709 99.97921284 -3.60693359 105.90234375 C-4.94092034 109.25860545 -6.3102128 112.59881056 -7.6875 115.9375 C-11.23162972 124.7601208 -14.35973121 133.73510348 -17.51074219 142.70385742 C-17.92485352 143.87795166 -18.33896484 145.0520459 -18.765625 146.26171875 C-19.1359082 147.31834717 -19.50619141 148.37497559 -19.88769531 149.46362305 C-20.7776428 151.82570925 -21.75419733 154.02412078 -22.9375 156.25 C-24.49778618 149.0461255 -25.67541083 141.82238534 -26.63574219 134.51513672 C-26.85142523 132.89611786 -27.07423037 131.27804136 -27.30175781 129.66064453 C-29.06611493 117.04965027 -30.14659936 104.60971646 -30.4375 91.875 C-30.72322217 79.69214545 -31.91427807 68.14051565 -34.35351562 56.21630859 C-37.06823033 42.92900238 -37.64190353 29.79681078 -37.9375 16.25 C-37.17348877 15.81518311 -37.17348877 15.81518311 -36.39404297 15.37158203 C-31.49435242 12.46657737 -27.85292555 9.33680239 -24.0625 5.125 C-17.01895237 -2.30873138 -9.08834176 -6.76828523 0 0 Z " fill="#7BB8A4" transform="translate(1334.9375,175.75)"/>
<path d="M0 0 C1.84587919 2.76881878 2.55593832 4.50692979 3.40234375 7.6484375 C3.65161621 8.56471924 3.90088867 9.48100098 4.15771484 10.42504883 C4.41504395 11.39853271 4.67237305 12.3720166 4.9375 13.375 C5.20256348 14.37362061 5.46762695 15.37224121 5.74072266 16.40112305 C6.26388558 18.382679 6.78414361 20.36500454 7.30126953 22.34814453 C7.86477468 24.48678637 8.45716894 26.61780449 9.05859375 28.74609375 C14.36919913 48.69262592 9.75118934 68.9307915 -0.25 86.75 C-2.95741385 91.19186916 -5.40607679 93.81102741 -10.5625 95.1875 C-11.93535156 95.38859375 -11.93535156 95.38859375 -13.3359375 95.59375 C-17.38229384 96.21078968 -20.43402482 98.04880603 -24 100 C-24.556875 99.566875 -25.11375 99.13375 -25.6875 98.6875 C-31.11647323 94.72581683 -34.27610638 93.02395093 -41 94 C-45.43559004 95.25334308 -48.60763061 96.91889928 -51 101 C-53.31 100.67 -55.62 100.34 -58 100 C-58 99.34 -58 98.68 -58 98 C-57.34 98 -56.68 98 -56 98 C-55.72542969 97.44570313 -55.45085938 96.89140625 -55.16796875 96.3203125 C-51.02090199 88.08165814 -46.41684029 80.46293935 -41 73 C-37.00209713 67.42213988 -33.22160585 61.82036057 -29.765625 55.890625 C-28.45102854 53.73840955 -27.10686072 51.67805042 -25.671875 49.609375 C-15.12494032 34.2333663 -7.26950826 17.13411216 0 0 Z " fill="#7BB7A3" transform="translate(871,286)"/>
<path d="M0 0 C3.91289855 3.78667602 5.024558 5.65726188 5.54394531 11.10327148 C6.72063588 23.00541289 9.37281906 34.40902181 16.66796875 44.16796875 C18.02528094 46.03477056 19.0235264 47.91284552 20 50 C19.19949219 50.85658203 19.19949219 50.85658203 18.3828125 51.73046875 C13.49715646 57.04721208 9.00116774 62.49846289 4.65820312 68.25952148 C2.27623339 71.4003529 -0.18492054 74.37055677 -2.875 77.25 C-12.62028778 87.97966028 -20.3150181 100.75448592 -28 113 C-30.02718076 109.49617696 -30.71595881 106.06780461 -31.47265625 102.109375 C-31.60063095 101.44593079 -31.72860565 100.78248657 -31.86045837 100.09893799 C-32.12957296 98.6975142 -32.39583604 97.29554021 -32.65942383 95.89306641 C-33.05876453 93.76986067 -33.46705995 91.64853474 -33.87695312 89.52734375 C-34.39226188 86.84724831 -34.89053703 84.16496887 -35.37158203 81.47851562 C-35.73593665 79.46168399 -36.11805924 77.44757984 -36.54638672 75.44335938 C-37.54199392 70.16526017 -35.9020624 68.30003523 -33 64 C-32.14756822 61.90927284 -31.37141269 59.78607289 -30.66796875 57.640625 C-30.05791992 55.84238281 -30.05791992 55.84238281 -29.43554688 54.0078125 C-28.60935137 51.52017532 -27.78895052 49.03060545 -26.97460938 46.5390625 C-23.52089239 36.41105101 -18.88160322 28.64308691 -11.375 21 C-5.68995578 14.84039502 -2.32623859 8.03609696 0 0 Z " fill="#7BB7A3" transform="translate(548,192)"/>
<path d="M0 0 C0.495 0.99 0.495 0.99 1 2 C-0.20229682 4.45713618 -1.46801331 6.80912694 -2.8125 9.1875 C-12.86773501 27.63004004 -20.14705621 47.18561791 -27 67 C-29.48913236 64.77281182 -30.72158836 62.77319104 -31.98828125 59.6953125 C-32.54334351 58.37539307 -32.54334351 58.37539307 -33.10961914 57.02880859 C-33.50656982 56.07055176 -33.90352051 55.11229492 -34.3125 54.125 C-38.97875433 43.08430098 -44.11780866 32.32095503 -49.44067383 21.58642578 C-50.01841553 20.41063965 -50.59615723 19.23485352 -51.19140625 18.0234375 C-51.70904541 16.98106934 -52.22668457 15.93870117 -52.76000977 14.86474609 C-53.91043345 12.20692536 -54.56415207 9.8525247 -55 7 C-53.39318359 6.47599609 -53.39318359 6.47599609 -51.75390625 5.94140625 C-50.35671896 5.48192855 -48.95958635 5.02228454 -47.5625 4.5625 C-46.50192383 4.21735352 -46.50192383 4.21735352 -45.41992188 3.86523438 C-41.93693205 2.92578853 -41.93693205 2.92578853 -39 1 C-35.55650687 0.52173707 -34.32516976 0.75612268 -31.5 2.875 C-30.2625 3.926875 -30.2625 3.926875 -29 5 C-22.84532034 7.97266841 -15.8568927 8.14299156 -9.32421875 6.20703125 C-5.56851357 4.60271202 -2.78177393 3.02442088 0 0 Z " fill="#7BB7A3" transform="translate(167,173)"/>
<path d="M0 0 C-0.44218429 6.74331043 -1.53623254 13.26091106 -2.875 19.875 C-3.03645508 20.70749268 -3.19791016 21.53998535 -3.36425781 22.39770508 C-4.23933464 26.5857548 -4.94818993 29.80867861 -8 33 C-26 13.76311031 -26 13.76311031 -26 10 C-24.865625 9.69707031 -23.73125 9.39414063 -22.5625 9.08203125 C-16.59078924 7.43756081 -5.01759796 0 0 0 Z " fill="#7AB5A1" transform="translate(746,200)"/>
<path d="M0 0 C1.32 0.66 2.64 1.32 4 2 C2.03616818 6.36289123 -0.83499344 10.10872671 -3.63476562 13.95898438 C-6.37029319 17.81421208 -8.26537388 21.59929257 -10 26 C-14.01172119 24.44557439 -16.32804427 21.61334619 -19.0625 18.4375 C-23.64962408 13.23975481 -28.46064175 8.95732811 -33.98046875 4.7421875 C-34.64691406 4.16726562 -35.31335938 3.59234375 -36 3 C-36 2.34 -36 1.68 -36 1 C-32 1 -32 1 -30.4375 2.4609375 C-29.963125 3.09257812 -29.48875 3.72421875 -29 4.375 C-26.89492385 7.1550734 -25.31233771 8.79497392 -22 10 C-15.70302487 10.67530235 -9.19187185 11.02370068 -4 7 C-2.39484633 4.72855613 -1.23317643 2.51378272 0 0 Z " fill="#78B19D" transform="translate(508,194)"/>
</svg>
