<?xml version="1.0" encoding="UTF-8"?>
<svg version="1.1" xmlns="http://www.w3.org/2000/svg" width="143" height="86">
<path d="M0 0 C3.96 0 7.92 0 12 0 C12 1.32 12 2.64 12 4 C13.32 4 14.64 4 16 4 C16 6.64 16 9.28 16 12 C17.32 12 18.64 12 20 12 C20 15.96 20 19.92 20 24 C18.68 24 17.36 24 16 24 C16 25.32 16 26.64 16 28 C14.68 28 13.36 28 12 28 C12 29.32 12 30.64 12 32 C17.28 32 22.56 32 28 32 C28 34.64 28 37.28 28 40 C21.4 40 14.8 40 8 40 C8 41.32 8 42.64 8 44 C6.68 44 5.36 44 4 44 C4 45.32 4 46.64 4 48 C5.32 48 6.64 48 8 48 C8 49.32 8 50.64 8 52 C9.32 52 10.64 52 12 52 C12 53.32 12 54.64 12 56 C14.64 56 17.28 56 20 56 C20 58.64 20 61.28 20 64 C16.04 64 12.08 64 8 64 C8 62.68 8 61.36 8 60 C6.68 60 5.36 60 4 60 C4 58.68 4 57.36 4 56 C1.36 56 -1.28 56 -4 56 C-4 57.32 -4 58.64 -4 60 C-5.32 60 -6.64 60 -8 60 C-8 62.64 -8 65.28 -8 68 C-6.68 68 -5.36 68 -4 68 C-4 69.32 -4 70.64 -4 72 C-6.64 72 -9.28 72 -12 72 C-12 70.68 -12 69.36 -12 68 C-13.32 68 -14.64 68 -16 68 C-16 64.04 -16 60.08 -16 56 C-17.32 56 -18.64 56 -20 56 C-20 54.68 -20 53.36 -20 52 C-21.32 52 -22.64 52 -24 52 C-24 50.68 -24 49.36 -24 48 C-25.32 48 -26.64 48 -28 48 C-28 46.68 -28 45.36 -28 44 C-29.32 44 -30.64 44 -32 44 C-32 41.36 -32 38.72 -32 36 C-30.68 36 -29.36 36 -28 36 C-28 37.32 -28 38.64 -28 40 C-26.68 40 -25.36 40 -24 40 C-24 41.32 -24 42.64 -24 44 C-22.68 44 -21.36 44 -20 44 C-20 45.32 -20 46.64 -20 48 C-18.68 48 -17.36 48 -16 48 C-16 44.04 -16 40.08 -16 36 C-14.68 36 -13.36 36 -12 36 C-12 34.68 -12 33.36 -12 32 C-10.68 32 -9.36 32 -8 32 C-8 30.68 -8 29.36 -8 28 C-6.68 28 -5.36 28 -4 28 C-4 26.68 -4 25.36 -4 24 C-5.32 24 -6.64 24 -8 24 C-8 20.04 -8 16.08 -8 12 C-6.68 12 -5.36 12 -4 12 C-4 9.36 -4 6.72 -4 4 C-2.68 4 -1.36 4 0 4 C0 2.68 0 1.36 0 0 Z M-16 48 C-16 49.32 -16 50.64 -16 52 C-14.68 52 -13.36 52 -12 52 C-12 50.68 -12 49.36 -12 48 C-13.32 48 -14.64 48 -16 48 Z " fill="#763122" transform="translate(39,4)"/>
<path d="M0 0 C3.96 0 7.92 0 12 0 C12 1.32 12 2.64 12 4 C13.32 4 14.64 4 16 4 C16 6.64 16 9.28 16 12 C17.32 12 18.64 12 20 12 C20 15.96 20 19.92 20 24 C18.68 24 17.36 24 16 24 C16 25.32 16 26.64 16 28 C14.68 28 13.36 28 12 28 C12 30.64 12 33.28 12 36 C14.64 36 17.28 36 20 36 C20 38.64 20 41.28 20 44 C16.04 44 12.08 44 8 44 C8 46.64 8 49.28 8 52 C9.32 52 10.64 52 12 52 C12 54.64 12 57.28 12 60 C13.32 60 14.64 60 16 60 C16 62.64 16 65.28 16 68 C12.04 68 8.08 68 4 68 C4 64.04 4 60.08 4 56 C1.36 56 -1.28 56 -4 56 C-4 57.32 -4 58.64 -4 60 C-2.68 60 -1.36 60 0 60 C0 62.64 0 65.28 0 68 C-2.64 68 -5.28 68 -8 68 C-8 66.68 -8 65.36 -8 64 C-9.32 64 -10.64 64 -12 64 C-12 62.68 -12 61.36 -12 60 C-15.96 60 -19.92 60 -24 60 C-24 56.04 -24 52.08 -24 48 C-25.32 48 -26.64 48 -28 48 C-28 45.36 -28 42.72 -28 40 C-26.68 40 -25.36 40 -24 40 C-24 41.32 -24 42.64 -24 44 C-22.68 44 -21.36 44 -20 44 C-20 47.96 -20 51.92 -20 56 C-17.36 56 -14.72 56 -12 56 C-12 54.68 -12 53.36 -12 52 C-10.68 52 -9.36 52 -8 52 C-8 50.68 -8 49.36 -8 48 C-9.32 48 -10.64 48 -12 48 C-12 42.72 -12 37.44 -12 32 C-10.68 32 -9.36 32 -8 32 C-8 30.68 -8 29.36 -8 28 C-6.68 28 -5.36 28 -4 28 C-4 26.68 -4 25.36 -4 24 C-5.32 24 -6.64 24 -8 24 C-8 20.04 -8 16.08 -8 12 C-6.68 12 -5.36 12 -4 12 C-4 9.36 -4 6.72 -4 4 C-2.68 4 -1.36 4 0 4 C0 2.68 0 1.36 0 0 Z " fill="#742F21" transform="translate(111,4)"/>
<path d="M0 0 C3.96 0 7.92 0 12 0 C12 1.32 12 2.64 12 4 C13.32 4 14.64 4 16 4 C16 6.64 16 9.28 16 12 C17.32 12 18.64 12 20 12 C20 15.96 20 19.92 20 24 C18.68 24 17.36 24 16 24 C16 25.32 16 26.64 16 28 C10.72 28 5.44 28 0 28 C0 26.68 0 25.36 0 24 C-2.64 24 -5.28 24 -8 24 C-8 20.04 -8 16.08 -8 12 C-6.68 12 -5.36 12 -4 12 C-4 9.36 -4 6.72 -4 4 C-2.68 4 -1.36 4 0 4 C0 2.68 0 1.36 0 0 Z " fill="#BB6C47" transform="translate(111,4)"/>
<path d="M0 0 C3.96 0 7.92 0 12 0 C12 1.32 12 2.64 12 4 C13.32 4 14.64 4 16 4 C16 6.64 16 9.28 16 12 C17.32 12 18.64 12 20 12 C20 15.96 20 19.92 20 24 C18.68 24 17.36 24 16 24 C16 25.32 16 26.64 16 28 C10.72 28 5.44 28 0 28 C0 26.68 0 25.36 0 24 C-2.64 24 -5.28 24 -8 24 C-8 20.04 -8 16.08 -8 12 C-6.68 12 -5.36 12 -4 12 C-4 9.36 -4 6.72 -4 4 C-2.68 4 -1.36 4 0 4 C0 2.68 0 1.36 0 0 Z " fill="#BB6C47" transform="translate(39,4)"/>
<path d="M0 0 C1.32 0 2.64 0 4 0 C4 1.32 4 2.64 4 4 C5.32 4 6.64 4 8 4 C8 7.96 8 11.92 8 16 C10.64 16 13.28 16 16 16 C16 14.68 16 13.36 16 12 C17.32 12 18.64 12 20 12 C20 10.68 20 9.36 20 8 C22.64 8 25.28 8 28 8 C28 9.32 28 10.64 28 12 C29.32 12 30.64 12 32 12 C32 13.32 32 14.64 32 16 C29.36 16 26.72 16 24 16 C24 17.32 24 18.64 24 20 C25.32 20 26.64 20 28 20 C28 22.64 28 25.28 28 28 C25.36 28 22.72 28 20 28 C20 26.68 20 25.36 20 24 C18.68 24 17.36 24 16 24 C16 22.68 16 21.36 16 20 C12.04 20 8.08 20 4 20 C4 16.04 4 12.08 4 8 C2.68 8 1.36 8 0 8 C0 5.36 0 2.72 0 0 Z " fill="#733022" transform="translate(83,44)"/>
<path d="M0 0 C1.32 0 2.64 0 4 0 C4 2.64 4 5.28 4 8 C10.6 8 17.2 8 24 8 C24 5.36 24 2.72 24 0 C25.32 0 26.64 0 28 0 C28 3.96 28 7.92 28 12 C26.68 12 25.36 12 24 12 C24 13.32 24 14.64 24 16 C18.72 16 13.44 16 8 16 C8 14.68 8 13.36 8 12 C5.36 12 2.72 12 0 12 C0 8.04 0 4.08 0 0 Z " fill="#CC8153" transform="translate(103,16)"/>
<path d="M0 0 C1.32 0 2.64 0 4 0 C4 2.64 4 5.28 4 8 C10.6 8 17.2 8 24 8 C24 5.36 24 2.72 24 0 C25.32 0 26.64 0 28 0 C28 3.96 28 7.92 28 12 C26.68 12 25.36 12 24 12 C24 13.32 24 14.64 24 16 C18.72 16 13.44 16 8 16 C8 14.68 8 13.36 8 12 C5.36 12 2.72 12 0 12 C0 8.04 0 4.08 0 0 Z " fill="#CC8153" transform="translate(31,16)"/>
<path d="M0 0 C1.32 0 2.64 0 4 0 C4 1.32 4 2.64 4 4 C7.96 4 11.92 4 16 4 C16 5.32 16 6.64 16 8 C10.72 8 5.44 8 0 8 C0 10.64 0 13.28 0 16 C-1.32 16 -2.64 16 -4 16 C-4 18.64 -4 21.28 -4 24 C-5.32 24 -6.64 24 -8 24 C-8 18.72 -8 13.44 -8 8 C-6.68 8 -5.36 8 -4 8 C-4 6.68 -4 5.36 -4 4 C-2.68 4 -1.36 4 0 4 C0 2.68 0 1.36 0 0 Z " fill="#6E2B1F" transform="translate(107,28)"/>
<path d="M0 0 C1.32 0 2.64 0 4 0 C4 1.32 4 2.64 4 4 C7.96 4 11.92 4 16 4 C16 5.32 16 6.64 16 8 C10.72 8 5.44 8 0 8 C0 9.32 0 10.64 0 12 C-1.32 12 -2.64 12 -4 12 C-4 13.32 -4 14.64 -4 16 C-5.32 16 -6.64 16 -8 16 C-8 18.64 -8 21.28 -8 24 C-9.32 24 -10.64 24 -12 24 C-12 20.04 -12 16.08 -12 12 C-10.68 12 -9.36 12 -8 12 C-8 10.68 -8 9.36 -8 8 C-6.68 8 -5.36 8 -4 8 C-4 6.68 -4 5.36 -4 4 C-2.68 4 -1.36 4 0 4 C0 2.68 0 1.36 0 0 Z " fill="#6E2B1F" transform="translate(35,28)"/>
<path d="M0 0 C1.32 0 2.64 0 4 0 C4 1.32 4 2.64 4 4 C5.32 4 6.64 4 8 4 C8 5.32 8 6.64 8 8 C9.32 8 10.64 8 12 8 C12 9.32 12 10.64 12 12 C13.32 12 14.64 12 16 12 C16 13.32 16 14.64 16 16 C17.32 16 18.64 16 20 16 C20 17.32 20 18.64 20 20 C17.36 20 14.72 20 12 20 C12 18.68 12 17.36 12 16 C10.68 16 9.36 16 8 16 C8 14.68 8 13.36 8 12 C6.68 12 5.36 12 4 12 C4 10.68 4 9.36 4 8 C2.68 8 1.36 8 0 8 C0 5.36 0 2.72 0 0 Z " fill="#A5583B" transform="translate(7,40)"/>
<path d="M0 0 C1.32 0 2.64 0 4 0 C4 1.32 4 2.64 4 4 C6.64 4 9.28 4 12 4 C12 6.64 12 9.28 12 12 C8.04 12 4.08 12 0 12 C0 8.04 0 4.08 0 0 Z " fill="#EFA367" transform="translate(115,60)"/>
<path d="M0 0 C1.32 0 2.64 0 4 0 C4 1.32 4 2.64 4 4 C6.64 4 9.28 4 12 4 C12 6.64 12 9.28 12 12 C8.04 12 4.08 12 0 12 C0 8.04 0 4.08 0 0 Z " fill="#B46844" transform="translate(47,56)"/>
<path d="M0 0 C1.32 0 2.64 0 4 0 C4 1.32 4 2.64 4 4 C5.32 4 6.64 4 8 4 C8 7.96 8 11.92 8 16 C9.32 16 10.64 16 12 16 C12 17.32 12 18.64 12 20 C9.36 20 6.72 20 4 20 C4 16.04 4 12.08 4 8 C2.68 8 1.36 8 0 8 C0 5.36 0 2.72 0 0 Z " fill="#974C33" transform="translate(83,44)"/>
<path d="M0 0 C1.32 0 2.64 0 4 0 C4 5.28 4 10.56 4 16 C2.68 16 1.36 16 0 16 C0 14.68 0 13.36 0 12 C-1.32 12 -2.64 12 -4 12 C-4 9.36 -4 6.72 -4 4 C-2.68 4 -1.36 4 0 4 C0 2.68 0 1.36 0 0 Z " fill="#8D432E" transform="translate(123,8)"/>
<path d="M0 0 C1.32 0 2.64 0 4 0 C4 1.32 4 2.64 4 4 C5.32 4 6.64 4 8 4 C8 6.64 8 9.28 8 12 C6.68 12 5.36 12 4 12 C4 13.32 4 14.64 4 16 C2.68 16 1.36 16 0 16 C0 10.72 0 5.44 0 0 Z " fill="#8D432E" transform="translate(107,8)"/>
<path d="M0 0 C1.32 0 2.64 0 4 0 C4 5.28 4 10.56 4 16 C2.68 16 1.36 16 0 16 C0 14.68 0 13.36 0 12 C-1.32 12 -2.64 12 -4 12 C-4 9.36 -4 6.72 -4 4 C-2.68 4 -1.36 4 0 4 C0 2.68 0 1.36 0 0 Z " fill="#8D432E" transform="translate(51,8)"/>
<path d="M0 0 C1.32 0 2.64 0 4 0 C4 1.32 4 2.64 4 4 C5.32 4 6.64 4 8 4 C8 6.64 8 9.28 8 12 C6.68 12 5.36 12 4 12 C4 13.32 4 14.64 4 16 C2.68 16 1.36 16 0 16 C0 10.72 0 5.44 0 0 Z " fill="#8D432E" transform="translate(35,8)"/>
<path d="M0 0 C2.64 0 5.28 0 8 0 C8 2.64 8 5.28 8 8 C5.36 8 2.72 8 0 8 C0 5.36 0 2.72 0 0 Z " fill="#D98D5A" transform="translate(103,64)"/>
<path d="M0 0 C1.32 0 2.64 0 4 0 C4 1.32 4 2.64 4 4 C5.32 4 6.64 4 8 4 C8 6.64 8 9.28 8 12 C6.68 12 5.36 12 4 12 C4 10.68 4 9.36 4 8 C2.68 8 1.36 8 0 8 C0 5.36 0 2.72 0 0 Z " fill="#833B29" transform="translate(7,40)"/>
<path d="M0 0 C2.64 0 5.28 0 8 0 C8 2.64 8 5.28 8 8 C5.36 8 2.72 8 0 8 C0 5.36 0 2.72 0 0 Z " fill="#974B33" transform="translate(123,40)"/>
<path d="M0 0 C2.64 0 5.28 0 8 0 C8 2.64 8 5.28 8 8 C5.36 8 2.72 8 0 8 C0 5.36 0 2.72 0 0 Z " fill="#974B33" transform="translate(59,36)"/>
<path d="M0 0 C5.28 0 10.56 0 16 0 C16 1.32 16 2.64 16 4 C10.72 4 5.44 4 0 4 C0 2.68 0 1.36 0 0 Z " fill="#AE6140" transform="translate(111,28)"/>
<path d="M0 0 C5.28 0 10.56 0 16 0 C16 1.32 16 2.64 16 4 C10.72 4 5.44 4 0 4 C0 2.68 0 1.36 0 0 Z " fill="#AE6140" transform="translate(39,28)"/>
<path d="M0 0 C1.32 0 2.64 0 4 0 C4 2.64 4 5.28 4 8 C5.32 8 6.64 8 8 8 C8 9.32 8 10.64 8 12 C5.36 12 2.72 12 0 12 C0 8.04 0 4.08 0 0 Z " fill="#83432D" transform="translate(103,16)"/>
<path d="M0 0 C1.32 0 2.64 0 4 0 C4 2.64 4 5.28 4 8 C5.32 8 6.64 8 8 8 C8 9.32 8 10.64 8 12 C5.36 12 2.72 12 0 12 C0 8.04 0 4.08 0 0 Z " fill="#83432D" transform="translate(31,16)"/>
<path d="M0 0 C1.32 0 2.64 0 4 0 C4 1.32 4 2.64 4 4 C5.32 4 6.64 4 8 4 C8 5.32 8 6.64 8 8 C5.36 8 2.72 8 0 8 C0 5.36 0 2.72 0 0 Z " fill="#D18555" transform="translate(27,68)"/>
<path d="M0 0 C3.96 0 7.92 0 12 0 C12 1.32 12 2.64 12 4 C8.04 4 4.08 4 0 4 C0 2.68 0 1.36 0 0 Z " fill="#511B14" transform="translate(27,52)"/>
<path d="M0 0 C3.96 0 7.92 0 12 0 C12 1.32 12 2.64 12 4 C8.04 4 4.08 4 0 4 C0 2.68 0 1.36 0 0 Z " fill="#43130F" transform="translate(111,32)"/>
<path d="M0 0 C3.96 0 7.92 0 12 0 C12 1.32 12 2.64 12 4 C8.04 4 4.08 4 0 4 C0 2.68 0 1.36 0 0 Z " fill="#43130F" transform="translate(39,32)"/>
<path d="M0 0 C3.96 0 7.92 0 12 0 C12 1.32 12 2.64 12 4 C8.04 4 4.08 4 0 4 C0 2.68 0 1.36 0 0 Z " fill="#6F2B1F" transform="translate(111,4)"/>
<path d="M0 0 C3.96 0 7.92 0 12 0 C12 1.32 12 2.64 12 4 C8.04 4 4.08 4 0 4 C0 2.68 0 1.36 0 0 Z " fill="#6F2B1F" transform="translate(39,4)"/>
<path d="M0 0 C2.64 0 5.28 0 8 0 C8 1.32 8 2.64 8 4 C5.36 4 2.72 4 0 4 C0 2.68 0 1.36 0 0 Z " fill="#833B29" transform="translate(115,68)"/>
<path d="M0 0 C2.64 0 5.28 0 8 0 C8 1.32 8 2.64 8 4 C5.36 4 2.72 4 0 4 C0 2.68 0 1.36 0 0 Z " fill="#833B29" transform="translate(51,64)"/>
<path d="M0 0 C1.32 0 2.64 0 4 0 C4 2.64 4 5.28 4 8 C2.68 8 1.36 8 0 8 C0 5.36 0 2.72 0 0 Z " fill="#C3734B" transform="translate(115,60)"/>
<path d="M0 0 C2.64 0 5.28 0 8 0 C8 1.32 8 2.64 8 4 C5.36 4 2.72 4 0 4 C0 2.68 0 1.36 0 0 Z " fill="#EFA367" transform="translate(51,60)"/>
<path d="M0 0 C2.64 0 5.28 0 8 0 C8 1.32 8 2.64 8 4 C5.36 4 2.72 4 0 4 C0 2.68 0 1.36 0 0 Z " fill="#974B33" transform="translate(31,56)"/>
<path d="M0 0 C2.64 0 5.28 0 8 0 C8 1.32 8 2.64 8 4 C5.36 4 2.72 4 0 4 C0 2.68 0 1.36 0 0 Z " fill="#974B33" transform="translate(19,56)"/>
<path d="M0 0 C2.64 0 5.28 0 8 0 C8 1.32 8 2.64 8 4 C5.36 4 2.72 4 0 4 C0 2.68 0 1.36 0 0 Z " fill="#43130F" transform="translate(103,52)"/>
<path d="M0 0 C2.64 0 5.28 0 8 0 C8 1.32 8 2.64 8 4 C5.36 4 2.72 4 0 4 C0 2.68 0 1.36 0 0 Z " fill="#EFA367" transform="translate(103,48)"/>
<path d="M0 0 C1.32 0 2.64 0 4 0 C4 2.64 4 5.28 4 8 C2.68 8 1.36 8 0 8 C0 5.36 0 2.72 0 0 Z " fill="#D98B59" transform="translate(83,44)"/>
<path d="M0 0 C2.64 0 5.28 0 8 0 C8 1.32 8 2.64 8 4 C5.36 4 2.72 4 0 4 C0 2.68 0 1.36 0 0 Z " fill="#EFA367" transform="translate(27,48)"/>
<path d="M0 0 C1.32 0 2.64 0 4 0 C4 2.64 4 5.28 4 8 C2.68 8 1.36 8 0 8 C0 5.36 0 2.72 0 0 Z " fill="#D98B59" transform="translate(7,40)"/>
<path d="M0 0 C2.64 0 5.28 0 8 0 C8 1.32 8 2.64 8 4 C5.36 4 2.72 4 0 4 C0 2.68 0 1.36 0 0 Z " fill="#EFA367" transform="translate(123,40)"/>
<path d="M0 0 C2.64 0 5.28 0 8 0 C8 1.32 8 2.64 8 4 C5.36 4 2.72 4 0 4 C0 2.68 0 1.36 0 0 Z " fill="#6F2B1F" transform="translate(51,40)"/>
<path d="M0 0 C1.32 0 2.64 0 4 0 C4 2.64 4 5.28 4 8 C2.68 8 1.36 8 0 8 C0 5.36 0 2.72 0 0 Z " fill="#974B33" transform="translate(119,36)"/>
<path d="M0 0 C1.32 0 2.64 0 4 0 C4 2.64 4 5.28 4 8 C2.68 8 1.36 8 0 8 C0 5.36 0 2.72 0 0 Z " fill="#974B33" transform="translate(107,36)"/>
<path d="M0 0 C2.64 0 5.28 0 8 0 C8 1.32 8 2.64 8 4 C5.36 4 2.72 4 0 4 C0 2.68 0 1.36 0 0 Z " fill="#EFA367" transform="translate(59,36)"/>
<path d="M0 0 C2.64 0 5.28 0 8 0 C8 1.32 8 2.64 8 4 C5.36 4 2.72 4 0 4 C0 2.68 0 1.36 0 0 Z " fill="#974B33" transform="translate(51,36)"/>
<path d="M0 0 C1.32 0 2.64 0 4 0 C4 2.64 4 5.28 4 8 C2.68 8 1.36 8 0 8 C0 5.36 0 2.72 0 0 Z " fill="#EFA367" transform="translate(127,16)"/>
<path d="M0 0 C1.32 0 2.64 0 4 0 C4 2.64 4 5.28 4 8 C2.68 8 1.36 8 0 8 C0 5.36 0 2.72 0 0 Z " fill="#EFA367" transform="translate(103,16)"/>
<path d="M0 0 C1.32 0 2.64 0 4 0 C4 2.64 4 5.28 4 8 C2.68 8 1.36 8 0 8 C0 5.36 0 2.72 0 0 Z " fill="#EFA367" transform="translate(55,16)"/>
<path d="M0 0 C1.32 0 2.64 0 4 0 C4 2.64 4 5.28 4 8 C2.68 8 1.36 8 0 8 C0 5.36 0 2.72 0 0 Z " fill="#EFA367" transform="translate(31,16)"/>
<path d="M0 0 C1.32 0 2.64 0 4 0 C4 2.64 4 5.28 4 8 C2.68 8 1.36 8 0 8 C0 5.36 0 2.72 0 0 Z " fill="#43130F" transform="translate(119,12)"/>
<path d="M0 0 C1.32 0 2.64 0 4 0 C4 2.64 4 5.28 4 8 C2.68 8 1.36 8 0 8 C0 5.36 0 2.72 0 0 Z " fill="#EFA367" transform="translate(115,12)"/>
<path d="M0 0 C1.32 0 2.64 0 4 0 C4 2.64 4 5.28 4 8 C2.68 8 1.36 8 0 8 C0 5.36 0 2.72 0 0 Z " fill="#43130F" transform="translate(111,12)"/>
<path d="M0 0 C1.32 0 2.64 0 4 0 C4 2.64 4 5.28 4 8 C2.68 8 1.36 8 0 8 C0 5.36 0 2.72 0 0 Z " fill="#43130F" transform="translate(47,12)"/>
<path d="M0 0 C1.32 0 2.64 0 4 0 C4 2.64 4 5.28 4 8 C2.68 8 1.36 8 0 8 C0 5.36 0 2.72 0 0 Z " fill="#EFA367" transform="translate(43,12)"/>
<path d="M0 0 C1.32 0 2.64 0 4 0 C4 2.64 4 5.28 4 8 C2.68 8 1.36 8 0 8 C0 5.36 0 2.72 0 0 Z " fill="#43130F" transform="translate(39,12)"/>
</svg>
